<svg width="465" height="66" viewBox="0 0 465 66" fill="none" xmlns="http://www.w3.org/2000/svg"><path d="M304.92 63.996V40.079m-3.379-6.956c0 4.014 3.379 7.268 3.379 7.268s3.379-3.254 3.379-7.268c0-4.015-3.379-7.268-3.379-7.268s-3.379 3.253-3.379 7.268zm7.896 7.898c-3.289 2.283-4.036 6.928-4.036 6.928s4.591.937 7.885-1.346c3.288-2.283 4.035-6.928 4.035-6.928s-4.596-.936-7.884 1.346zm0 10.942c-3.289 2.283-4.036 6.928-4.036 6.928s4.591.937 7.885-1.346c3.288-2.282 4.035-6.927 4.035-6.927s-4.596-.937-7.884 1.345zm-8.553-10.942c3.289 2.283 4.036 6.928 4.036 6.928s-4.59.937-7.885-1.346C293.747 44.32 293 39.675 293 39.675s4.596-.936 7.884 1.346zm0 10.942c3.289 2.283 4.036 6.928 4.036 6.928s-4.59.937-7.885-1.346c-3.288-2.282-4.035-6.927-4.035-6.927s4.596-.937 7.884 1.345zM84.682 63.172V15.01m-3.096-6.36c0 3.673 3.09 6.649 3.09 6.649s3.09-2.976 3.09-6.65c0-3.674-3.09-6.649-3.09-6.649s-3.09 2.975-3.09 6.65zm7.223 7.222c-3.011 2.09-3.69 6.331-3.69 6.331s4.199.858 7.21-1.232 3.69-6.331 3.69-6.331-4.2-.857-7.21 1.232zm0 10.88c-3.011 2.09-3.69 6.331-3.69 6.331s4.199.858 7.21-1.232 3.69-6.331 3.69-6.331-4.2-.858-7.21 1.232zm-7.818-10.88c3.011 2.09 3.69 6.331 3.69 6.331s-4.2.858-7.21-1.232c-3.011-2.09-3.69-6.331-3.69-6.331s4.2-.857 7.21 1.232zm0 10.88c3.011 2.09 3.69 6.331 3.69 6.331s-4.2.858-7.21-1.232c-3.011-2.09-3.69-6.331-3.69-6.331s4.2-.858 7.21 1.232zm7.818 11.828c-3.011 2.09-3.69 6.331-3.69 6.331s4.199.858 7.21-1.232 3.69-6.332 3.69-6.332-4.2-.857-7.21 1.233zm-7.818 0c3.011 2.09 3.69 6.331 3.69 6.331s-4.2.858-7.21-1.232c-3.011-2.09-3.69-6.332-3.69-6.332s4.2-.857 7.21 1.233zM255 63.786V49m-30 15.136V55m14 9.136V55m105 9.136V55m14 9.136V55m-206.883 8.786v-7.393M16.183 54.996v8.176m11.281-5.292v5.293" stroke="#00A79E" stroke-width="2.035" stroke-miterlimit="10" stroke-linecap="round" stroke-linejoin="round"/><path opacity=".56" d="M382.2 63.48a12.827 12.827 0 01-1.2-5.435c0-7.104 5.739-12.861 12.82-12.861 2.077 0 4.036.5 5.773 1.38 2.638-6.389 8.903-10.88 16.222-10.88 6.837 0 12.752 3.924 15.656 9.642a13.118 13.118 0 011.901-.142c7.081 0 12.82 5.758 12.82 12.861 0 1.942-.43 3.782-1.2 5.434H382.2z" fill="#00A79E"/><path d="M2 64h461" stroke="#00A79E" stroke-width="2.035" stroke-miterlimit="10" stroke-linecap="round" stroke-linejoin="round"/></svg>