<svg width="208" height="208" viewBox="0 0 208 208" fill="none" xmlns="http://www.w3.org/2000/svg"><path d="M103.912 205.699c56.284 0 101.912-45.6 101.912-101.85C205.824 47.599 160.196 2 103.912 2 47.628 2 2 47.6 2 103.849c0 56.25 45.628 101.85 101.912 101.85z" stroke="#00A79E" stroke-width="3" stroke-miterlimit="10" stroke-linecap="round" stroke-linejoin="round"/><path d="M103.912 175.865c39.798 0 72.061-32.243 72.061-72.016 0-39.774-32.263-72.017-72.061-72.017-39.798 0-72.06 32.243-72.06 72.017 0 39.773 32.262 72.016 72.06 72.016z" stroke="#00A79E" stroke-width="3" stroke-miterlimit="10" stroke-linecap="round" stroke-linejoin="round"/><path d="M103.912 140.437c20.219 0 36.61-16.381 36.61-36.588s-16.391-36.587-36.61-36.587c-20.22 0-36.61 16.38-36.61 36.587 0 20.207 16.39 36.588 36.61 36.588z" stroke="#00A79E" stroke-width="3" stroke-miterlimit="10" stroke-linecap="round" stroke-linejoin="round"/></svg>