<svg width="428" height="408" viewBox="0 0 428 408" fill="none" xmlns="http://www.w3.org/2000/svg"><g clip-path="url(#clip0)"><path opacity=".13" d="M1.798 162.966s6.043-56.852 62.501-49.991c56.459 6.86 54.391 105.209 99.448 176.579 45.058 71.37 103.978-89.359 200.985-62.684 65.679 18.06 63.884 134.558-54.703 167.721C123.199 446.822 28.15 339.313 2.706 197.905c-2.886-16.002-3.612-28.563-.908-34.939z" fill="#00A79E"/><path opacity=".22" d="M362.733 201.821c22.176 0 40.154-17.978 40.154-40.155s-17.978-40.154-40.154-40.154c-22.177 0-40.155 17.977-40.155 40.154 0 22.177 17.978 40.155 40.155 40.155z" fill="#00A79E"/><path opacity=".22" d="M365.74 145.341a7.355 7.355 0 100-14.71 7.355 7.355 0 000 14.71z" fill="#00A79E"/><path opacity=".1" d="M373.497 173.53c5.912 0 10.705-4.792 10.705-10.704 0-5.912-4.793-10.705-10.705-10.705-5.911 0-10.704 4.793-10.704 10.705s4.793 10.704 10.704 10.704zm16.931-19.693a3.057 3.057 0 100-6.115 3.057 3.057 0 000 6.115z" fill="#00A79E"/><path opacity=".39" d="M402.806 159.002c15.638 7.941 25 16.244 23.275 21.944-2.744 9.101-32.678 8.132-66.86-2.179s-59.677-26.03-56.933-35.13c1.604-5.317 12.501-7.194 28.098-5.781" stroke="#00A79E" stroke-width="3.119" stroke-miterlimit="10" stroke-linecap="round" stroke-linejoin="round"/><path d="M221.639 186.867c51.547 0 93.334-41.787 93.334-93.334C314.973 41.986 273.186.2 221.639.2c-51.547 0-93.334 41.787-93.334 93.334 0 51.547 41.787 93.334 93.334 93.334z" fill="url(#paint0_radial)"/><path d="M283.494 80.418H158.793v160.113h124.701V80.418z" fill="url(#paint1_linear)"/><path d="M175.241 240.534l-6.921-112.735-45.572 5.246 14.902 107.489h37.591z" fill="url(#paint2_linear)"/><path opacity=".49" d="M271.982 240.534l5.953-112.735 39.196 5.246-12.813 107.489h-32.336z" fill="url(#paint3_linear)"/><path d="M282.525 92.556c0 34.171-27.704 61.866-61.866 61.866-34.172 0-61.866-27.705-61.866-61.866 0-34.172 27.694-61.867 61.866-61.867s61.866 27.695 61.866 61.867z" fill="#F7CC46"/><path d="M267.997 52.734c-11.35-13.479-28.34-22.045-47.338-22.045-34.172 0-61.866 27.695-61.866 61.867a61.984 61.984 0 003.481 20.48c34.888-20.713 70.098-40.87 105.723-60.302zm-40.186 101.273c14.195-1.635 26.927-8.061 36.532-17.636-9.665 4.641-19.3 9.343-28.945 14.004-2.523 1.22-5.065 2.411-7.587 3.632z" fill="#F7DB6F"/><path d="M266.715 91.578c0 25.98-21.056 47.035-47.035 47.035-25.98 0-47.035-21.055-47.035-47.035 0-25.98 21.055-47.035 47.035-47.035 25.979 0 47.035 21.056 47.035 47.035z" fill="#CF852F"/><path d="M268.037 93.536c0 25.627-20.773 46.4-46.399 46.4s-46.4-20.773-46.4-46.4c0-25.626 20.774-46.4 46.4-46.4 25.626 0 46.399 20.774 46.399 46.4z" fill="#E7AC3B"/><path d="M234.845 80.5l-3.965.08c.262-1.079.313-2.38.06-3.924-.514-3.229-1.906-5.317-3.47-6.669l1.675-3.35c.242.05.494.05.756-.01a1.89 1.89 0 001.453-2.24 1.89 1.89 0 00-2.24-1.452 1.89 1.89 0 00-1.453 2.24c.091.403.303.746.586 1.008v.01l-1.584 3.169a10.725 10.725 0 00-2.149-1.15 7.745 7.745 0 00-2.896-.525 7.48 7.48 0 00-2.865.635c-.828.364-1.736.888-2.603 1.635l-1.786-3.007v-.01a1.92 1.92 0 00.515-1.05 1.888 1.888 0 00-1.615-2.128 1.887 1.887 0 00-2.128 1.614 1.887 1.887 0 001.614 2.13c.262.04.514.02.756-.051l1.907 3.218c-1.311 1.402-2.401 3.43-2.754 6.346a12.34 12.34 0 00-.091 1.332 8.87 8.87 0 00.313 2.593l-3.965.08c-7.133.142-12.854 6.084-12.712 13.217a12.941 12.941 0 003.985 9.08 12.936 12.936 0 009.231 3.632c.626-.01 1.241-.07 1.847-.171 2.572 6.215 6.901 10.624 9.393 12.803 1.089.948 2.774.928 3.854-.03 2.532-2.25 6.941-6.831 9.423-13.167a12.949 12.949 0 0010.503-3.934 12.946 12.946 0 003.632-9.232c-.152-7.143-6.094-12.863-13.227-12.722z" fill="#B05E2F"/><path d="M233.37 79.52l-3.965.08c.263-1.08.313-2.381.061-3.925-.515-3.228-1.907-5.316-3.471-6.668l1.675-3.35c.242.05.494.05.757-.01a1.889 1.889 0 00-.787-3.693 1.89 1.89 0 00-1.453 2.24c.091.404.303.747.585 1.009v.01l-1.584 3.168a10.703 10.703 0 00-2.149-1.15 7.741 7.741 0 00-2.896-.525 7.486 7.486 0 00-2.865.636c-.827.363-1.735.888-2.603 1.634l-1.786-3.006v-.01c.263-.273.454-.636.515-1.05a1.888 1.888 0 00-1.614-2.128 1.888 1.888 0 00-2.129 1.614 1.888 1.888 0 001.614 2.129c.263.04.515.02.757-.05l1.907 3.218c-1.312 1.402-2.401 3.43-2.755 6.346-.06.464-.08.908-.09 1.331a8.84 8.84 0 00.312 2.593l-3.965.081c-7.133.141-12.853 6.084-12.712 13.217a12.947 12.947 0 003.985 9.08 12.945 12.945 0 009.232 3.632c.625-.01 1.241-.071 1.846-.172 2.573 6.215 6.901 10.624 9.393 12.803 1.09.949 2.775.929 3.854-.03 2.532-2.25 6.941-6.83 9.423-13.166a12.943 12.943 0 0010.503-3.935c2.3-2.391 3.703-5.67 3.632-9.231-.141-7.143-6.094-12.864-13.227-12.723z" fill="#F7CC46"/><path d="M257.967 36.924l2.704 4.923 4.923 2.694-4.923 2.694-2.704 4.933-2.694-4.933-4.923-2.694 4.923-2.694 2.694-4.923zm-2.905 96.988l2.724 4.974 4.974 2.724-4.974 2.724-2.724 4.984-2.724-4.984-4.984-2.724 4.984-2.724 2.724-4.974z" fill="#F7F56F"/><path opacity=".59" d="M287.156 98.346l1.302 2.371 2.371 1.291-2.371 1.302-1.302 2.37-1.291-2.37-2.371-1.302 2.371-1.291 1.291-2.371z" fill="#F7DB6F"/><path d="M95.606 281.424c.111-.384.182-.787.182-1.201a4.147 4.147 0 00-4.147-4.147c-.292 0-.575.031-.847.091a6.451 6.451 0 00-6.215-4.701c-.434 0-.857.04-1.271.131a9.088 9.088 0 00-8.303-5.398 9.085 9.085 0 00-9.04 10.019 4.342 4.342 0 00-1.03-.131 4.146 4.146 0 00-4.146 4.146c0 .414.06.817.182 1.201h34.635v-.01zm-33.746 6.455h12.994m-10.967-17.141h9.211m272.695 4.428a4.326 4.326 0 01-.182-1.201 4.147 4.147 0 014.994-4.056 6.461 6.461 0 016.215-4.701c.434 0 .858.04 1.271.131a9.09 9.09 0 018.304-5.398 9.085 9.085 0 019.04 10.019 4.343 4.343 0 011.029-.131 4.146 4.146 0 014.146 4.146c0 .414-.06.817-.181 1.201h-34.636v-.01zM50.385 183.67v-11.149m-5.569 5.569h11.139m-29.672 92.094v-11.149m-5.578 5.569h11.149m313.968-18.501v-11.138m-5.568 5.568h11.138m53.967 59.162v-11.138m-5.568 5.568h11.148M37.422 356.922v-11.139m-5.568 5.569h11.138m140.227-52.282v-11.148m-5.569 5.578h11.149m140.064-34.363a31.55 31.55 0 012.906 13.257v19.926m-220.265-10.898v-9.029c0-17.525 14.336-31.862 31.861-31.862h156.562c8.082 0 15.477 3.047 21.107 8.051m-209.53 44.916v-5.619m220.269 41.479v21.106c0 17.525-14.337 31.861-31.862 31.861H143.359c-17.524 0-31.861-14.336-31.861-31.861v-48.771" stroke="#00A79E" stroke-width="3.363" stroke-miterlimit="10" stroke-linecap="round" stroke-linejoin="round"/><path d="M342.112 329.357h-54.128c-5.055 0-9.191-4.137-9.191-9.192v-17.474c0-5.054 4.136-9.191 9.191-9.191h54.128c5.055 0 9.191 4.137 9.191 9.191v17.474c0 5.055-4.136 9.192-9.191 9.192z" stroke="#00A79E" stroke-width="3.363" stroke-miterlimit="10" stroke-linecap="round" stroke-linejoin="round"/><path d="M315.043 329.355v8.384" stroke="#00A79E" stroke-width="3.54" stroke-linecap="round" stroke-linejoin="round"/><path d="M312.019 354.407c-4.369 8.202-13.025 13.822-22.923 13.822H155.164c-14.276 0-25.949-11.673-25.949-25.949v-59.606c0-14.276 11.673-25.949 25.949-25.949h133.942c12.178 0 22.479 8.505 25.223 19.875" stroke="#00A79E" stroke-width="3.54" stroke-linecap="round" stroke-linejoin="round" stroke-dasharray="17.15 17.15"/><path d="M315.043 285.115v8.374" stroke="#00A79E" stroke-width="3.54" stroke-linecap="round" stroke-linejoin="round"/><path d="M297.033 317.371a6.145 6.145 0 10-.001-12.289 6.145 6.145 0 00.001 12.289zM76.707 383.242H370.41m-251.43 13.225h77.212M88.654 362.479c-6.568 0-11.935-5.377-11.935-11.935V327.42c0-6.568 5.377-11.936 11.935-11.936 6.568 0 11.935 5.378 11.935 11.936v23.124c0 6.568-5.367 11.935-11.935 11.935zm.19 20.258V338.98m6.063 3.795l-6.063 4.793m6.063 3.539l-6.063 4.803m-6.072-13.135l6.073 4.793m6.062-12.613l-6.063 4.792m-6.072-4.792l6.073 4.792m-6.073 11.36l6.073 4.803m-.001-16.929v-9.1m264.97 42.191c-4.853 0-8.818-3.965-8.818-8.818v-17.081c0-4.853 3.965-8.818 8.818-8.818s8.818 3.965 8.818 8.818v17.081c0 4.843-3.965 8.818-8.818 8.818z" stroke="#00A79E" stroke-width="3.363" stroke-miterlimit="10" stroke-linecap="round" stroke-linejoin="round"/><path d="M353.955 382.987v-28.28l4.48-3.359m0 6.158l-4.48 3.551m4.48 2.611l-4.48 3.541m-4.48-9.703l4.479 3.551m-4.479 2.611l4.479 3.541m.001-12.501v-6.72m-27.595 48.479H213.434v-7.819m126.388-14.871v9.212m-10.634-6.487v6.487m-108.831 8.478v5.004m-81.045-7.823v7.819m-36.191-25.231v11.078M370.41 308.35h14.831m-12.034 8.242h14.831M88.361 218.406h7.416m-24.336 6.709h24.335" stroke="#00A79E" stroke-width="3.363" stroke-miterlimit="10" stroke-linecap="round" stroke-linejoin="round"/><g opacity=".54"><path opacity=".54" d="M241.092 200.152c7.332 0 13.277-5.944 13.277-13.277 0-7.333-5.945-13.277-13.277-13.277-7.333 0-13.278 5.944-13.278 13.277 0 7.333 5.945 13.277 13.278 13.277z" stroke="#FC3" stroke-width=".953" stroke-miterlimit="10"/><path opacity=".54" d="M276.38 163.681a9.676 9.676 0 100-19.352 9.676 9.676 0 000 19.352zm-89.154 21.027a9.676 9.676 0 100-19.35 9.676 9.676 0 000 19.35z" stroke="#FC3" stroke-width="2.082" stroke-miterlimit="10"/><path opacity=".54" d="M170.226 157.313a2.421 2.421 0 100-4.842 2.421 2.421 0 000 4.842zm-26.081 34.606a4.832 4.832 0 10.001-9.665 4.832 4.832 0 00-.001 9.665zm150.408 4.834a4.832 4.832 0 10.001-9.665 4.832 4.832 0 00-.001 9.665z" fill="#FC3"/></g></g><defs><linearGradient id="paint1_linear" x1="222.921" y1="23.272" x2="219.957" y2="251.497" gradientUnits="userSpaceOnUse"><stop stop-color="#fff" stop-opacity="0"/><stop offset=".161" stop-color="#FFFEFC" stop-opacity=".161"/><stop offset=".303" stop-color="#FFFBF1" stop-opacity=".303"/><stop offset=".437" stop-color="#FFF7DF" stop-opacity=".437"/><stop offset=".567" stop-color="#FFF1C5" stop-opacity=".567"/><stop offset=".694" stop-color="#FFE8A4" stop-opacity=".694"/><stop offset=".819" stop-color="#FFDE7C" stop-opacity=".819"/><stop offset=".939" stop-color="#FFD34E" stop-opacity=".939"/><stop offset="1" stop-color="#FC3"/></linearGradient><linearGradient id="paint2_linear" x1="150.278" y1="88.146" x2="148.205" y2="247.784" gradientUnits="userSpaceOnUse"><stop stop-color="#fff" stop-opacity="0"/><stop offset=".161" stop-color="#FFFEFC" stop-opacity=".161"/><stop offset=".303" stop-color="#FFFBF1" stop-opacity=".303"/><stop offset=".437" stop-color="#FFF7DF" stop-opacity=".437"/><stop offset=".567" stop-color="#FFF1C5" stop-opacity=".567"/><stop offset=".694" stop-color="#FFE8A4" stop-opacity=".694"/><stop offset=".819" stop-color="#FFDE7C" stop-opacity=".819"/><stop offset=".939" stop-color="#FFD34E" stop-opacity=".939"/><stop offset="1" stop-color="#FC3"/></linearGradient><linearGradient id="paint3_linear" x1="293.276" y1="88.201" x2="295.348" y2="247.76" gradientUnits="userSpaceOnUse"><stop stop-color="#fff" stop-opacity="0"/><stop offset=".161" stop-color="#FFFEFC" stop-opacity=".161"/><stop offset=".303" stop-color="#FFFBF1" stop-opacity=".303"/><stop offset=".437" stop-color="#FFF7DF" stop-opacity=".437"/><stop offset=".567" stop-color="#FFF1C5" stop-opacity=".567"/><stop offset=".694" stop-color="#FFE8A4" stop-opacity=".694"/><stop offset=".819" stop-color="#FFDE7C" stop-opacity=".819"/><stop offset=".939" stop-color="#FFD34E" stop-opacity=".939"/><stop offset="1" stop-color="#FC3"/></linearGradient><radialGradient id="paint0_radial" cx="0" cy="0" r="1" gradientUnits="userSpaceOnUse" gradientTransform="translate(221.639 93.537) scale(93.3374)"><stop offset=".599" stop-color="#FC3" stop-opacity=".4"/><stop offset="1" stop-color="#fff" stop-opacity="0"/></radialGradient><clipPath id="clip0"><path fill="#fff" transform="translate(.113 .2)" d="M0 0h427.736v407.8H0z"/></clipPath></defs></svg>