<svg width="142" height="291" viewBox="0 0 142 291" fill="none" xmlns="http://www.w3.org/2000/svg"><path d="M132.775 59.06c.586-.233.874-.893.642-1.478l-1.989-5.056a1.138 1.138 0 10-2.119.837l1.989 5.055c.232.576.892.864 1.477.642z" fill="#ECD5B9"/><path d="M132.933 58.734a1.15 1.15 0 001.468-.678l1.887-5.093a1.15 1.15 0 00-.678-1.468 1.151 1.151 0 00-1.469.678l-1.886 5.093a1.15 1.15 0 00.678 1.468zm1.07 1.672c.446.437 1.17.428 1.617-.019l3.791-3.893a1.153 1.153 0 00-.018-1.617 1.153 1.153 0 00-1.617.018l-3.792 3.894a1.152 1.152 0 00.019 1.617zm-2.408.176a1.153 1.153 0 00-.018-1.617l-3.894-3.792a1.153 1.153 0 00-1.617.019 1.153 1.153 0 00.019 1.617l3.893 3.792a1.136 1.136 0 001.617-.019z" fill="#ECD5B9"/><path d="M133.121 60.89a1.15 1.15 0 00-1.19-1.096l-5.427.214a1.15 1.15 0 00-1.097 1.19 1.15 1.15 0 001.19 1.096l5.427-.214a1.143 1.143 0 001.097-1.19z" fill="#ECD5B9"/><path d="M98.809 133.414a61.788 61.788 0 0016.978-11.291c17.471-16.338 23.326-40.444 17.22-61.977" stroke="#ECD5B9" stroke-width="10.673" stroke-miterlimit="10" stroke-linecap="round" stroke-linejoin="round"/><path d="M96.895 136.128a67.186 67.186 0 0018.456-12.267 67.415 67.415 0 0013.615-17.815c7.88-14.971 9.887-32.6 5.102-49.514a5.669 5.669 0 00-.753-1.561c2.323 0 4.46 1.515 5.13 3.856 4.795 16.905 2.778 34.543-5.102 49.514-3.439 6.543-8.011 12.574-13.615 17.815a66.86 66.86 0 01-18.456 12.267 5.321 5.321 0 01-6.561-1.849 4.948 4.948 0 002.184-.446z" fill="#F2BC9C"/><path d="M117.422 287.114l-2.1.678a3.248 3.248 0 01-4.08-2.1l-23.186-72.208a3.247 3.247 0 012.1-4.08l2.1-.678a3.248 3.248 0 014.08 2.1l23.187 72.208a3.263 3.263 0 01-2.101 4.08zm-51.557 2.814h-2.211a3.252 3.252 0 01-3.244-3.243v-75.832a3.252 3.252 0 013.244-3.244h2.211a3.252 3.252 0 013.244 3.244v75.832a3.252 3.252 0 01-3.244 3.243z" fill="#194B2C"/><path d="M77.836 222.953c24.259-1.556 43.461-10.05 42.889-18.973-.572-8.923-20.702-14.895-44.96-13.34-24.26 1.556-43.461 10.05-42.89 18.973.573 8.923 20.703 14.896 44.961 13.34zm-15.253 30.372a4.396 4.396 0 100-8.791 4.396 4.396 0 000 8.791zm43.447-2.166a4.396 4.396 0 100-8.793 4.396 4.396 0 000 8.793z" fill="#194B2C"/><path d="M75.742 190.642c-24.255 1.552-43.455 10.046-42.888 18.976.232 3.634 3.708 6.775 9.377 9.126l70.331-4.507c5.325-3.048 8.373-6.617 8.14-10.241-.576-8.931-20.705-14.906-44.96-13.354z" fill="#193F2C"/><path d="M7.682 68.408a1.15 1.15 0 01-.753-1.43l1.617-5.186a1.15 1.15 0 011.432-.753c.594.186.938.827.752 1.431l-1.617 5.186a1.147 1.147 0 01-1.43.752z" fill="#ECD5B9"/><path d="M7.504 68.092a1.15 1.15 0 01-1.515-.567l-2.25-4.944c-.26-.567 0-1.255.568-1.515.567-.26 1.254 0 1.515.567l2.248 4.944c.26.576 0 1.255-.566 1.515zm-.948 1.748a1.144 1.144 0 01-1.607.093L.887 66.327a1.144 1.144 0 01-.093-1.608 1.144 1.144 0 011.608-.093l4.061 3.606c.465.418.511 1.143.093 1.608zm2.408.007a1.144 1.144 0 01-.093-1.607l3.605-4.062a1.144 1.144 0 011.608-.093c.465.419.511 1.144.093 1.608l-3.606 4.061a1.144 1.144 0 01-1.607.093z" fill="#ECD5B9"/><path d="M7.467 70.266a1.149 1.149 0 011.106-1.18L14 68.908a1.155 1.155 0 011.18 1.106 1.149 1.149 0 01-1.105 1.18l-5.427.176a1.15 1.15 0 01-1.18-1.105z" fill="#ECD5B9"/><path d="M46.861 140.16a61.58 61.58 0 01-17.74-10.055C10.534 115.05 2.968 91.427 7.523 69.514" stroke="#ECD5B9" stroke-width="10.673" stroke-miterlimit="10" stroke-linecap="round" stroke-linejoin="round"/><path d="M48.97 142.724a66.87 66.87 0 01-19.283-10.92 67.349 67.349 0 01-14.85-16.802c-8.922-14.367-12.193-31.81-8.615-49.021.12-.586.353-1.115.641-1.608-2.314.167-4.34 1.822-4.841 4.21-3.578 17.201-.307 34.645 8.614 49.021a67.349 67.349 0 0014.85 16.802 66.87 66.87 0 0019.284 10.92 5.327 5.327 0 006.412-2.305 5.232 5.232 0 01-2.211-.297z" fill="#F2BC9C"/><path d="M113.957 211.952l-76.14 4.879a6.712 6.712 0 01-7.118-6.264l-4.897-76.353c-.883-13.763 9.655-25.751 23.428-26.634l46.92-3.011c13.764-.883 25.752 9.656 26.635 23.428l4.414 68.881c.502 7.797-5.464 14.572-13.242 15.074z" fill="#E7BF6B"/><g opacity=".71"><path opacity=".71" d="M65.864 124.771l-12.01.77.243 3.803 12.01-.771-.243-3.802zm26.87-1.724l-1.734.111.244 3.803 1.734-.111-.244-3.803zm-21.34 1.375l-1.734.111.244 3.803 1.734-.111-.244-3.803zm15.81-1.018l-12.01.77.243 3.802 12.01-.77-.243-3.802zm-42.686 2.736l-12.01.77.244 3.803 12.01-.77-.244-3.803zm64.024-4.102l-12.01.771.243 3.802 12.011-.77-.244-3.803zm5.538-.358l-1.734.111.244 3.803 1.734-.112-.244-3.802zm3.772-.236l3.327-.214c.418 1.209.752 2.463.985 3.755l-4.062.26-.25-3.801zm-89.142 5.714l-1.733.112.243 3.802 1.735-.111-.244-3.803zm21.349-1.369l-1.735.111.244 3.803 1.734-.111-.243-3.803zm-19.924 23.447l-1.735.112.244 3.802 1.735-.111-.244-3.803zm21.335-1.375l-1.734.112.244 3.802 1.735-.111-.244-3.803zm21.34-1.367l-1.734.111.244 3.803 1.734-.111-.243-3.803zm-5.532.359l-12.01.77.243 3.803 12.011-.771-.244-3.802zm21.338-1.367l-12.01.77.243 3.802 12.01-.77-.243-3.802zm26.878-1.726l-1.734.111.244 3.803 1.734-.112-.244-3.802zm8.028-.516l-4.229.272.244 3.802 4.229-.271-.244-3.803zm-29.366 1.881l-1.734.111.244 3.803 1.734-.111-.244-3.803zM45.94 148.22l-12.01.77.243 3.803 12.011-.77-.244-3.803zm64.024-4.1l-12.01.771.243 3.802 12.011-.77-.244-3.803zm-62.61 26.182l-12.01.77.244 3.803 12.01-.77-.244-3.803zm21.338-1.367l-12.01.77.243 3.803 12.011-.771-.244-3.802zm21.338-1.377l-12.01.77.243 3.803 12.01-.771-.243-3.802zm-15.807 1.018l-1.735.112.244 3.802 1.734-.111-.243-3.803zm-42.676 2.733l-1.735.111.244 3.802 1.735-.111-.244-3.802zm64.023-4.102l-1.734.111.244 3.803 1.734-.111-.244-3.803zm29.366-1.883l-4.229.272.244 3.802 4.229-.271-.244-3.803zm-13.558.869l-12.01.77.243 3.802 12.011-.77-.244-3.802zm5.53-.351l-1.734.111.244 3.803 1.734-.112-.244-3.802zm-64.023 4.101l-1.735.112.244 3.802 1.735-.111-.244-3.803zm73.463 17.464l-4.229.271.244 3.802 4.229-.271-.244-3.802zm-77.58 4.975l-12.01.77.244 3.803 12.01-.77-.244-3.803zm-15.808 1.009l-1.733.111.243 3.803 1.735-.112-.244-3.802zm42.687-2.733l-1.735.112.244 3.802 1.734-.111-.243-3.803zm42.675-2.736l-1.734.111.244 3.803 1.734-.111-.244-3.803zm-48.216 3.085l-12.01.77.244 3.803 12.01-.77-.244-3.803zm-15.807 1.018l-1.734.112.243 3.802 1.735-.111-.244-3.803zm37.153-2.387l-12.01.77.243 3.803 12.01-.77-.243-3.803zm5.532-.347l-1.734.111.244 3.803 1.734-.111-.244-3.803zm15.808-1.02l-12.011.77.244 3.803 12.011-.771-.244-3.802z" fill="#472F17"/><path opacity=".71" d="M68.914 172.735l-.241-3.792-1.171-18.279-.242-3.801-1.17-18.28-.252-3.801-1.143-17.87 3.801-.242 1.143 17.871.242 3.801 1.17 18.279.242 3.792 1.18 18.28.242 3.8 1.171 18.28.242 3.801 1.273 19.85-3.8.242-1.274-19.85-.242-3.801-1.17-18.28zM48.3 125.905l.242 3.801 1.17 18.28.243 3.801 1.17 18.28.242 3.8 1.171 18.28.242 3.801 1.273 19.85-3.801.242-1.264-19.86-.242-3.801-1.17-18.279-.242-3.801-1.171-18.28-.242-3.801-1.17-18.279-.242-3.801-1.134-17.759.474-.14 3.318-.214 1.133 17.88zm-21.094 5.169l1.17 18.28.242 3.801 1.171 18.279.242 3.801 1.17 18.28.242 3.801 1.143 17.778a6.688 6.688 0 01-2.155-4.498l-4.907-76.548a24.927 24.927 0 011.254-9.544l.177 2.788.25 3.782zm85.563 57.208l-1.171-18.279-.242-3.801-1.171-18.28-.241-3.801-1.171-18.279-.242-3.801-1.004-15.603a25.096 25.096 0 013.95 2.193l.846 13.168.241 3.801 1.171 18.28.242 3.801 1.171 18.279.241 3.801 1.171 18.28.242 3.801 1.227 19.134c-1.181.474-2.435.79-3.755.93l-1.273-19.823-.232-3.801zM90.25 171.366l-.241-3.792-1.171-18.289-.242-3.791-1.17-18.28-.242-3.801-1.153-17.871 3.801-.241 1.143 17.871.251 3.791 1.171 18.289.242 3.792 1.17 18.279.242 3.801 1.171 18.28.242 3.801 1.273 19.85-3.792.242-1.273-19.851-.25-3.8-1.172-18.28z" fill="#472F17"/><path opacity=".71" d="M74.444 172.38l-.242-3.792-1.17-18.289-.242-3.792-1.171-18.279-.251-3.801-1.143-17.871 3.8-.242 1.144 17.871.241 3.792 1.171 18.289.251 3.791 1.171 18.28.242 3.801 1.17 18.28.242 3.801 1.273 19.85-3.8.241-1.274-19.85-.241-3.801-1.171-18.279zm-21.338 1.367l-.242-3.792-1.17-18.28-.252-3.8-1.17-18.28-.242-3.801-1.143-17.871 3.8-.241 1.144 17.87.241 3.801 1.171 18.28.242 3.792 1.17 18.289.252 3.791 1.17 18.28.242 3.801 1.273 19.85-3.8.242-1.274-19.851-.241-3.801-1.171-18.279zM32.94 193.403l-1.17-18.28-.242-3.801-1.171-18.28-.242-3.801-1.171-18.279-.242-3.801-.4-6.236a25.773 25.773 0 013.486-5.083l.706 11.087.242 3.8 1.17 18.28.242 3.801 1.171 18.28.242 3.801 1.17 18.279.242 3.801 1.273 19.85-.697.047a6.63 6.63 0 01-3.15-.567l-1.227-19.088-.232-3.81zm85.357-5.477l-1.171-18.279-.241-3.801-1.171-18.28-.242-3.801-1.171-18.28-.242-3.801-.752-11.7a25.298 25.298 0 014.079 4.201l.465 7.249.242 3.8 1.171 18.28.241 3.801 1.171 18.28.242 3.801 1.171 18.279.241 3.801 1.013 15.752a14.31 14.31 0 01-3.624 2.918l-1.18-18.428-.242-3.792zM95.79 171.014l-.252-3.801-1.17-18.28-.242-3.791-1.171-18.289-.242-3.792-1.143-17.871 3.792-.251 1.152 17.881.242 3.791 1.17 18.28.242 3.801 1.171 18.279.242 3.801 1.171 18.28.242 3.801 1.273 19.85-3.792.242-1.273-19.851-.242-3.8-1.17-18.28z" fill="#fff"/></g><path d="M100.287 63.76a4.349 4.349 0 100-8.697 4.349 4.349 0 000 8.698zM34.12 68.995a4.35 4.35 0 100-8.698 4.35 4.35 0 000 8.698z" fill="#F1BBBB"/><path d="M71.713 119.689l.595-.047c17.694-1.403 31.02-17.025 29.626-34.719l-2.137-26.987c-1.404-17.694-17.025-31.02-34.72-29.627l-.594.056c-17.695 1.403-31.021 17.025-29.627 34.72l2.137 26.986c1.404 17.685 17.026 31.021 34.72 29.618z" fill="#ECD5B9"/><path d="M58.776 64.515l.056-.01a3.179 3.179 0 002.908-3.41l-.316-3.996a3.179 3.179 0 00-3.41-2.91l-.056.01a3.179 3.179 0 00-2.909 3.41l.316 3.997a3.179 3.179 0 003.41 2.909z" fill="#000"/><path opacity=".38" d="M59.091 60.119h.028a1.364 1.364 0 001.255-1.469l-.14-1.728a1.364 1.364 0 00-1.468-1.255h-.028a1.364 1.364 0 00-1.254 1.468l.139 1.729c.056.753.716 1.31 1.468 1.255z" fill="#fff"/><path d="M85.065 79.977c1.115-.093 2.063.864 1.924 1.98-.762 6.05-5.65 10.938-11.96 11.44-6.31.501-11.905-3.56-13.615-9.415-.316-1.078.474-2.165 1.589-2.258l22.062-1.747z" fill="#A8132A"/><path opacity=".15" d="M64.546 51.681a1.87 1.87 0 00-2.007-1.71l-6.598.52a1.87 1.87 0 00-1.71 2.008 1.87 1.87 0 002.007 1.71l6.598-.52a1.876 1.876 0 001.71-2.008z" fill="#000"/><path d="M64.378 49.607a1.87 1.87 0 00-2.007-1.71l-6.598.52a1.87 1.87 0 00-1.71 2.008 1.87 1.87 0 002.007 1.71l6.598-.52a1.87 1.87 0 001.71-2.008z" fill="#341500"/><path d="M74.433 75.75a4.229 4.229 0 100-8.457 4.229 4.229 0 000 8.457z" fill="#F0C1AF"/><path d="M71.617 72.812a4.22 4.22 0 005.902-.92c.4-.548.631-1.152.734-1.775a4.222 4.222 0 01-6.468 4.823 4.193 4.193 0 01-1.655-4.126c.27.78.772 1.478 1.487 1.998z" fill="#F4A8BB"/><path d="M64.87 81.576l18.206-1.44c.93-.075 1.71.715 1.59 1.645v.027a1.79 1.79 0 01-1.627 1.562l-17.61 1.394a1.789 1.789 0 01-1.85-1.283c0-.009-.01-.018-.01-.028-.269-.892.373-1.803 1.302-1.877z" fill="#fff"/><path d="M43.479 60.304a4.815 4.815 0 01-4.396 5.157c-1.765.14-3.383-.724-4.321-2.1l-.019-.27c-.678-8.558 2.11-16.616 7.156-22.823l1.58 20.036zm47.284-4.182a4.797 4.797 0 005.158 4.396c1.766-.14 3.225-1.246 3.94-2.751l-.018-.27c-.678-8.559-4.703-16.077-10.66-21.411l1.58 20.036z" fill="#241500"/><path d="M48.628 47.899l37.182-2.946c8.484-.669 14.878-8.169 14.209-16.653l-1.218-15.427-52.608 4.163c-8.485.67-14.878 8.17-14.21 16.654.66 8.484 8.16 14.878 16.645 14.209z" fill="#341500"/><path d="M48.274 42.062l37.182-2.946c8.485-.669 14.879-8.168 14.21-16.653l.464 5.836c.669 8.485-5.724 15.984-14.21 16.653l-37.18 2.946c-8.485.67-15.984-5.724-16.653-14.209-.075-.994-.056-1.98.055-2.937 1.933 6.989 8.643 11.896 16.133 11.31z" fill="#241500"/><path d="M85.178 62.423l.056-.01a3.179 3.179 0 002.909-3.41l-.316-3.996a3.179 3.179 0 00-3.41-2.909l-.057.01a3.179 3.179 0 00-2.908 3.41l.316 3.996a3.179 3.179 0 003.41 2.909z" fill="#000"/><path opacity=".38" d="M85.726 58.01h.028a1.364 1.364 0 001.254-1.47l-.139-1.728a1.364 1.364 0 00-1.468-1.254h-.028a1.364 1.364 0 00-1.255 1.468l.14 1.729c.056.752.715 1.32 1.468 1.254z" fill="#fff"/><path opacity=".15" d="M91.663 49.533a1.87 1.87 0 00-2.007-1.71l-6.598.52a1.87 1.87 0 00-1.71 2.007 1.87 1.87 0 002.007 1.71l6.599-.52a1.87 1.87 0 001.71-2.007z" fill="#000"/><path d="M91.497 47.462a1.87 1.87 0 00-2.007-1.71l-6.598.52a1.87 1.87 0 00-1.71 2.008 1.87 1.87 0 002.007 1.71l6.599-.52a1.87 1.87 0 001.71-2.008z" fill="#341500"/><path opacity=".3" d="M96.088 110.556l-45.11 3.754c-16.486 1.375-31.104-10.994-32.47-27.48l-4.832-58.064 105.059-8.744 4.832 58.063c1.376 16.486-10.993 31.104-27.48 32.471z" fill="#FFDEB4"/><path d="M104.117 21.6l-76.734 6.383a4.441 4.441 0 01-4.786-4.051l-1.05-12.648a4.441 4.441 0 014.052-4.786L102.332.113a4.44 4.44 0 014.786 4.052l1.051 12.648a4.442 4.442 0 01-4.052 4.786z" fill="#E7BF6B"/><path d="M22.096 17.872l.39 4.721c.204 2.435 2.36 4.257 4.786 4.052l76.734-6.384c2.434-.205 4.256-2.36 4.052-4.786l-.391-4.721-85.571 7.118z" fill="#AB6E45"/><path d="M113.837 26.198l-94.316 7.853c-2.955.242-5.576-1.97-5.817-4.925-.242-2.955 1.97-5.576 4.925-5.818l94.316-7.852c2.956-.242 5.576 1.97 5.818 4.925.251 2.955-1.97 5.576-4.926 5.817z" fill="#E7BF6B"/><path d="M86.784 153.823a2.435 2.435 0 100-4.87 2.435 2.435 0 000 4.87zm.52 8.01a2.435 2.435 0 10-.001-4.87 2.435 2.435 0 000 4.87zm.539 8.427a2.435 2.435 0 100-4.87 2.435 2.435 0 000 4.87z" fill="#002F44"/><path d="M119.198 279.196l-9.656 3.104a1.568 1.568 0 01-1.961-1.004c-.26-.818.195-1.7 1.004-1.961l9.655-3.103a1.567 1.567 0 011.961 1.003 1.553 1.553 0 01-1.003 1.961zm-49.412 3.745H59.647a1.57 1.57 0 01-1.561-1.561c0-.855.706-1.562 1.561-1.562h10.139c.855 0 1.561.707 1.561 1.562 0 .855-.697 1.561-1.561 1.561z" fill="#243B93"/><path d="M114.859 279.334c-2.714.873-5.111 2.118-7.044 3.577-3.29 2.482-.641 7.658 3.29 6.403l12.629-4.051c3.922-1.264 3.067-7.017-1.059-7.119-2.426-.056-5.102.325-7.816 1.19z" fill="#57222B"/><path d="M123.177 283.423l-12.629 4.052c-1.803.576-3.318-.205-4.136-1.45.084 2.193 2.128 4.238 4.758 3.392l12.63-4.052c2.63-.845 3.104-3.708 1.895-5.529.065 1.487-.715 3.011-2.518 3.587z" fill="#3F242C"/><path d="M63.838 281.74c-2.843 0-5.51.456-7.806 1.255-3.894 1.357-2.955 7.1 1.171 7.1h13.27c4.127 0 5.066-5.743 1.172-7.1-2.296-.79-4.963-1.255-7.807-1.255z" fill="#57222B"/><path d="M70.473 288.172h-13.27c-1.887 0-3.105-1.208-3.495-2.649-.595 2.11.734 4.693 3.494 4.693h13.271c2.76 0 4.089-2.583 3.494-4.693-.39 1.441-1.608 2.649-3.494 2.649z" fill="#3F242C"/><path d="M111.746 111.92l11.496 14.553a4.23 4.23 0 005.919.697 4.23 4.23 0 00.697-5.92l-11.495-14.553a4.23 4.23 0 00-5.92-.697c-1.822 1.431-2.138 4.098-.697 5.92zm-84.866 3.187l-9.274 16.059c-1.162 2.007-.465 4.6 1.542 5.761 2.008 1.162 4.6.465 5.762-1.542l9.274-16.059c1.162-2.007.465-4.6-1.542-5.762-2.008-1.152-4.6-.464-5.762 1.543z" fill="#341500"/></svg>