<svg width="152" height="275" viewBox="0 0 152 275" fill="none" xmlns="http://www.w3.org/2000/svg"><path d="M8.828 120.993a1.14 1.14 0 01-1.608-.065l-3.67-4.005a1.142 1.142 0 01.065-1.608 1.143 1.143 0 011.607.065l3.671 4.006c.428.455.4 1.18-.065 1.607z" fill="#ECD5B9"/><path d="M8.465 120.984a1.144 1.144 0 01-1.245 1.022l-5.408-.539a1.143 1.143 0 01-1.023-1.245 1.144 1.144 0 011.246-1.023l5.408.539a1.132 1.132 0 011.022 1.246zm1.04 1.702a1.146 1.146 0 01-.725 1.441l-5.158 1.7a1.145 1.145 0 01-1.44-.724 1.146 1.146 0 01.725-1.441l5.157-1.7a1.133 1.133 0 011.44.724zm1.22-2.084a1.145 1.145 0 01-1.44-.725l-1.701-5.157a1.146 1.146 0 01.725-1.441 1.145 1.145 0 011.44.725l1.701 5.158a1.145 1.145 0 01-.725 1.44z" fill="#ECD5B9"/><path d="M10.324 122.107a1.145 1.145 0 01-.465-1.542l2.574-4.786a1.147 1.147 0 011.543-.465c.548.298.762.995.465 1.543l-2.575 4.786a1.14 1.14 0 01-1.542.464z" fill="#ECD5B9"/><path d="M52.868 142.803c-16.913.512-33.64-5.427-46.726-17.155a5.345 5.345 0 01-.418-7.536 5.335 5.335 0 017.537-.409c15.817 14.172 37.972 18.279 57.785 10.715a56.137 56.137 0 0016.086-9.414 5.337 5.337 0 017.518.678 5.336 5.336 0 01-.678 7.518 67.066 67.066 0 01-19.125 11.189 66.85 66.85 0 01-21.979 4.414z" fill="#ECD5B9"/><path d="M93.832 122.582a66.963 66.963 0 01-19.125 11.189 67.407 67.407 0 01-21.988 4.405c-16.913.511-33.632-5.428-46.726-17.156a5.321 5.321 0 01-1.069-1.366c-1.012 2.091-.604 4.675 1.218 6.301 13.085 11.728 29.812 17.657 46.726 17.155a67.454 67.454 0 0021.988-4.405 66.94 66.94 0 0019.125-11.189c2.007-1.672 2.463-4.507 1.227-6.709a5.368 5.368 0 01-1.376 1.775z" fill="#F2BC9C"/><path d="M95.17 119.692a5.381 5.381 0 00-7.583-.678 56.728 56.728 0 01-16.226 9.488c-18.177 6.933-38.279 4.107-53.78-7.202l-6.542 8.596c12.295 9.042 27.062 13.559 41.977 13.112a68.044 68.044 0 0022.174-4.442 67.445 67.445 0 0019.292-11.291 5.381 5.381 0 00.688-7.583z" fill="#002544"/><path d="M17.195 120.596l-6.783 9.269 5.31 3.885 6.783-9.269-5.31-3.885z" fill="#fff"/><path d="M65.916 52.967a4.721 4.721 0 100-9.442 4.721 4.721 0 000 9.442zm66.772 0a4.721 4.721 0 100-9.442 4.721 4.721 0 000 9.442z" fill="#F1BBBB"/><path d="M111.832 274.313h-2.212a3.252 3.252 0 01-3.243-3.243v-75.833a3.252 3.252 0 013.243-3.243h2.212a3.252 3.252 0 013.243 3.243v75.833a3.252 3.252 0 01-3.243 3.243zm-19.115 0h-2.212a3.252 3.252 0 01-3.243-3.243v-75.833a3.252 3.252 0 013.243-3.243h2.212a3.252 3.252 0 013.243 3.243v75.833c.01 1.784-1.459 3.243-3.243 3.243z" fill="#103565"/><path d="M100.235 206.538c24.307 0 44.013-7.248 44.013-16.189 0-8.941-19.706-16.189-44.013-16.189s-44.012 7.248-44.012 16.189c0 8.941 19.705 16.189 44.012 16.189zm-10.798 31.169a4.396 4.396 0 100-8.791 4.396 4.396 0 000 8.791zm23.883-.892a4.396 4.396 0 10-.001-8.791 4.396 4.396 0 00.001 8.791z" fill="#103565"/><path d="M100.235 174.16c-24.31 0-44.012 7.249-44.012 16.189 0 3.643 3.262 6.998 8.772 9.702h70.47c5.511-2.704 8.773-6.059 8.773-9.702.01-8.94-19.692-16.189-44.003-16.189z" fill="#002544"/><path d="M137.009 197.875H60.712a6.702 6.702 0 01-6.7-6.7v-76.511c0-13.791 11.29-25.082 25.082-25.082h47.014c13.791 0 25.082 11.291 25.082 25.082v69.03c.01 7.797-6.375 14.181-14.181 14.181z" fill="#103565"/><path d="M76.9 91.328l16.626 33.641h5.79l15.631-32.35L76.9 91.33z" fill="#fff"/><path d="M136.145 197.876h.418c4.981 0 9.46-1.98 12.462-5.074v-68.984h-12.88v74.058z" fill="#002544"/><path d="M139.908 201.824c0 3.085 2.528 5.613 5.613 5.613 3.086 0 5.613-2.528 5.613-5.613v-77.803h-11.226v77.803z" fill="#ECD5B9"/><path d="M142.928 201.824v-77.803h-3.215v77.803c0 3.085 2.528 5.613 5.613 5.613.567 0 1.097-.112 1.608-.27-2.305-.697-4.006-2.825-4.006-5.343z" fill="#F2BC9C"/><path d="M115.952 267.314h-10.139a1.57 1.57 0 01-1.561-1.561c0-.855.706-1.562 1.561-1.562h10.139c.855 0 1.561.707 1.561 1.562 0 .864-.706 1.561-1.561 1.561zm-19.302 0H86.51a1.57 1.57 0 01-1.56-1.561 1.57 1.57 0 011.56-1.562h10.14c.854 0 1.56.707 1.56 1.562 0 .864-.706 1.561-1.56 1.561z" fill="#243B93"/><path d="M111.768 266.125c-2.844 0-5.511.455-7.806 1.255-3.894 1.356-2.955 7.1 1.171 7.1h13.27c4.127 0 5.065-5.744 1.171-7.1-2.286-.8-4.953-1.255-7.806-1.255z" fill="#57222B"/><path d="M118.44 272.555h-13.271c-1.886 0-3.104-1.208-3.494-2.649-.595 2.11.734 4.693 3.494 4.693h13.271c2.76 0 4.089-2.583 3.494-4.693-.39 1.441-1.608 2.649-3.494 2.649z" fill="#3F242C"/><path d="M88.87 266.125c-2.844 0-5.511.455-7.807 1.255-3.893 1.356-2.955 7.1 1.171 7.1h13.271c4.126 0 5.065-5.744 1.171-7.1-2.295-.8-4.963-1.255-7.806-1.255z" fill="#57222B"/><path d="M95.506 272.555h-13.27c-1.887 0-3.104-1.208-3.495-2.649-.594 2.11.734 4.693 3.495 4.693h13.27c2.76 0 4.09-2.583 3.495-4.693-.4 1.441-1.608 2.649-3.495 2.649z" fill="#3F242C"/><path d="M99.455 124.97l7.648 3.643 11.905-31.216-5.223-2.49-14.33 30.063zm-6.162.002l-7.248 3.448-15.567-37.888 5.214-2.491 17.601 36.931zm29.051 26.093h-10.696a1.864 1.864 0 01-1.859-1.858v-13.671c0-1.022.836-1.858 1.859-1.858h10.696c1.022 0 1.859.836 1.859 1.858v13.671a1.864 1.864 0 01-1.859 1.858z" fill="#001B3D"/><path d="M151.189 122.201h-11.486v68.147h11.486v-68.147z" fill="#103565"/><path d="M151.189 187.057h-11.486v6.579h11.486v-6.579z" fill="#fff"/><path d="M120.728.479H67.543v46.26h65.266V12.57c0-6.673-5.409-12.09-12.081-12.09z" fill="#421C14"/><path d="M100.413 103.754h-.604c-17.75 0-32.266-14.525-32.266-32.266V46.74c0-17.75 14.525-32.265 32.266-32.265h.604c17.75 0 32.266 14.525 32.266 32.265v24.748c.009 17.75-14.516 32.266-32.266 32.266z" fill="#ECD5B9"/><path d="M100.413 94.703h-.604c-17.75 0-32.266-14.525-32.266-32.266v9.052c0 17.75 14.525 32.266 32.266 32.266h.604c17.75 0 32.266-14.525 32.266-32.266v-9.052c.009 17.741-14.516 32.266-32.266 32.266z" fill="#E5C9BE"/><path d="M110.078 50.058h-.056a3.172 3.172 0 01-3.168-3.169v-4.005a3.172 3.172 0 013.168-3.17h.056a3.173 3.173 0 013.169 3.17v4.005a3.173 3.173 0 01-3.169 3.17z" fill="#000"/><path opacity=".38" d="M109.417 45.697h-.027a1.369 1.369 0 01-1.367-1.366v-1.729a1.37 1.37 0 011.367-1.366h.027a1.37 1.37 0 011.367 1.366v1.729c0 .753-.614 1.366-1.367 1.366z" fill="#fff"/><path opacity=".15" d="M103.322 37.726c0-1.022.837-1.859 1.859-1.859h6.626c1.022 0 1.859.837 1.859 1.859a1.865 1.865 0 01-1.859 1.858h-6.626a1.865 1.865 0 01-1.859-1.858z" fill="#000"/><path d="M103.322 35.644c0-1.023.837-1.859 1.859-1.859h6.626c1.022 0 1.859.837 1.859 1.859a1.865 1.865 0 01-1.859 1.858h-6.626a1.865 1.865 0 01-1.859-1.858z" fill="#421C14"/><path d="M83.592 50.058h-.056a3.173 3.173 0 01-3.169-3.169v-4.005a3.173 3.173 0 013.17-3.17h.055a3.173 3.173 0 013.169 3.17v4.005a3.179 3.179 0 01-3.17 3.17z" fill="#000"/><path opacity=".38" d="M82.699 45.697h-.028a1.368 1.368 0 01-1.366-1.366v-1.729c0-.752.613-1.366 1.366-1.366h.028a1.37 1.37 0 011.366 1.366v1.729c0 .753-.614 1.366-1.366 1.366z" fill="#fff"/><path d="M100.408 94.55V79.736h-6.003V94.55h6.003z" fill="#421C14"/><path d="M86.723 69.574c-1.116 0-1.99 1.032-1.766 2.128 1.245 5.967 6.496 10.455 12.834 10.455 6.338 0 11.588-4.488 12.824-10.455.233-1.096-.641-2.128-1.765-2.128H86.723z" fill="#A8132A"/><path d="M106.982 69.574H88.721c-.93 0-1.645.855-1.459 1.757 0 .009 0 .018.01.028a1.798 1.798 0 001.746 1.43h17.667c.845 0 1.57-.603 1.747-1.43 0-.01 0-.02.009-.028.186-.902-.53-1.757-1.459-1.757z" fill="#fff"/><path d="M112.048 69.685h-28.53c-2.713 0-4.944-2.221-4.944-4.944 0-2.714 2.221-4.944 4.944-4.944h28.53c2.714 0 4.944 2.22 4.944 4.944a4.954 4.954 0 01-4.944 4.944z" fill="#421C14"/><path d="M107.104 93.27V64.74c0-2.713 2.221-4.943 4.943-4.943 2.714 0 4.944 2.22 4.944 4.944v28.53c0 2.713-2.221 4.944-4.944 4.944-2.713 0-4.943-2.221-4.943-4.944zm-28.522 0V64.74c0-2.713 2.221-4.943 4.944-4.943 2.714 0 4.944 2.22 4.944 4.944v28.53c0 2.713-2.221 4.944-4.944 4.944a4.954 4.954 0 01-4.944-4.944z" fill="#421C14"/><path d="M96.266 62.436a4.228 4.228 0 01-4.22-4.22v-8.688a4.228 4.228 0 014.22-4.22 4.228 4.228 0 014.219 4.22v8.689a4.234 4.234 0 01-4.219 4.219z" fill="#F0C1AF"/><path d="M99.028 59.353a4.216 4.216 0 01-5.957-.456 4.222 4.222 0 01-.873-1.71 4.22 4.22 0 00.873 3.848 4.217 4.217 0 005.957.455c1.264-1.078 1.71-2.741 1.329-4.247a4.237 4.237 0 01-1.329 2.11z" fill="#F4A8BB"/><path d="M125.207 26.08h.632V8.795H74.968v16.95c-4.656 5.595-7.509 12.742-7.509 20.548v.27c1.06 1.84 3.262 2.936 5.64 2.192 2.008-.622 3.29-2.61 3.29-4.702V31.322a5.231 5.231 0 015.233-5.232h36.996a5.231 5.231 0 015.232 5.232v13.177c0 2.1 1.282 4.08 3.29 4.703 2.379.743 4.591-.363 5.641-2.194v-.27c.028-7.852-2.853-15.045-7.574-20.658z" fill="#421C14"/><path opacity=".15" d="M75.19 37.726c0-1.022.836-1.859 1.858-1.859h6.626c1.022 0 1.859.837 1.859 1.859a1.864 1.864 0 01-1.859 1.858h-6.626a1.864 1.864 0 01-1.859-1.858z" fill="#000"/><path d="M75.19 35.644c0-1.023.836-1.859 1.858-1.859h6.626c1.022 0 1.859.837 1.859 1.859a1.864 1.864 0 01-1.859 1.858h-6.626a1.864 1.864 0 01-1.859-1.858z" fill="#421C14"/><path d="M93.702 168.861a2.714 2.714 0 100-5.427 2.714 2.714 0 000 5.427zm0-27.862a2.713 2.713 0 10.001-5.426 2.713 2.713 0 00-.001 5.426zm0 41.791a2.713 2.713 0 10.001-5.426 2.713 2.713 0 00-.001 5.426zm0-27.861a2.714 2.714 0 100-5.427 2.714 2.714 0 000 5.427z" fill="#001B3D"/><path d="M98.554 109.671H95.06a2.393 2.393 0 01-2.388-2.388v-3.494a2.394 2.394 0 012.388-2.389h3.494a2.394 2.394 0 012.389 2.389v3.494a2.393 2.393 0 01-2.389 2.388z" fill="#85132A"/><path d="M107.103 104.468H88.461c-5.455 0-9.879-5.734-9.879-11.199h38.409c0 5.465-4.424 11.199-9.888 11.199z" fill="#421C14"/><path d="M94.864 107.061l-3.876 13.075 2.305 4.832h6.161l2.026-4.247-3.29-13.66h-3.326z" fill="#85132A"/><path d="M99.633 124.971h-6.412v72.895h6.412v-72.895z" fill="#001B3D"/><path opacity=".43" d="M121.025 11.184H99.233a3.312 3.312 0 01-3.3-3.299c0-1.812 1.487-3.3 3.3-3.3h21.792a3.312 3.312 0 013.299 3.3c0 1.812-1.487 3.3-3.299 3.3zm-32.629 0h-5.632a3.312 3.312 0 01-3.3-3.299c0-1.812 1.488-3.3 3.3-3.3h5.632a3.312 3.312 0 013.299 3.3c0 1.812-1.478 3.3-3.3 3.3z" fill="#fff"/></svg>