<svg width="98" height="277" viewBox="0 0 98 277" fill="none" xmlns="http://www.w3.org/2000/svg"><path d="M20.127 45.43h25.258V15.014H26.28a6.163 6.163 0 00-6.162 6.161V45.43h.01zm65.079 0H59.947V15.014h19.107a6.163 6.163 0 016.161 6.161V45.43h-.009z" fill="#FF9415"/><path d="M40.105 276.245h2.211a3.252 3.252 0 003.244-3.244v-75.832a3.252 3.252 0 00-3.244-3.243h-2.211a3.252 3.252 0 00-3.244 3.243v75.832a3.252 3.252 0 003.244 3.244zm19.117 0h2.212a3.252 3.252 0 003.243-3.244v-75.832a3.252 3.252 0 00-3.243-3.243h-2.212a3.252 3.252 0 00-3.244 3.243v75.832a3.252 3.252 0 003.244 3.244z" fill="#1991D1"/><path d="M51.704 208.479c24.307 0 44.012-7.248 44.012-16.189 0-8.94-19.705-16.188-44.012-16.188-24.308 0-44.013 7.248-44.013 16.188 0 8.941 19.705 16.189 44.013 16.189zm10.799 31.16a4.396 4.396 0 100-8.791 4.396 4.396 0 000 8.791zm-23.885-.893a4.396 4.396 0 100-8.791 4.396 4.396 0 000 8.791z" fill="#1991D1"/><path opacity=".43" d="M51.704 176.092c24.311 0 44.013 7.248 44.013 16.188 0 3.643-3.262 6.998-8.773 9.703h-70.47c-5.51-2.705-8.773-6.06-8.773-9.703-.01-8.94 19.692-16.188 44.003-16.188z" fill="#006DA2"/><path d="M14.931 199.811h76.297c3.699 0 6.7-3.002 6.7-6.701V116.6c0-13.791-11.29-25.082-25.082-25.082H25.832C12.042 91.518.75 102.809.75 116.6v69.029c0 7.797 6.375 14.182 14.181 14.182z" fill="#EDB433"/><path d="M16.055 199.606h-.418c-5.084 0-9.646-1.97-12.713-5.065v-68.797h13.14v73.862h-.009z" fill="#E29733"/><path d="M12.03 203.759c0 3.086-2.527 5.613-5.612 5.613-3.086 0-5.613-2.527-5.613-5.613v-77.802H12.03v77.802z" fill="#ECD5B9"/><path d="M9.011 203.759v-77.802h3.216v77.802c0 3.086-2.528 5.613-5.613 5.613-.567 0-1.097-.111-1.608-.269 2.305-.697 4.005-2.825 4.005-5.344z" fill="#F2BC9C"/><path opacity=".38" d="M36.858 269.662h8.699v-25.528h-8.699v25.528z" fill="#161612"/><path d="M40.682 268.059c2.844 0 5.511.455 7.806 1.254 3.894 1.357 2.956 7.1-1.17 7.1H34.047c-4.126 0-5.065-5.743-1.171-7.1 2.295-.79 4.953-1.254 7.806-1.254z" fill="#161622"/><path d="M34.046 274.49h13.27c1.887 0 3.105-1.208 3.495-2.648.595 2.109-.734 4.693-3.494 4.693h-13.27c-2.76 0-4.09-2.584-3.495-4.693.39 1.44 1.608 2.648 3.494 2.648z" fill="#1B242C"/><path d="M35.745 270.414h10.78v-23.781h-10.78v23.781z" fill="#161622"/><path opacity=".45" d="M42.977 251.443L39 254.25m-.316-2.807l3.986 2.807m.307-.002L39 257.064m-.316-2.816l3.986 2.816m.31.055l-3.978 2.807m-.318-2.807l3.986 2.807m.307.002L39 262.744m-.315-2.816l3.987 2.816m.305-.002L39 265.558m-.316-2.816l3.986 2.816" stroke="#fff" stroke-width="1.131" stroke-miterlimit="10" stroke-linecap="round" stroke-linejoin="round"/><path opacity=".38" d="M56.005 269.662h8.698v-25.528h-8.698v25.528z" fill="#161612"/><path d="M59.817 268.059c2.844 0 5.51.455 7.806 1.254 3.894 1.357 2.956 7.1-1.17 7.1H53.181c-4.127 0-5.065-5.743-1.171-7.1 2.295-.79 4.962-1.254 7.806-1.254z" fill="#161622"/><path d="M53.19 274.49h13.271c1.887 0 3.104-1.208 3.495-2.648.594 2.109-.735 4.693-3.495 4.693h-13.27c-2.76 0-4.09-2.584-3.495-4.693.39 1.44 1.599 2.648 3.495 2.648z" fill="#1B242C"/><path d="M54.892 270.414h10.78v-23.781h-10.78v23.781z" fill="#161622"/><path opacity=".45" d="M62.121 251.443l-3.986 2.807m-.307-2.807l3.987 2.807m.306-.002l-3.986 2.816m-.307-2.816l3.987 2.816m.306.055l-3.986 2.807m-.307-2.807l3.987 2.807m.306.002l-3.986 2.816m-.307-2.816l3.987 2.816m.306-.002l-3.986 2.816m-.307-2.816l3.987 2.816" stroke="#fff" stroke-width="1.131" stroke-miterlimit="10" stroke-linecap="round" stroke-linejoin="round"/><path d="M67.838 96.906v38.781" stroke="#E29733" stroke-width="2.677" stroke-miterlimit="10"/><path d="M67.745 139.366a3.048 3.048 0 100-6.097 3.048 3.048 0 000 6.097z" fill="#E29733"/><path d="M39.522 96.906v38.781" stroke="#E29733" stroke-width="2.677" stroke-miterlimit="10"/><path d="M39.437 139.366a3.048 3.048 0 100-6.097 3.048 3.048 0 000 6.097z" fill="#E29733"/><path d="M85.588 53.136a4.35 4.35 0 100-8.698 4.35 4.35 0 000 8.698zm-66.383 0a4.35 4.35 0 100-8.698 4.35 4.35 0 000 8.698z" fill="#F1BBBB"/><path d="M52.336 107.648h.604c17.75 0 32.266-14.525 32.266-32.266V47.28c0-17.75-14.525-32.265-32.266-32.265h-.604c-17.75 0-32.266 14.525-32.266 32.266v28.093c0 17.75 14.526 32.275 32.266 32.275z" fill="#ECD5B9"/><path d="M43.796 50.597h.056a3.173 3.173 0 003.169-3.169v-4.005a3.173 3.173 0 00-3.17-3.17h-.055a3.173 3.173 0 00-3.169 3.17v4.005a3.179 3.179 0 003.169 3.17z" fill="#000"/><path opacity=".38" d="M44.466 46.24h.028c.752 0 1.366-.613 1.366-1.366v-1.729a1.37 1.37 0 00-1.366-1.366h-.028c-.753 0-1.366.614-1.366 1.366v1.729a1.356 1.356 0 001.366 1.366z" fill="#fff"/><path d="M58.861 63.043a4.228 4.228 0 100-8.457 4.228 4.228 0 000 8.457z" fill="#F0C1AF"/><path d="M55.95 59.892a4.216 4.216 0 005.958-.456 4.224 4.224 0 00.873-1.71 4.22 4.22 0 01-.873 3.848 4.217 4.217 0 01-5.957.455c-1.264-1.078-1.71-2.741-1.329-4.247a4.18 4.18 0 001.329 2.11z" fill="#F4A8BB"/><path d="M28.881 45.189a4.807 4.807 0 01-4.795 4.795c-1.775 0-3.317-.985-4.145-2.434v-.27c0-8.587 3.42-16.393 8.931-22.192v20.101h.01zm47.469-.435a4.807 4.807 0 004.795 4.795c1.775 0 3.318-.985 4.145-2.435v-.27c0-8.587-3.42-16.393-8.931-22.192v20.102h-.01z" fill="#FF9415"/><path d="M42.496 34.317h34.608c8.772 0 15.947-7.175 15.947-15.947V.592H42.496c-8.773 0-15.947 7.174-15.947 15.947v1.83c0 8.773 7.174 15.948 15.947 15.948z" fill="#FFB815"/><path d="M41.632 27.95h36.336c8.299 0 15.083-7.593 15.083-16.868v6.375c0 9.275-6.784 16.867-15.083 16.867H41.632c-8.3 0-15.083-7.592-15.083-16.867 0-1.087.102-2.156.279-3.187 1.338 7.76 7.48 13.68 14.804 13.68z" fill="#FF9415"/><path d="M70.29 50.597h.056a3.173 3.173 0 003.169-3.169v-4.005a3.173 3.173 0 00-3.17-3.17h-.055a3.173 3.173 0 00-3.169 3.17v4.005a3.173 3.173 0 003.17 3.17z" fill="#000"/><path opacity=".38" d="M71.183 46.24h.027c.753 0 1.367-.613 1.367-1.366v-1.729a1.37 1.37 0 00-1.367-1.366h-.027a1.37 1.37 0 00-1.367 1.366v1.729c0 .753.614 1.366 1.367 1.366z" fill="#fff"/><path opacity=".5" d="M37.774 65.792a4.33 4.33 0 100-8.661 4.33 4.33 0 000 8.661zm38.576 0a4.33 4.33 0 100-8.661 4.33 4.33 0 000 8.661z" fill="#F0B4AF"/><path opacity=".67" d="M52.336 98.59h.604c17.75 0 32.266-14.525 32.266-32.266v9.052c0 17.75-14.525 32.266-32.266 32.266h-.604c-17.75 0-32.266-14.526-32.266-32.266v-9.052c0 17.75 14.526 32.266 32.266 32.266z" fill="#F0C1AF"/><path d="M54.288 89.677h2.286a2.453 2.453 0 002.444-2.444v-4.386a2.453 2.453 0 00-2.444-2.445h-2.286a2.453 2.453 0 00-2.444 2.445v4.386a2.453 2.453 0 002.444 2.444z" fill="#FFB815"/><path d="M66.489 70.123c1.115 0 1.989 1.032 1.766 2.128-1.246 5.966-6.496 10.455-12.834 10.455-6.338 0-11.589-4.489-12.825-10.455-.232-1.096.642-2.128 1.766-2.128h22.127z" fill="#A8132A"/><path d="M46.23 70.123h18.262c.93 0 1.645.855 1.459 1.756 0 .01 0 .019-.01.028a1.798 1.798 0 01-1.747 1.431H46.528c-.846 0-1.57-.604-1.747-1.43 0-.01 0-.02-.01-.029-.185-.91.53-1.756 1.46-1.756z" fill="#fff"/><path opacity=".15" d="M50.923 37.449a1.864 1.864 0 00-1.858-1.86h-6.626a1.864 1.864 0 00-1.859 1.86c0 1.022.837 1.858 1.859 1.858h6.626a1.864 1.864 0 001.858-1.858z" fill="#000"/><path d="M50.923 35.359a1.864 1.864 0 00-1.858-1.859h-6.626a1.864 1.864 0 00-1.859 1.859c0 1.022.837 1.858 1.859 1.858h6.626a1.852 1.852 0 001.858-1.858z" fill="#FFB815"/><path opacity=".15" d="M77.195 37.449a1.864 1.864 0 00-1.859-1.86H68.71a1.864 1.864 0 00-1.858 1.86c0 1.022.836 1.858 1.858 1.858h6.626a1.864 1.864 0 001.859-1.858z" fill="#000"/><path d="M77.195 35.359a1.864 1.864 0 00-1.859-1.859H68.71a1.864 1.864 0 00-1.858 1.859c0 1.022.836 1.858 1.858 1.858h6.626a1.852 1.852 0 001.859-1.858z" fill="#FFB815"/><path d="M39.465 156.009a1.485 1.485 0 011.496-1.505h23.363c.837 0 1.506.669 1.496 1.505-.065 4.024.651 15.027 9.851 19.535.52.251.864.762.864 1.338v10.659c0 .827-.669 1.496-1.496 1.496H30.246a1.495 1.495 0 01-1.496-1.496v-10.659c0-.576.353-1.087.864-1.338 9.21-4.498 9.916-15.511 9.851-19.535z" fill="#E29733"/><path opacity=".61" d="M29.614 175.544c9.2-4.508 9.916-15.511 9.851-19.535a1.485 1.485 0 011.496-1.505h12.546v34.533H30.246a1.495 1.495 0 01-1.496-1.496v-10.659c0-.576.353-1.087.864-1.338z" fill="#C76C33"/><path d="M.802 193.92h11.43v-68.751H.802v68.751z" fill="#EDB433"/></svg>