<svg width="206" height="287" viewBox="0 0 206 287" fill="none" xmlns="http://www.w3.org/2000/svg"><path d="M62.084 24.375S72.306-2.556 102.11 1.077c34.97 4.257 34.524 38.772 34.524 38.772l-36.625-29.283L78.617 21.8l-16.533 2.574z" fill="#6B4BB8"/><path d="M89.172 223.297l-27.907-3.401c-17.193-2.091-29.543-17.871-27.452-35.063L50.29 49.478c2.964-24.376 25.342-41.885 49.718-38.92l1.794.223c24.376 2.964 41.884 25.342 38.919 49.718l-16.486 135.346c-2.091 17.192-17.87 29.543-35.063 27.452z" fill="#FA7A9A"/><path opacity=".41" d="M134.779 42.535L58.938 33.3l-12.25 100.584 75.841 9.236 12.25-100.584z" fill="#421C14"/><path d="M198.014 98.432a1.091 1.091 0 001.255-.883l.882-5.083a1.09 1.09 0 00-.882-1.255 1.091 1.091 0 00-1.255.883l-.883 5.084a1.087 1.087 0 00.883 1.254z" fill="#FFEEDE"/><path d="M198.302 98.246a1.09 1.09 0 001.524.177l4.043-3.206a1.09 1.09 0 00.176-1.524 1.09 1.09 0 00-1.524-.177l-4.042 3.206a1.082 1.082 0 00-.177 1.524z" fill="#FFEEDE"/><path d="M198.858 99.76c.14.529.688.855 1.218.715l4.609-1.19c.53-.139.855-.687.716-1.217a1.004 1.004 0 00-1.218-.715l-4.609 1.19a.995.995 0 00-.716 1.216zm-1.876-.955c.53-.14.855-.688.716-1.217l-1.19-4.61a1.003 1.003 0 00-1.217-.715c-.53.14-.855.688-.716 1.217l1.19 4.61c.13.53.678.855 1.217.715z" fill="#FFEEDE"/><path d="M197.986 99.725a.994.994 0 00-.39-1.356l-4.164-2.305a.994.994 0 00-1.357.39.994.994 0 00.391 1.357l4.163 2.305c.474.26 1.087.093 1.357-.39z" fill="#FFEEDE"/><path d="M170.601 130.811c13.736-5.353 25.148-15.78 31.699-29.617a4.674 4.674 0 10-8.447-4.006c-7.965 16.812-24.46 27.638-43.037 28.261a49.19 49.19 0 01-16.179-2.147 4.673 4.673 0 00-5.846 3.095 4.672 4.672 0 003.095 5.845 58.688 58.688 0 0019.246 2.556 59.15 59.15 0 0019.469-3.987z" fill="#FFEEDE"/><path d="M130.424 128.466a58.774 58.774 0 0019.246 2.556 59.067 59.067 0 0019.255-3.894c13.829-5.325 25.334-15.789 31.922-29.71.223-.474.344-.967.4-1.469 1.533 1.338 2.072 3.569 1.152 5.502-6.589 13.912-18.093 24.376-31.922 29.71a59.067 59.067 0 01-19.255 3.894 58.481 58.481 0 01-19.246-2.556 4.664 4.664 0 01-3.262-4.999c.483.427 1.05.762 1.71.966z" fill="#F2D1CC"/><path d="M111.085 118.795c1.394-3.002 4.861-4.201 7.751-2.686a60.127 60.127 0 0019.488 6.319c14.358 2.064 28.446-1.18 40.137-8.744l2.695 12.536c-6.096 3.448-12.657 5.976-19.506 7.453-7.946 1.71-16.273 2.026-24.674.818-8.094-1.162-15.891-3.699-23.177-7.518-2.881-1.524-4.098-5.186-2.714-8.178z" fill="#6B4BB8"/><path d="M183.173 129.044a3.123 3.123 0 001.775-4.034l-5.018-12.861a3.122 3.122 0 00-4.033-1.775 3.121 3.121 0 00-1.775 4.033l5.018 12.862a3.124 3.124 0 004.033 1.775z" fill="#6B4BB8"/><path d="M7.076 57.968a.992.992 0 01-.92-1.07l.353-4.748a.992.992 0 011.069-.92c.548.037.966.52.92 1.069l-.353 4.749a.992.992 0 01-1.07.92z" fill="#FFEEDE"/><path d="M6.861 57.737a1.004 1.004 0 01-1.403-.186l-2.9-3.782a1.004 1.004 0 01.186-1.404 1.004 1.004 0 011.404.186l2.9 3.782c.334.437.25 1.07-.187 1.404zm-.463 1.683c-.26.483-.873.66-1.357.4L.86 57.541a1.005 1.005 0 01-.4-1.356c.261-.484.874-.66 1.358-.4L6 58.062c.483.26.66.873.4 1.357zm2.063-.473a1.005 1.005 0 01-.4-1.357l2.277-4.182c.26-.483.874-.66 1.357-.4s.66.874.4 1.357l-2.277 4.182a.999.999 0 01-1.357.4z" fill="#FFEEDE"/><path d="M7.263 59.598a1.013 1.013 0 01.707-1.227l4.6-1.227a1.01 1.01 0 011.226.706c.14.53-.176 1.078-.706 1.227l-4.6 1.227a.996.996 0 01-1.227-.706z" fill="#FFEEDE"/><path d="M19.39 99.008C9.028 88.535 2.839 74.363 2.485 59.057a4.686 4.686 0 014.563-4.786 4.68 4.68 0 014.786 4.563c.437 18.596 11.096 35.203 27.815 43.325a49.52 49.52 0 0015.659 4.628c2.565.306 4.386 2.639 4.08 5.204-.307 2.565-2.64 4.386-5.205 4.08a58.603 58.603 0 01-18.614-5.493 58.825 58.825 0 01-16.18-11.57z" fill="#FFEEDE"/><path d="M57.045 113.217a58.752 58.752 0 01-18.623-5.492 58.96 58.96 0 01-16.003-11.394C11.955 85.83 5.709 71.593 5.347 56.203c-.01-.53.084-1.022.232-1.496-1.942.604-3.345 2.416-3.299 4.554.363 15.39 6.608 29.626 17.081 40.128a58.966 58.966 0 0016.003 11.393 58.726 58.726 0 0018.624 5.492 4.667 4.667 0 005.018-3.243 4.637 4.637 0 01-1.96.186z" fill="#F2D1CC"/><path d="M78.642 112.252c-.055-3.308-2.732-5.818-5.994-5.604a60.305 60.305 0 01-20.38-2.156c-13.949-3.959-25.5-12.648-33.102-24.32l-7.564 10.353c4.163 5.631 9.125 10.603 14.785 14.738 6.561 4.796 14.042 8.476 22.201 10.79a71.717 71.717 0 0024.228 2.565c3.27-.214 5.873-3.067 5.826-6.366z" fill="#6B4BB8"/><path d="M8.628 92.29a3.113 3.113 0 01.028-4.405l9.804-9.72a3.113 3.113 0 014.405.028 3.113 3.113 0 01-.028 4.405l-9.814 9.711a3.11 3.11 0 01-4.395-.019z" fill="#6B4BB8"/><path d="M58.589 70.014a4.972 4.972 0 100-9.944 4.972 4.972 0 000 9.944z" fill="#FFE0D0"/><path d="M58.783 71.613a2.193 2.193 0 100-4.386 2.193 2.193 0 000 4.386z" fill="#A382ED"/><path d="M109.664 232.544c11.163 0 20.212-9.049 20.212-20.212s-9.049-20.213-20.212-20.213-20.213 9.05-20.213 20.213 9.05 20.212 20.213 20.212z" fill="#FA7A9A"/><path d="M85.65 228.333c11.163 0 20.213-9.049 20.213-20.212s-9.05-20.213-20.213-20.213-20.213 9.05-20.213 20.213 9.05 20.212 20.213 20.212z" fill="#FA7A9A"/><path d="M61.636 224.115c11.164 0 20.213-9.05 20.213-20.213s-9.05-20.213-20.213-20.213-20.212 9.05-20.212 20.213 9.05 20.213 20.212 20.213z" fill="#FA7A9A"/><path d="M37.615 219.902c11.163 0 20.213-9.05 20.213-20.213s-9.05-20.212-20.213-20.212-20.213 9.049-20.213 20.212 9.05 20.213 20.213 20.213z" fill="#FA7A9A"/><path d="M107.706 190.46c1.243-6.92-13.003-15.271-31.82-18.651-18.816-3.38-35.077-.51-36.32 6.411-1.244 6.92 13.002 15.27 31.819 18.65 18.816 3.38 35.077.511 36.321-6.41z" fill="#1D1B55"/><path opacity=".73" d="M75.892 171.802c18.819 3.383 33.065 11.737 31.82 18.652-.502 2.815-3.504 4.962-8.141 6.291l-54.56-9.804c-3.894-2.863-5.948-5.911-5.446-8.736 1.245-6.914 17.508-9.785 36.327-6.403z" fill="#6B4BB8"/><path d="M38.477 181.931l66.354 11.923a3.417 3.417 0 003.968-2.76l12.034-67.041c1.301-7.258-3.568-14.265-10.826-15.566l-46.68-8.382c-7.258-1.301-14.265 3.569-15.566 10.826l-12.035 67.041a3.413 3.413 0 002.751 3.959z" fill="#8F6FD6"/><path d="M126.521 78.293a4.972 4.972 0 100-9.944 4.972 4.972 0 000 9.944z" fill="#FFE0D0"/><path d="M88.513 109.686l-.595-.074C70.29 107.54 57.567 91.416 59.64 73.796l1.887-16.848c2.072-17.63 18.196-30.352 35.816-28.28l.594.075c17.629 2.072 30.352 18.196 28.279 35.816l-1.886 16.848c-2.072 17.63-18.196 30.352-35.816 28.279z" fill="#FFF3DE"/><path d="M101.475 65.211l-.074-.01a3.775 3.775 0 01-3.299-4.181l.558-4.73a3.776 3.776 0 014.182-3.3l.074.01a3.775 3.775 0 013.299 4.182l-.558 4.73a3.763 3.763 0 01-4.182 3.3z" fill="#000"/><path opacity=".38" d="M101.3 59.977h-.028a1.62 1.62 0 01-1.422-1.803l.242-2.044a1.62 1.62 0 011.803-1.422h.028c.892.102 1.533.92 1.422 1.803l-.242 2.044a1.629 1.629 0 01-1.803 1.422z" fill="#fff"/><path d="M77.1 62.246l-.074-.009a3.775 3.775 0 01-3.299-4.182l.558-4.73a3.776 3.776 0 014.182-3.3l.074.01a3.775 3.775 0 013.299 4.182l-.558 4.73c-.232 2.054-2.118 3.541-4.181 3.3z" fill="#000"/><path opacity=".38" d="M76.933 57.012h-.028a1.62 1.62 0 01-1.422-1.803l.242-2.044a1.62 1.62 0 011.803-1.422h.028a1.62 1.62 0 011.422 1.803l-.242 2.044a1.634 1.634 0 01-1.803 1.422z" fill="#fff"/><path d="M78.142 79.435c-.892-.102-1.682.632-1.599 1.524.428 4.86 4.191 8.931 9.228 9.517 5.037.594 9.637-2.491 11.19-7.119.287-.855-.317-1.747-1.209-1.859l-17.61-2.063z" fill="#A8132A"/><path opacity=".15" d="M97.722 53.5a1.547 1.547 0 011.7-1.348l5.428.641a1.548 1.548 0 011.348 1.7 1.548 1.548 0 01-1.701 1.348l-5.427-.64a1.524 1.524 0 01-1.348-1.702z" fill="#000"/><path d="M97.927 51.8a1.547 1.547 0 011.7-1.347l5.428.641a1.547 1.547 0 011.348 1.7 1.548 1.548 0 01-1.701 1.348l-5.427-.641a1.529 1.529 0 01-1.348-1.7z" fill="#FA9D9A"/><path d="M86.616 73.238a3.364 3.364 0 100-6.728 3.364 3.364 0 000 6.728z" fill="#F0C1AF"/><path d="M88.818 70.998a3.353 3.353 0 01-4.665-.91 3.36 3.36 0 01-.53-1.432 3.33 3.33 0 00.335 3.123 3.355 3.355 0 004.665.91 3.337 3.337 0 001.44-3.233 3.382 3.382 0 01-1.245 1.542z" fill="#F4A8BB"/><path d="M94.246 81.444l-14.525-1.71c-.735-.083-1.385.52-1.32 1.264v.028a1.435 1.435 0 001.255 1.301l14.06 1.654c.67.084 1.301-.334 1.524-.975 0-.01.01-.02.01-.028.222-.697-.27-1.45-1.004-1.534z" fill="#fff"/><path d="M125.211 79.697a2.193 2.193 0 100-4.386 2.193 2.193 0 000 4.386z" fill="#A382ED"/><path opacity=".38" d="M106.977 79.466a5.446 5.446 0 100-10.892 5.446 5.446 0 000 10.892zm-36.605-4.461a5.446 5.446 0 100-10.892 5.446 5.446 0 000 10.892z" fill="#F4A8BB"/><path d="M102.926 19.496c-7.602 8.318-7.016 21.216 1.301 28.818s21.216 7.017 28.818-1.3l3.587-7.175-21.3-17.852-12.406-2.49z" fill="#FA7A9A"/><path opacity=".15" d="M101.403 16.764c5.827 13.949-1.32 30.23-15.966 36.345-14.646 6.115-31.253-.232-37.08-14.181" fill="#000"/><path d="M101.876 13.752c6.031 14.432-1.366 31.271-16.524 37.61-15.157 6.337-32.33-.242-38.362-14.675" fill="#FA7A9A"/><path opacity=".27" d="M82.76 46.484c-12.008 4.052-24.544 1.533-33.475-5.539 7.36 11.403 22.527 16.096 36.095 10.427 10.222-4.266 16.886-13.317 18.317-23.186-4.006 8.252-11.329 15.054-20.938 18.298z" fill="#421C14"/><path d="M84.014 285.423l1.85.009a2.727 2.727 0 002.732-2.714l.26-83.824a2.727 2.727 0 00-2.713-2.732l-1.85-.01a2.727 2.727 0 00-2.732 2.714l-.26 83.824c0 1.497 1.217 2.733 2.713 2.733z" fill="#1D1B55"/><path d="M86.914 254.289a3.69 3.69 0 100-7.379 3.69 3.69 0 000 7.379zM85.1 280.803c1.953.009 3.783.325 5.354.883 2.667.938 2.007 4.879-.827 4.869l-9.108-.037c-2.834-.009-3.457-3.959-.78-4.879 1.57-.539 3.41-.845 5.362-.836z" fill="#1D1B55"/><path opacity=".58" d="M80.53 285.196l9.107.038c1.301.009 2.128-.818 2.407-1.803.4 1.449-.511 3.215-2.416 3.206l-9.108-.037c-1.895-.01-2.797-1.785-2.388-3.225.27.985 1.097 1.812 2.398 1.821z" fill="#000"/><path d="M81.31 281.143h7.387v-10.409H81.31v10.409zm-62.682-10.211l1.71.706a2.74 2.74 0 003.56-1.478l31.884-77.523a2.74 2.74 0 00-1.477-3.56l-1.71-.706a2.74 2.74 0 00-3.56 1.478L17.15 267.372a2.733 2.733 0 001.478 3.56z" fill="#1D1B55"/><path d="M34.455 243.461a3.69 3.69 0 100-7.38 3.69 3.69 0 000 7.38zM21.38 267.056c1.802.744 3.382 1.729 4.627 2.835 2.12 1.877.019 5.278-2.602 4.2l-8.42-3.476c-2.62-1.078-1.71-4.971 1.116-4.813 1.654.102 3.466.511 5.278 1.254z" fill="#1D1B55"/><path opacity=".58" d="M15.478 269.399l8.42 3.476c1.198.493 2.285.047 2.908-.762-.176 1.496-1.691 2.788-3.448 2.063l-8.42-3.476c-1.756-.724-1.923-2.704-.994-3.893-.111 1.013.335 2.1 1.534 2.592z" fill="#000"/><path d="M17.743 265.941l6.841 2.789 3.93-9.638-6.842-2.789-3.93 9.638z" fill="#1D1B55"/><path d="M64.128 106.927l45.36 7.955c3.419.604 6.709-1.71 7.304-5.13.604-3.42-1.71-6.71-5.13-7.305l-45.36-7.955c-3.42-.604-6.71 1.71-7.304 5.13-.595 3.42 1.71 6.71 5.13 7.305z" fill="#6B4BB8"/><path opacity=".37" d="M109.488 114.882l-45.36-7.955c-3.42-.604-5.725-3.884-5.13-7.304l57.794 10.139c-.604 3.42-3.885 5.724-7.304 5.12z" fill="#1D1B55"/><path opacity=".51" d="M72.39 130.976l6.03-34.357-8.122-1.422-6.031 34.357a4.134 4.134 0 003.346 4.777 4.124 4.124 0 004.776-3.355zm13.111-4.506l4.87-27.75-7.704-1.347-4.87 27.749a3.91 3.91 0 003.179 4.526 3.91 3.91 0 004.525-3.178z" fill="#1D1B55"/><path d="M70.698 130.679l6.031-34.357-8.122-1.422-6.031 34.357a4.134 4.134 0 003.345 4.777 4.124 4.124 0 004.777-3.355zm13.325-4.467l4.87-27.75-7.705-1.356-4.87 27.749a3.91 3.91 0 003.18 4.526 3.897 3.897 0 004.525-3.169z" fill="#6B4BB8"/></svg>