<svg width="301" height="191" viewBox="0 0 301 191" fill="none" xmlns="http://www.w3.org/2000/svg"><g opacity=".42" fill="#00A79E"><path opacity=".22" d="M146.911 190.988c52.644 0 95.32-42.754 95.32-95.494S199.555 0 146.911 0c-52.644 0-95.32 42.754-95.32 95.494s42.676 95.494 95.32 95.494z"/><path opacity=".22" d="M123.415 61.307c9.637 0 17.449-7.826 17.449-17.48 0-9.655-7.812-17.481-17.449-17.481-9.636 0-17.449 7.826-17.449 17.48 0 9.655 7.813 17.481 17.449 17.481z"/><path opacity=".1" d="M170.092 109.829c14.028 0 25.4-11.393 25.4-25.446s-11.372-25.445-25.4-25.445c-14.027 0-25.399 11.392-25.399 25.445s11.372 25.446 25.399 25.446zm19.144-63.736c4.01 0 7.26-3.256 7.26-7.273 0-4.017-3.25-7.273-7.26-7.273s-7.26 3.256-7.26 7.273c0 4.017 3.25 7.273 7.26 7.273z"/></g><path opacity=".39" d="M224.49 39.993c41.488-3.5 70.737 1.593 74.398 15.28 5.816 21.84-55.841 57.305-137.708 79.208-81.868 21.903-152.96 21.966-158.798.126-3.41-12.765 16.256-30.183 49.522-46.825" stroke="#00A79E" stroke-width="3.538" stroke-miterlimit="10" stroke-linecap="round" stroke-linejoin="round"/></svg>