<svg width="427" height="115" viewBox="0 0 427 115" fill="none" xmlns="http://www.w3.org/2000/svg"><g clip-path="url(#clip0)"><path opacity=".32" d="M51.06 94.881c8.768-5.796 8.182-22.133-1.31-36.489-9.49-14.356-24.291-21.295-33.059-15.498-8.767 5.796-8.18 22.132 1.31 36.488 9.491 14.356 24.292 21.295 33.06 15.499z" fill="#00A79E"/><path d="M22.4 50.59l26.26 48.16m-17.1-31.36l2.31-14.25m5.18 27.85l2.31-14.25m.821 20.28l-13.31-5.58m4.999-9.11l-13.31-5.59" stroke="#00A79E" stroke-width="2.111" stroke-miterlimit="10" stroke-linecap="round" stroke-linejoin="round"/><path opacity=".32" d="M421.38 62.437c10.792-25.855 4.895-52.928-13.172-60.47-18.067-7.541-41.462 7.304-52.255 33.159-10.792 25.854-4.895 52.927 13.172 60.469 18.067 7.541 41.463-7.304 52.255-33.158z" fill="#00A79E"/><path d="M399.791 15.51l-34.34 83.02m22.369-54.069l23.08-12.92M378.211 67.99l23.09-12.91m-27.59 23.13l-9.16-21.48m19.26-4.19l-9.17-21.48" stroke="#00A79E" stroke-width="3.029" stroke-miterlimit="10" stroke-linecap="round" stroke-linejoin="round"/><path d="M1.5 100.27h419.2M44.28 113.32h199.819m25.372 0h67.31M305.07 90.68v8.58M36.24 90.68v8.58M8.19 90.68v8.58m312.839-4.291v4.29m-224.359.772v-17.23m.2.22s-2.87-14.42 13.609-15.07c0 0 .92 14.76-13.61 15.07zm-18.2-3.511s13.58-5.64 17.44 10.4c0 0-14.29 3.79-17.44-10.4zm118.26 19.681v-43.24m4.569-9.37c0 5.41-4.57 9.79-4.57 9.79s-4.57-4.38-4.57-9.79c0-5.41 4.57-9.79 4.57-9.79s4.57 4.39 4.57 9.79zM190.83 57.22c4.45 3.08 5.45 9.33 5.45 9.33s-6.2 1.26-10.65-1.81c-4.45-3.08-5.45-9.33-5.45-9.33s6.21-1.26 10.65 1.81zm0 14.74c4.45 3.08 5.45 9.33 5.45 9.33s-6.2 1.26-10.65-1.81c-4.45-3.08-5.45-9.33-5.45-9.33s6.21-1.27 10.65 1.81zm11.559-14.74c-4.45 3.08-5.45 9.33-5.45 9.33s6.2 1.26 10.65-1.81c4.45-3.08 5.45-9.33 5.45-9.33s-6.21-1.26-10.65 1.81zm0 14.74c-4.45 3.08-5.45 9.33-5.45 9.33s6.2 1.26 10.65-1.81c4.45-3.08 5.45-9.33 5.45-9.33s-6.21-1.27-10.65 1.81z" stroke="#00A79E" stroke-width="3" stroke-miterlimit="10" stroke-linecap="round" stroke-linejoin="round"/></g><defs><clipPath id="clip0"><path fill="#fff" d="M0 0h426.78v114.82H0z"/></clipPath></defs></svg>