<svg width="235" height="222" viewBox="0 0 235 222" fill="none" xmlns="http://www.w3.org/2000/svg"><path d="M233.447 206.494H1.553m197.644 13.953h-96.519m-18.082 0H47.508m131.754-13.955v-5.554m12.431 5.554v-12.433M120.253 2.453v204.04m-88.28-98.333v98.333m0-75.151l11.075-11.069m-11.334 17.543L20.64 126.748m11.333 16.148l11.075-11.068m-11.075 34.104l11.075-11.069M31.973 190.5l11.075-11.068M31.9 117.615s-12.213-9.083 0-21.01c0 0 10.952 10.696 0 21.01zm-5.6 14.523s-15.06 2.224-14.873-14.834c0-.011 15.309-.197 14.874 14.834zm5.414 46.321L20.64 167.391m5.66 5.39s-15.06 2.224-14.873-14.834c0 0 15.309-.196 14.874 14.834zm131.391 33.712V188.67m.197.227s-2.971-14.916 14.087-15.588c0 0 .952 15.268-14.087 15.588zm-18.838-3.631s14.056-5.834 18.051 10.758c0 0-14.791 3.921-18.051-10.758zm-60.675 20.111v-44.729m4.73-9.693c0 5.596-4.73 10.127-4.73 10.127s-4.73-4.531-4.73-10.127c0-5.596 4.73-10.127 4.73-10.127s4.73 4.531 4.73 10.127zM72.06 161.961c4.607 3.186 5.642 9.651 5.642 9.651s-6.417 1.304-11.023-1.872c-4.607-3.186-5.642-9.651-5.642-9.651s6.418-1.314 11.024 1.872zm0 15.248c4.607 3.186 5.642 9.651 5.642 9.651s-6.417 1.304-11.023-1.872c-4.607-3.176-5.642-9.651-5.642-9.651s6.418-1.314 11.024 1.872zm11.956-15.248c-4.606 3.186-5.641 9.651-5.641 9.651s6.417 1.304 11.023-1.872c4.606-3.186 5.641-9.651 5.641-9.651s-6.417-1.314-11.023 1.872zm0 15.248c-4.606 3.186-5.641 9.651-5.641 9.651s6.417 1.304 11.023-1.872 5.641-9.651 5.641-9.651-6.417-1.314-11.023 1.872zm120.222-9.124c12.942 0 23.434-10.485 23.434-23.42 0-12.934-10.492-23.419-23.434-23.419s-23.434 10.485-23.434 23.419c0 12.935 10.492 23.42 23.434 23.42z" stroke="#00A79E" stroke-width="3" stroke-miterlimit="10" stroke-linecap="round" stroke-linejoin="round"/><path d="M204.238 161.226c9.152 0 16.571-7.415 16.571-16.561 0-9.147-7.419-16.561-16.571-16.561-9.152 0-16.571 7.414-16.571 16.561 0 9.146 7.419 16.561 16.571 16.561z" stroke="#00A79E" stroke-width="3" stroke-miterlimit="10" stroke-linecap="round" stroke-linejoin="round"/><path d="M204.238 153.076c4.648 0 8.415-3.766 8.415-8.41 0-4.645-3.767-8.41-8.415-8.41-4.647 0-8.415 3.765-8.415 8.41 0 4.644 3.768 8.41 8.415 8.41zm0 52.32v-44.169m-84.005-98.819l34.788-23.988m0 .692s-.29-15.206 16.623-12.858c-.01 0-1.76 15.196-16.623 12.858zm-5.807-10.674s-12.472-8.72-.6-20.999c-.01 0 11.241 10.376.6 21zm-9.502 22.022s15.123-1.717 14.367 15.33c0 0-15.298-.32-14.367-15.33zM96.447 29.948s14.232-5.39 17.71 11.317c0 .01-14.915 3.455-17.71-11.317zM94.49 128.89s2.06-15.071 18.404-10.148c0 0-4.078 14.751-18.403 10.148zm4.482-31.674s11.552-9.91 20.505 4.624c0 0-12.845 8.327-20.505-4.624z" stroke="#00A79E" stroke-width="3" stroke-miterlimit="10" stroke-linecap="round" stroke-linejoin="round"/></svg>