<svg width="377" height="102" viewBox="0 0 377 102" fill="none" xmlns="http://www.w3.org/2000/svg"><path d="M375 87H2m257.197 14.145h-96.519m-18.082 0H107.51m76.752-15.408v-5.555m12.431 5.555V73.303M31.986 86.071V49.988m3.817-7.818c0 4.514-3.816 8.17-3.816 8.17s-3.816-3.656-3.816-8.17c0-4.515 3.816-8.17 3.816-8.17s3.816 3.655 3.816 8.17zm-8.91 8.877c3.715 2.57 4.55 7.786 4.55 7.786s-5.177 1.051-8.892-1.51C18.835 54.752 18 49.536 18 49.536s5.177-1.06 8.893 1.51zm0 12.301c3.715 2.57 4.55 7.786 4.55 7.786s-5.177 1.051-8.892-1.51C18.835 67.06 18 61.837 18 61.837s5.177-1.06 8.893 1.51zm9.644-12.301c-3.716 2.57-4.55 7.786-4.55 7.786s5.176 1.051 8.892-1.51c3.716-2.57 4.55-7.786 4.55-7.786s-5.176-1.06-8.892 1.51zm0 12.301c-3.716 2.57-4.55 7.786-4.55 7.786s5.176 1.051 8.892-1.51c3.716-2.563 4.55-7.786 4.55-7.786s-5.176-1.06-8.892 1.51zm314.897-14.566c12.942 0 23.434-10.485 23.434-23.42 0-12.933-10.492-23.419-23.434-23.419S328 12.43 328 25.363c0 12.934 10.492 23.42 23.434 23.42z" stroke="#00A79E" stroke-width="3" stroke-miterlimit="10" stroke-linecap="round" stroke-linejoin="round"/><path d="M351.434 41.923c9.152 0 16.571-7.415 16.571-16.561S360.586 8.8 351.434 8.8c-9.152 0-16.572 7.414-16.572 16.56 0 9.147 7.42 16.562 16.572 16.562z" stroke="#00A79E" stroke-width="3" stroke-miterlimit="10" stroke-linecap="round" stroke-linejoin="round"/><path d="M351.434 33.773c4.647 0 8.415-3.765 8.415-8.41s-3.768-8.41-8.415-8.41c-4.648 0-8.415 3.765-8.415 8.41s3.767 8.41 8.415 8.41zm0 52.321v-44.17" stroke="#00A79E" stroke-width="3" stroke-miterlimit="10" stroke-linecap="round" stroke-linejoin="round"/></svg>