<svg width="323" height="86" viewBox="0 0 323 86" fill="none" xmlns="http://www.w3.org/2000/svg"><path d="M123.562 84.71V60.793m-3.378-6.956c0 4.014 3.379 7.268 3.379 7.268s3.379-3.254 3.379-7.268c0-4.015-3.379-7.269-3.379-7.269s-3.379 3.254-3.379 7.269zm7.895 7.898c-3.288 2.283-4.035 6.928-4.035 6.928s4.59.937 7.884-1.346c3.289-2.282 4.036-6.927 4.036-6.927s-4.596-.937-7.885 1.345zm0 10.942c-3.288 2.283-4.035 6.928-4.035 6.928s4.59.937 7.884-1.346c3.289-2.283 4.036-6.927 4.036-6.927s-4.596-.937-7.885 1.345zm-8.552-10.942c3.288 2.283 4.035 6.928 4.035 6.928s-4.59.937-7.884-1.346c-3.288-2.282-4.036-6.927-4.036-6.927s4.596-.937 7.885 1.345zm0 10.942c3.288 2.283 4.035 6.928 4.035 6.928s-4.59.937-7.884-1.346c-3.288-2.283-4.036-6.927-4.036-6.927s4.596-.937 7.885 1.345zM44.794 83.886V35.723m-3.096-6.36c0 3.674 3.09 6.65 3.09 6.65s3.09-2.976 3.09-6.65c0-3.674-3.09-6.65-3.09-6.65s-3.09 2.976-3.09 6.65zm7.222 7.223c-3.01 2.09-3.69 6.331-3.69 6.331s4.2.858 7.212-1.232c3.01-2.09 3.69-6.331 3.69-6.331s-4.2-.858-7.211 1.232zm0 10.88c-3.01 2.09-3.69 6.331-3.69 6.331s4.2.858 7.212-1.232c3.01-2.09 3.69-6.331 3.69-6.331s-4.2-.858-7.211 1.232zm-7.816-10.88c3.01 2.09 3.69 6.331 3.69 6.331s-4.2.858-7.211-1.232-3.69-6.331-3.69-6.331 4.2-.858 7.21 1.232zm0 10.88c3.01 2.09 3.69 6.331 3.69 6.331s-4.2.858-7.211-1.232-3.69-6.331-3.69-6.331 4.2-.858 7.21 1.232zm7.816 11.828c-3.01 2.09-3.69 6.33-3.69 6.33s4.2.858 7.212-1.231c3.01-2.09 3.69-6.332 3.69-6.332s-4.2-.857-7.211 1.233zm-7.816 0c3.01 2.09 3.69 6.33 3.69 6.33s-4.2.858-7.211-1.231c-3.011-2.09-3.69-6.332-3.69-6.332s4.2-.857 7.21 1.233z" stroke="#00A79E" stroke-width="2.035" stroke-miterlimit="10" stroke-linecap="round" stroke-linejoin="round"/><g clip-path="url(#clip0)" stroke="#00A99E" stroke-width="2" stroke-miterlimit="10" stroke-linecap="round" stroke-linejoin="round"><path d="M261.7 28.854v54.88m-.4-33.42c9.002 0 16.3-7.298 16.3-16.3s-7.298-16.3-16.3-16.3-16.3 7.298-16.3 16.3 7.298 16.3 16.3 16.3zm31.53 8.25v25.12m-.19-13.29c5.782 0 10.47-4.688 10.47-10.47 0-5.782-4.688-10.47-10.47-10.47-5.782 0-10.47 4.688-10.47 10.47 0 5.783 4.688 10.47 10.47 10.47z"/></g><path d="M88.192 84.392V69.606M74.806 84.074v-9.136m23.337 9.454v-7.393m-82.96-1.289v8.176m11.281-5.292v5.292" stroke="#00A79E" stroke-width="2.035" stroke-miterlimit="10" stroke-linecap="round" stroke-linejoin="round"/><path opacity=".56" d="M168.662 84.193a12.827 12.827 0 01-1.2-5.434c0-7.104 5.739-12.862 12.82-12.862 2.077 0 4.036.5 5.773 1.38 2.638-6.388 8.903-10.88 16.222-10.88 6.837 0 12.752 3.924 15.656 9.642a13.26 13.26 0 011.901-.142c7.081 0 12.82 5.758 12.82 12.862 0 1.942-.43 3.781-1.2 5.434h-62.792z" fill="#00A79E"/><path d="M2 84.714h319" stroke="#00A79E" stroke-width="2.035" stroke-miterlimit="10" stroke-linecap="round" stroke-linejoin="round"/><path d="M185.36 1.714v10.72m5.36-5.36H180m-94.64 5.64v10.72m5.36-5.36H80" stroke="#00A99E" stroke-width="2" stroke-miterlimit="10" stroke-linecap="round" stroke-linejoin="round"/><defs><clipPath id="clip0"><path fill="#fff" transform="translate(244 16.714)" d="M0 0h60.11v68.02H0z"/></clipPath></defs></svg>