<svg width="1244" height="108" viewBox="0 0 1244 108" fill="none" xmlns="http://www.w3.org/2000/svg"><path d="M124.562 106.133V82.216m-3.378-6.956c0 4.014 3.379 7.268 3.379 7.268s3.379-3.254 3.379-7.269c0-4.014-3.379-7.268-3.379-7.268s-3.379 3.254-3.379 7.269zm7.895 7.898c-3.288 2.283-4.035 6.928-4.035 6.928s4.59.937 7.884-1.346c3.289-2.283 4.036-6.927 4.036-6.927s-4.596-.937-7.885 1.345zm0 10.942c-3.288 2.283-4.035 6.928-4.035 6.928s4.59.937 7.884-1.346c3.289-2.283 4.036-6.928 4.036-6.928s-4.596-.937-7.885 1.346zm-8.552-10.942c3.288 2.283 4.035 6.928 4.035 6.928s-4.59.937-7.884-1.346c-3.288-2.283-4.036-6.927-4.036-6.927s4.596-.937 7.885 1.345zm0 10.942c3.288 2.283 4.035 6.928 4.035 6.928s-4.59.937-7.884-1.346c-3.288-2.283-4.036-6.928-4.036-6.928s4.596-.937 7.885 1.346zm768.393 12.033V82.216m-3.379-6.956c0 4.014 3.379 7.268 3.379 7.268s3.379-3.254 3.379-7.269c0-4.014-3.379-7.268-3.379-7.268s-3.379 3.254-3.379 7.269zm7.896 7.898c-3.289 2.283-4.036 6.928-4.036 6.928s4.591.937 7.885-1.346c3.288-2.283 4.035-6.927 4.035-6.927s-4.596-.937-7.884 1.345zm0 10.942c-3.289 2.283-4.036 6.928-4.036 6.928s4.591.937 7.885-1.346c3.288-2.283 4.035-6.928 4.035-6.928s-4.596-.937-7.884 1.346zm-8.553-10.942c3.289 2.283 4.036 6.928 4.036 6.928s-4.59.937-7.885-1.346c-3.288-2.283-4.035-6.927-4.035-6.927s4.596-.937 7.884 1.345zm0 10.942c3.289 2.283 4.036 6.928 4.036 6.928s-4.59.937-7.885-1.346c-3.288-2.283-4.035-6.928-4.035-6.928s4.596-.937 7.884 1.346zm-839.09 11.209V57.146m-3.096-6.36c0 3.674 3.09 6.65 3.09 6.65s3.09-2.976 3.09-6.65c0-3.674-3.09-6.65-3.09-6.65s-3.09 2.976-3.09 6.65zm7.222 7.223c-3.01 2.09-3.69 6.331-3.69 6.331s4.2.858 7.212-1.232c3.01-2.09 3.69-6.331 3.69-6.331s-4.2-.858-7.211 1.232zm0 10.88c-3.01 2.09-3.69 6.331-3.69 6.331s4.2.858 7.212-1.232c3.01-2.09 3.69-6.331 3.69-6.331s-4.2-.858-7.211 1.232zm-7.816-10.88c3.01 2.09 3.69 6.331 3.69 6.331s-4.2.858-7.211-1.232-3.69-6.331-3.69-6.331 4.2-.858 7.21 1.232zm0 10.88c3.01 2.09 3.69 6.331 3.69 6.331s-4.2.858-7.211-1.232-3.69-6.331-3.69-6.331 4.2-.858 7.21 1.232zm7.816 11.827c-3.01 2.09-3.69 6.332-3.69 6.332s4.2.857 7.212-1.232c3.01-2.09 3.69-6.332 3.69-6.332s-4.2-.857-7.211 1.233zm-7.816 0c3.01 2.09 3.69 6.332 3.69 6.332s-4.2.857-7.211-1.232c-3.011-2.09-3.69-6.332-3.69-6.332s4.2-.857 7.21 1.233z" stroke="#00A79E" stroke-width="2.035" stroke-miterlimit="10" stroke-linecap="round" stroke-linejoin="round"/><g clip-path="url(#clip0)" stroke="#00A99E" stroke-width="2" stroke-miterlimit="10" stroke-linecap="round" stroke-linejoin="round"><path d="M262.7 50.277v54.88m-.4-33.42c9.002 0 16.3-7.298 16.3-16.3s-7.298-16.3-16.3-16.3-16.3 7.297-16.3 16.3c0 9.002 7.298 16.3 16.3 16.3zm31.53 8.25v25.12m-.19-13.29c5.782 0 10.47-4.688 10.47-10.47 0-5.782-4.688-10.47-10.47-10.47-5.782 0-10.47 4.688-10.47 10.47 0 5.782 4.688 10.47 10.47 10.47z"/></g><path opacity=".25" d="M474.303 105.911s25.166-5.409 15.331-50.864c0 0-27.518 16.354-15.331 50.864z" fill="#00A99E"/><path d="M475.263 103.893s20.298 2.015 25.272-34.37c-.009.005-25.035 5.615-25.272 34.37zm.854-.946c.651-.977 20.192-28.478 20.192-28.478m-4.187.82l-.284 5.492m3.429.242l-5.216 2.235m1.94 2.541l-5.217 2.235m1.94 2.541l-5.221 2.226m5.058-12.611l-.294 5.497m-2.822-.957l-.293 5.495" stroke="#00A99E" stroke-width="2" stroke-miterlimit="10" stroke-linecap="round" stroke-linejoin="round"/><path d="M89.192 105.815V91.028M421 105.815V91.028m343 14.787V91.028m34 15.109v-10m192 10v-10m19 10v-10m-350 9.678V91.028m-321 14.787V91.028M75.806 105.497V96.36M358 105.497V96.36m238 9.137V96.36m-153 9.137V96.36m-343.857 9.455v-7.394m-82.96-1.289v8.177m11.281-5.292v5.292" stroke="#00A79E" stroke-width="2.035" stroke-miterlimit="10" stroke-linecap="round" stroke-linejoin="round"/><path opacity=".56" d="M169.662 105.616a12.828 12.828 0 01-1.2-5.434c0-7.104 5.739-12.862 12.82-12.862 2.077 0 4.036.5 5.773 1.38 2.638-6.388 8.903-10.88 16.222-10.88 6.837 0 12.752 3.924 15.656 9.642a13.26 13.26 0 011.901-.142c7.081 0 12.82 5.758 12.82 12.862 0 1.942-.43 3.781-1.2 5.434h-62.792z" fill="#00A79E"/><path d="M2 106.137h1240" stroke="#00A79E" stroke-width="2.035" stroke-miterlimit="10" stroke-linecap="round" stroke-linejoin="round"/><path d="M203.36 1.137v10.72m5.36-5.36H198m334.36 65.64v10.72m5.36-5.36H527M86.36 34.137v10.72m5.36-5.36H81m272.36-.36v10.72m5.36-5.36H348m373.36 38.64v10.72m5.36-5.36H716" stroke="#00A99E" stroke-width="2" stroke-miterlimit="10" stroke-linecap="round" stroke-linejoin="round"/><g opacity=".51"><path opacity=".31" d="M1130.46 87.462c-.29-.985-.46-2.02-.46-3.106 0-5.908 4.79-10.695 10.7-10.695.75 0 1.48.079 2.19.223 1.97-7.001 8.39-12.14 16.03-12.14 1.13 0 2.22.114 3.28.323 3.65-8.209 11.88-13.93 21.44-13.93 12.95 0 23.45 10.501 23.45 23.454 0 .812-.04 1.61-.12 2.4a10.83 10.83 0 012.66-.337c5.91 0 10.7 4.787 10.7 10.695 0 1.078-.16 2.12-.46 3.105h-89.41v.008z" fill="#00A79E"/></g><defs><clipPath id="clip0"><path fill="#fff" transform="translate(245 38.137)" d="M0 0h60.11v68.02H0z"/></clipPath></defs></svg>