<svg width="3308" height="1380" viewBox="0 0 3308 1380" fill="none" xmlns="http://www.w3.org/2000/svg"><g filter="url(#filter0_d)"><path d="M1309.1 1047.3c-164.03 18.36-334.544-21.2-466.004-80.36-183.225-82.462-318.421-276.605-493.598-375.716C230.256 523.76 104.827 471.939 23.5 487v-801H3282V928.761c-67.55-54.198-155.04-69.956-240.59-66.306-173.26 7.392-280.82 197.245-437.07 269.945-86.58 40.29-205.37 53.62-355.13 6.77-422.35-132.15-528.13-137.99-940.11-91.87z" fill="#00A79E"/></g><path d="M1238.52-133.826c-118.75-218.317-274.089-284.486-336.918-290.281-256.389 52.252-668.55 273.198-266.077 738.971C1038 780.636 1732.13 622.63 2028.89 485.406L1750.93 111.85c-121.33 9.074-393.67-27.358-512.41-245.676z" fill="url(#paint0_linear)" fill-opacity=".12"/><path d="M2641.51 14.32c-110.04-222.829-262.65-295.071-325.2-303.338-258.25 42.102-678.81 246.626-295.01 727.905 383.8 481.279 1083.62 350.763 1385.56 225.346l-263.02-384.224c-121.59 4.283-392.28-42.858-502.33-265.688z" fill="url(#paint1_linear)" fill-opacity=".12"/><path d="M3071.51-285.679c-110.04-222.83-262.65-295.072-325.2-303.339-258.25 42.102-678.81 246.626-295.01 727.905 383.8 481.279 1083.62 350.763 1385.56 225.346L3573.84-19.991c-121.59 4.283-392.28-42.858-502.33-265.688z" fill="url(#paint2_linear)" fill-opacity=".12"/><circle cx="886.927" cy="945.927" r="155.927" fill="#fff" fill-opacity=".19"/><circle cx="-21" cy="380" r="452" fill="#fff" fill-opacity=".19"/><circle cx="1186" cy="999" r="95" fill="#fff" fill-opacity=".19"/><path opacity=".38" d="M1148.43-417.256c-213.493-127.219-380.859-104.901-437.856-77.839-193.881 175.716-435.703 575.986 148.05 771.334C1442.38 471.587 1958.84-18.368 2144.11-287.764l-429.63-179.534c-99.73 69.688-352.56 177.261-566.05 50.042z" fill="url(#paint3_linear)" fill-opacity=".42"/><defs><linearGradient id="paint0_linear" x1="1184.78" y1="786.987" x2="1457.87" y2="-97.825" gradientUnits="userSpaceOnUse"><stop offset=".304" stop-color="#fff"/><stop offset=".821" stop-color="#fff" stop-opacity="0"/></linearGradient><linearGradient id="paint1_linear" x1="2349.5" y1="729" x2="2569" y2="158" gradientUnits="userSpaceOnUse"><stop stop-color="#fff"/><stop offset="1" stop-color="#fff" stop-opacity="0"/></linearGradient><linearGradient id="paint2_linear" x1="2779.5" y1="429" x2="2999" y2="-142" gradientUnits="userSpaceOnUse"><stop stop-color="#fff"/><stop offset="1" stop-color="#fff" stop-opacity="0"/></linearGradient><linearGradient id="paint3_linear" x1="1401.5" y1="505.835" x2="1355.47" y2="-498.174" gradientUnits="userSpaceOnUse"><stop offset=".474" stop-color="#fff"/><stop offset="1" stop-color="#fff" stop-opacity="0"/></linearGradient><filter id="filter0_d" x="-1.5" y="-339" width="3308.5" height="1532.89" filterUnits="userSpaceOnUse" color-interpolation-filters="sRGB"><feFlood flood-opacity="0" result="BackgroundImageFix"/><feColorMatrix in="SourceAlpha" values="0 0 0 0 0 0 0 0 0 0 0 0 0 0 0 0 0 0 127 0"/><feOffset/><feGaussianBlur stdDeviation="12.5"/><feColorMatrix values="0 0 0 0 0 0 0 0 0 0.654902 0 0 0 0 0.619608 0 0 0 1 0"/><feBlend in2="BackgroundImageFix" result="effect1_dropShadow"/><feBlend in="SourceGraphic" in2="effect1_dropShadow" result="shape"/></filter></defs></svg>