<svg width="38" height="38" viewBox="0 0 38 38" fill="none" xmlns="http://www.w3.org/2000/svg"><circle cx="19" cy="19" r="18" stroke="#fff" stroke-width="2"/><path fill-rule="evenodd" clip-rule="evenodd" d="M21.622 22.235a8.437 8.437 0 002.002.462c1.155.154 2.001 1.155 2.001 2.31v2.309c0 .616-.308 1.155-.693 1.616-.384.462-1 .693-1.616.693h-.231c-2.463-.23-4.927-1.078-7.005-2.463a16.186 16.186 0 01-4.85-4.85c-1.309-2.078-2.232-4.542-2.463-7.005 0-.616.154-1.232.538-1.694.385-.461.924-.77 1.54-.846h2.541c1.154 0 2.155.846 2.309 2.001.077.693.23 1.386.462 2.002.308.846.077 1.847-.54 2.463l-.538.539c.924 1.462 2.155 2.617 3.541 3.54l.539-.538c.693-.616 1.617-.847 2.463-.539zm2.464 5.082v-2.31c0-.385-.308-.693-.615-.77-.77-.154-1.54-.308-2.31-.615-.308-.154-.616-.078-.847.154l-1 1c-.231.308-.616.308-.924.154a12.632 12.632 0 01-4.927-4.927.818.818 0 01.154-.923l1-.924c.155-.231.232-.539.155-.847a7.88 7.88 0 01-.616-2.31c-.077-.384-.385-.692-.77-.692h-2.31c-.23 0-.461.154-.615.308-.077.154-.154.308-.154.539.23 2.232 1 4.388 2.232 6.312 1.155 1.77 2.618 3.31 4.388 4.388a14.48 14.48 0 006.313 2.232c.308 0 .462-.077.615-.23a.699.699 0 00.231-.54z" fill="#000"/><mask id="mask0" maskUnits="userSpaceOnUse" x="8" y="12" width="18" height="18"><path fill-rule="evenodd" clip-rule="evenodd" d="M21.622 22.235a8.437 8.437 0 002.002.462c1.155.154 2.001 1.155 2.001 2.31v2.309c0 .616-.308 1.155-.693 1.616-.384.462-1 .693-1.616.693h-.231c-2.463-.23-4.927-1.078-7.005-2.463a16.186 16.186 0 01-4.85-4.85c-1.309-2.078-2.232-4.542-2.463-7.005 0-.616.154-1.232.538-1.694.385-.461.924-.77 1.54-.846h2.541c1.154 0 2.155.846 2.309 2.001.077.693.23 1.386.462 2.002.308.846.077 1.847-.54 2.463l-.538.539c.924 1.462 2.155 2.617 3.541 3.54l.539-.538c.693-.616 1.617-.847 2.463-.539zm2.464 5.082v-2.31c0-.385-.308-.693-.615-.77-.77-.154-1.54-.308-2.31-.615-.308-.154-.616-.078-.847.154l-1 1c-.231.308-.616.308-.924.154a12.632 12.632 0 01-4.927-4.927.818.818 0 01.154-.923l1-.924c.155-.231.232-.539.155-.847a7.88 7.88 0 01-.616-2.31c-.077-.384-.385-.692-.77-.692h-2.31c-.23 0-.461.154-.615.308-.077.154-.154.308-.154.539.23 2.232 1 4.388 2.232 6.312 1.155 1.77 2.618 3.31 4.388 4.388a14.48 14.48 0 006.313 2.232c.308 0 .462-.077.615-.23a.699.699 0 00.231-.54z" fill="#fff"/></mask><g mask="url(#mask0)"><path fill="#fff" d="M8 12h18.391v18.391H8z"/></g><path d="M23.641 18.747a4 4 0 00-5.142-4.373m9.708 4.29A8.034 8.034 0 0018.11 9.618" stroke="#fff" stroke-width="2" stroke-linecap="round"/></svg>