<svg width="209" height="66" viewBox="0 0 209 66" fill="none" xmlns="http://www.w3.org/2000/svg"><path d="M106.958 63.536V39.62m-3.389-6.957c0 4.014 3.39 7.268 3.39 7.268s3.39-3.254 3.39-7.268c0-4.015-3.39-7.268-3.39-7.268s-3.39 3.253-3.39 7.268zm7.921 7.899c-3.3 2.282-4.049 6.927-4.049 6.927s4.605.937 7.91-1.346c3.299-2.282 4.048-6.927 4.048-6.927s-4.61-.937-7.909 1.346zm0 10.942c-3.3 2.282-4.049 6.927-4.049 6.927s4.605.937 7.91-1.346c3.299-2.282 4.048-6.927 4.048-6.927s-4.61-.937-7.909 1.346zm-8.581-10.942c3.299 2.282 4.049 6.927 4.049 6.927s-4.605.937-7.91-1.346C95.75 43.861 95 39.216 95 39.216s4.611-.937 7.91 1.346zm0 10.942c3.299 2.282 4.049 6.927 4.049 6.927s-4.605.937-7.91-1.346C95.75 54.803 95 50.158 95 50.158s4.611-.937 7.91 1.346zM47.937 63.172V15.01M44.83 8.65c0 3.673 3.1 6.649 3.1 6.649s3.101-2.976 3.101-6.65c0-3.674-3.1-6.649-3.1-6.649s-3.1 2.975-3.1 6.65zm7.246 7.222c-3.02 2.09-3.702 6.331-3.702 6.331s4.213.858 7.234-1.232 3.703-6.331 3.703-6.331-4.214-.857-7.235 1.232zm0 10.88c-3.02 2.09-3.702 6.33-3.702 6.33s4.213.858 7.234-1.231c3.021-2.09 3.703-6.332 3.703-6.332s-4.214-.857-7.235 1.233zm-7.842-10.88c3.021 2.09 3.703 6.331 3.703 6.331s-4.214.858-7.235-1.232C37.682 18.881 37 14.64 37 14.64s4.213-.857 7.234 1.232zm0 10.88c3.021 2.09 3.703 6.33 3.703 6.33s-4.214.858-7.235-1.231C37.682 29.76 37 25.519 37 25.519s4.213-.857 7.234 1.233zm7.842 11.828c-3.02 2.089-3.702 6.33-3.702 6.33s4.213.858 7.234-1.232 3.703-6.33 3.703-6.33-4.214-.858-7.235 1.231zm-7.842 0c3.021 2.089 3.703 6.33 3.703 6.33s-4.214.858-7.235-1.232c-3.02-2.09-3.702-6.33-3.702-6.33s4.213-.858 7.234 1.231zm39.204 24.638V48.432M70.009 62.9v-9.136M77 63.218v-7.393m-63.69-1.289v8.177m8.2-5.293v5.293" stroke="#00A79E" stroke-width="2.035" stroke-miterlimit="10" stroke-linecap="round" stroke-linejoin="round"/><path opacity=".56" d="M136.575 63.019a12.799 12.799 0 01-1.203-5.434c0-7.104 5.757-12.861 12.861-12.861 2.084 0 4.049.5 5.792 1.38 2.646-6.389 8.932-10.88 16.274-10.88 6.859 0 12.793 3.923 15.706 9.641a13.37 13.37 0 011.908-.142c7.104 0 12.861 5.758 12.861 12.862 0 1.942-.431 3.782-1.203 5.434h-62.996z" fill="#00A79E"/><path d="M130.442 63.661A15.327 15.327 0 01129 57.148c0-8.506 6.894-15.4 15.4-15.4a15.3 15.3 0 016.933 1.653c3.168-7.649 10.698-13.032 19.494-13.032 8.21 0 15.325 4.696 18.806 11.55.744-.108 1.505-.17 2.283-.17 8.506 0 15.399 6.893 15.399 15.4 0 2.327-.516 4.53-1.442 6.512h-75.431zm38.909-.641V45.796M156.336 63.02V51.992m13.014 1.595l4.958-4.468m-4.958 9.585l4.958-4.47M2 64h205" stroke="#00A79E" stroke-width="2.035" stroke-miterlimit="10" stroke-linecap="round" stroke-linejoin="round"/></svg>