<svg viewBox="0 0 1241 767" fill="none" xmlns="http://www.w3.org/2000/svg"><path d="M1199.85 653c-5.67 0-10.47 3.7-12.11 8.82-3.59.32-6.52 2.92-7.35 6.34-.08 0-.15-.01-.23-.01-2.85 0-5.16 2.31-5.16 5.15 0 2.84 2.31 5.15 5.15 5.15h19.69c7.03 0 12.73-5.7 12.73-12.73 0-7.02-5.7-12.72-12.72-12.72zm-51.52 111.42v-6.56m-7.74 6.56v-10.24m0 4.63l-2.95-2.66m2.95 5.71l-2.95-2.66m26.09 5.6a9.159 9.159 0 00-12.42-12.05c-1.89-4.55-6.37-7.75-11.6-7.75-4.89 0-9.12 2.79-11.19 6.87-.44-.07-.9-.1-1.36-.1a9.159 9.159 0 00-8.3 13.03h44.87z" stroke="#BABFC7" stroke-width="2" stroke-miterlimit="10" stroke-linecap="round" stroke-linejoin="round"/><path d="M946.001 765v-65m-3.431-6.732c0 4.015 3.39 7.268 3.39 7.268s3.39-3.253 3.39-7.268c0-4.014-3.39-7.268-3.39-7.268s-3.39 3.254-3.39 7.268zm7.921 7.899c-3.299 2.283-4.049 6.928-4.049 6.928s4.605.937 7.91-1.346c3.299-2.283 4.049-6.928 4.049-6.928s-4.611-.937-7.91 1.346zm0 10.942c-3.299 2.283-4.049 6.927-4.049 6.927s4.605.937 7.91-1.345c3.299-2.283 4.049-6.928 4.049-6.928s-4.611-.937-7.91 1.346zm-8.58-10.942c3.299 2.283 4.049 6.928 4.049 6.928s-4.606.937-7.91-1.346c-3.299-2.283-4.049-6.928-4.049-6.928s4.611-.937 7.91 1.346zm0 10.942c3.299 2.283 4.049 6.927 4.049 6.927s-4.606.937-7.91-1.345c-3.299-2.283-4.049-6.928-4.049-6.928s4.611-.937 7.91 1.346zm-55.951 50.033v-23.917m-3.39-6.957c0 4.015 3.39 7.268 3.39 7.268s3.39-3.253 3.39-7.268c0-4.014-3.39-7.268-3.39-7.268s-3.39 3.254-3.39 7.268zm7.921 7.899c-3.299 2.283-4.049 6.928-4.049 6.928s4.605.937 7.91-1.346c3.299-2.283 4.049-6.928 4.049-6.928s-4.611-.937-7.91 1.346zm0 10.942c-3.299 2.283-4.049 6.927-4.049 6.927s4.605.937 7.91-1.345c3.299-2.283 4.049-6.928 4.049-6.928s-4.611-.937-7.91 1.346zm-8.58-10.942c3.299 2.283 4.049 6.928 4.049 6.928s-4.606.937-7.91-1.346c-3.299-2.283-4.049-6.928-4.049-6.928s4.611-.937 7.91 1.346zm0 10.942c3.299 2.283 4.049 6.927 4.049 6.927s-4.606.937-7.91-1.345c-3.299-2.283-4.049-6.928-4.049-6.928s4.611-.937 7.91 1.346zm-41.951 12.033v-23.917m-3.39-6.957c0 4.015 3.39 7.268 3.39 7.268s3.39-3.253 3.39-7.268c0-4.014-3.39-7.268-3.39-7.268s-3.39 3.254-3.39 7.268zm7.921 7.899c-3.299 2.283-4.049 6.928-4.049 6.928s4.605.937 7.91-1.346c3.299-2.283 4.049-6.928 4.049-6.928s-4.611-.937-7.91 1.346zm0 10.942c-3.299 2.283-4.049 6.927-4.049 6.927s4.605.937 7.91-1.345c3.299-2.283 4.049-6.928 4.049-6.928s-4.611-.937-7.91 1.346zm-8.58-10.942c3.299 2.283 4.049 6.928 4.049 6.928s-4.606.937-7.91-1.346c-3.299-2.283-4.049-6.928-4.049-6.928s4.611-.937 7.91 1.346zm0 10.942c3.299 2.283 4.049 6.927 4.049 6.927s-4.606.937-7.91-1.345c-3.299-2.283-4.049-6.928-4.049-6.928s4.611-.937 7.91 1.346z" stroke="#BABFC7" stroke-width="2.035" stroke-miterlimit="10" stroke-linecap="round" stroke-linejoin="round"/><path d="M657 728v37m15.6-31.7c0 9.002-7.298 16.3-16.3 16.3s-16.3-7.298-16.3-16.3 7.298-16.3 16.3-16.3 16.3 7.298 16.3 16.3zm-66.9-24.16v54.88m15.9-49.72c0 9.002-7.298 16.3-16.3 16.3s-16.3-7.298-16.3-16.3 7.298-16.3 16.3-16.3 16.3 7.298 16.3 16.3zm-72.67 41.47v5.98M537.34 753v9.66M524 755.77v6.89m-161.02-18.98v21.16m0-9.77l5.44-5.44m-5.57-.13l-5.43-5.44m5.56 16.68l5.44-5.43" stroke="#BABFC7" stroke-width="2" stroke-miterlimit="10" stroke-linecap="round" stroke-linejoin="round"/><path d="M330 764.785V758m-34 6.785V758m-17 7v-4.922" stroke="#BABFC7" stroke-width="2.035" stroke-miterlimit="10" stroke-linecap="round" stroke-linejoin="round"/><path d="M228.57 743.68v21.16m0-9.77l5.44-5.44m-5.57-.13l-5.44-5.44m5.57 16.68l5.44-5.43" stroke="#BABFC7" stroke-width="2" stroke-miterlimit="10" stroke-linecap="round" stroke-linejoin="round"/><path d="M70.959 406.536v-23.917m-3.39-6.956c0 4.014 3.39 7.268 3.39 7.268s3.39-3.254 3.39-7.268c0-4.015-3.39-7.268-3.39-7.268s-3.39 3.253-3.39 7.268zm7.92 7.899c-3.298 2.282-4.048 6.927-4.048 6.927s4.605.937 7.91-1.346c3.3-2.282 4.049-6.927 4.049-6.927s-4.611-.937-7.91 1.346zm0 10.941c-3.298 2.283-4.048 6.928-4.048 6.928s4.605.937 7.91-1.346c3.3-2.282 4.049-6.927 4.049-6.927s-4.611-.937-7.91 1.345zm-8.58-10.941c3.3 2.282 4.05 6.927 4.05 6.927s-4.606.937-7.91-1.346c-3.3-2.282-4.049-6.927-4.049-6.927s4.61-.937 7.91 1.346zm0 10.941c3.3 2.283 4.05 6.928 4.05 6.928s-4.606.937-7.91-1.346c-3.3-2.282-4.049-6.927-4.049-6.927s4.61-.937 7.91 1.345z" stroke="#BABFC7" stroke-width="2.035" stroke-miterlimit="10" stroke-linecap="round" stroke-linejoin="round"/><path fill-rule="evenodd" clip-rule="evenodd" d="M164.226 344.266l.704.734.705-.734a1.017 1.017 0 00-1.409 0zm.704 14.033l.705.733.002-.002.004-.003.01-.01.033-.033c.028-.028.067-.067.114-.117.096-.099.229-.243.387-.425.314-.365.732-.889 1.151-1.539.826-1.283 1.712-3.14 1.712-5.254 0-2.113-.886-3.97-1.712-5.253a13.95 13.95 0 00-1.151-1.539 10.773 10.773 0 00-.387-.425 5.008 5.008 0 00-.114-.117l-.033-.033-.01-.01-.004-.004-.001-.001s-.001-.001-.706.733l-.704-.734-.001.001-.001.001-.004.004-.01.01-.033.033-.115.117c-.095.099-.228.243-.386.425a13.95 13.95 0 00-1.151 1.539c-.826 1.283-1.712 3.14-1.712 5.253 0 2.114.886 3.971 1.712 5.254.419.65.837 1.174 1.151 1.539a11.767 11.767 0 00.501.542l.033.033.01.01.004.003.001.002s.001.001.705-.733zm0 0l.705.733a1.018 1.018 0 01-1.409.001l.704-.734zm0-1.531a12.038 12.038 0 01-.695-.967c-.723-1.123-1.388-2.591-1.388-4.152 0-1.56.665-3.028 1.388-4.151.241-.374.482-.699.695-.967.214.268.455.593.695.967.724 1.123 1.388 2.591 1.388 4.151 0 1.561-.664 3.029-1.388 4.152-.24.374-.481.699-.695.967zm11.38.872l1.004.162v.003l-.001.005-.002.014-.009.046a10.837 10.837 0 01-.161.72c-.12.466-.314 1.108-.61 1.822-.584 1.409-1.607 3.194-3.345 4.396-1.737 1.202-3.769 1.53-5.295 1.58a13.834 13.834 0 01-2.491-.147 7.36 7.36 0 01-.161-.027l-.046-.009-.015-.003-.004-.001h-.002s-.002 0 .201-.997l-.203.997a1.018 1.018 0 01-.801-1.159l1.004.162-1.004-.162v-.003l.001-.005.003-.014.008-.046a12.009 12.009 0 01.161-.72c.12-.466.314-1.108.61-1.822.584-1.409 1.607-3.194 3.345-4.396 1.738-1.202 3.77-1.53 5.295-1.58.773-.025 1.443.02 1.921.071a11.066 11.066 0 01.731.103l.047.009.014.003.004.001h.002s.002 0-.201.997zm-1.259.871a12.138 12.138 0 00-1.192-.022c-1.336.044-2.921.332-4.205 1.22-1.283.888-2.111 2.268-2.623 3.502-.17.411-.301.794-.399 1.122.342.023.747.036 1.192.022 1.336-.044 2.922-.332 4.205-1.22 1.283-.888 2.111-2.268 2.623-3.502.17-.411.301-.794.399-1.122zm1.259-.871l.203-.997c.534.109.888.621.801 1.159l-1.004-.162zm0 10.88l1.004.162v.002l-.001.005-.002.014-.009.046a10.843 10.843 0 01-.161.72c-.12.466-.314 1.108-.61 1.822-.584 1.41-1.607 3.195-3.345 4.397-1.737 1.202-3.769 1.529-5.295 1.579a13.702 13.702 0 01-1.921-.071 11.066 11.066 0 01-.731-.103l-.046-.009-.015-.002-.004-.001-.002-.001s-.002 0 .201-.997l-.203.997a1.017 1.017 0 01-.801-1.158l1.004.161-1.004-.161v-.003l.001-.005.003-.014.008-.047.031-.16c.028-.135.07-.326.13-.56.12-.465.314-1.108.61-1.822.584-1.409 1.607-3.194 3.345-4.396 1.738-1.202 3.77-1.53 5.295-1.58a13.834 13.834 0 012.491.147l.161.028.047.008.014.003.004.001h.002s.002.001-.201.998zm-1.259.871a11.545 11.545 0 00-1.192-.022c-1.336.044-2.921.332-4.205 1.219-1.283.888-2.111 2.269-2.623 3.503-.17.41-.301.794-.399 1.121.342.024.747.036 1.192.022 1.336-.044 2.922-.332 4.205-1.22 1.283-.887 2.111-2.268 2.623-3.502.17-.41.301-.794.399-1.121zm1.259-.871l.203-.997c.534.109.888.62.801 1.159l-1.004-.162z" fill="#BABFC7"/><path fill-rule="evenodd" clip-rule="evenodd" d="M153.797 356.643l.203.997-1.005.162.001.003.001.005.002.014.008.046.031.16c.028.136.07.326.13.56.121.466.314 1.108.61 1.822.585 1.409 1.608 3.194 3.345 4.396 1.738 1.202 3.77 1.53 5.296 1.58a13.848 13.848 0 002.491-.147l.161-.027.046-.009.014-.003.005-.001h.002l-.202-.997 1.004-.162v-.003l-.001-.005-.002-.014-.008-.046-.031-.16a13.768 13.768 0 00-.74-2.382c-.585-1.409-1.608-3.194-3.345-4.396-1.738-1.202-3.77-1.53-5.296-1.58-.773-.025-1.442.02-1.921.071a11.222 11.222 0 00-.731.103l-.046.009-.014.003-.005.001h-.003zm11.139 8.561l1.004-.162a1.018 1.018 0 01-.801 1.159l-.203-.997zm-1.259-.871c-.341.023-.747.036-1.192.022-1.336-.044-2.921-.332-4.204-1.22-1.284-.888-2.112-2.268-2.623-3.502-.17-.411-.301-.794-.4-1.122a12.16 12.16 0 011.193-.022c1.336.044 2.921.332 4.204 1.22 1.283.888 2.112 2.268 2.623 3.502.17.411.301.794.399 1.122zM154 357.64l-1.005.162a1.02 1.02 0 01.802-1.159l.203.997zm-.203 9.883l.203.997-1.005.162.001.002.001.005.002.014.008.046.031.161c.028.135.07.326.13.559.121.466.314 1.108.61 1.822.585 1.41 1.608 3.195 3.345 4.397 1.738 1.202 3.77 1.529 5.296 1.579.772.026 1.442-.019 1.921-.071a11.222 11.222 0 00.731-.103l.046-.009.014-.002.005-.001.002-.001-.202-.997c1.005-.161 1.004-.162 1.004-.162v-.002l-.001-.005-.002-.014-.008-.047-.031-.16a13.817 13.817 0 00-.74-2.382c-.585-1.409-1.608-3.194-3.345-4.396-1.738-1.202-3.77-1.53-5.296-1.58a13.841 13.841 0 00-2.491.147l-.161.028-.046.008-.014.003-.005.001-.003.001zm11.139 8.56l1.004-.162a1.018 1.018 0 01-.801 1.159l-.203-.997zm-1.259-.871c-.341.024-.747.036-1.192.022-1.336-.044-2.921-.332-4.204-1.22-1.284-.887-2.112-2.268-2.623-3.502-.17-.41-.301-.794-.4-1.121.342-.024.748-.037 1.193-.022 1.336.044 2.921.332 4.204 1.219 1.283.888 2.112 2.269 2.623 3.503.17.41.301.794.399 1.121zM154 368.52l-1.005.162a1.019 1.019 0 01.802-1.159l.203.997zm22.31 11.827l1.004.162v.003l-.001.005-.002.014-.009.046a10.837 10.837 0 01-.161.72c-.12.466-.314 1.108-.61 1.822-.584 1.409-1.607 3.194-3.345 4.396-1.737 1.202-3.769 1.53-5.295 1.58a13.834 13.834 0 01-2.491-.147 7.36 7.36 0 01-.161-.027l-.046-.009-.015-.003-.004-.001h-.002l.201-.997-.202.997a1.017 1.017 0 01-.802-1.159l1.004.162-1.004-.162v-.003l.001-.005.003-.014.008-.046a12.009 12.009 0 01.161-.72c.12-.466.314-1.108.61-1.822.584-1.409 1.607-3.194 3.345-4.396 1.738-1.202 3.77-1.53 5.295-1.58a13.834 13.834 0 012.491.147l.161.027.047.009.014.003.004.001h.002s.002 0-.201.997zm-1.259.871a12.138 12.138 0 00-1.192-.022c-1.336.044-2.921.332-4.205 1.22-1.283.888-2.111 2.268-2.623 3.502-.17.411-.301.794-.399 1.122.342.023.747.036 1.192.022 1.336-.044 2.922-.332 4.205-1.22 1.283-.888 2.111-2.268 2.623-3.502.17-.411.301-.794.399-1.122zm1.259-.871l.203-.997c.534.109.888.621.801 1.159l-1.004-.162z" fill="#BABFC7"/><path fill-rule="evenodd" clip-rule="evenodd" d="M153.797 379.35l.203.997-1.005.162.001.003.001.005.002.014.008.046a12.009 12.009 0 00.161.72c.121.466.314 1.108.61 1.822.585 1.409 1.608 3.194 3.345 4.396 1.738 1.202 3.77 1.53 5.296 1.58a13.848 13.848 0 002.491-.147l.161-.027.046-.009.014-.003.005-.001h.002l-.202-.997 1.004-.162v-.003l-.001-.005-.002-.014-.008-.046-.031-.16a13.768 13.768 0 00-.74-2.382c-.585-1.409-1.608-3.194-3.345-4.396-1.738-1.202-3.77-1.53-5.296-1.58a13.841 13.841 0 00-2.491.147l-.161.027-.046.009-.014.003-.005.001h-.003zm11.139 8.561l1.004-.162a1.018 1.018 0 01-.801 1.159l-.203-.997zm-1.259-.871c-.341.023-.747.036-1.192.022-1.336-.044-2.921-.332-4.204-1.22-1.284-.888-2.112-2.268-2.623-3.502-.17-.411-.301-.794-.4-1.122a12.16 12.16 0 011.193-.022c1.336.044 2.921.332 4.204 1.22 1.283.888 2.112 2.268 2.623 3.502.17.411.301.794.399 1.122zM154 380.347l-1.005.162a1.02 1.02 0 01.802-1.159l.203.997z" fill="#BABFC7"/><path fill-rule="evenodd" clip-rule="evenodd" d="M164.936 356.992c-.562 0-1.017.455-1.017 1.017v48.163a1.017 1.017 0 102.034 0v-48.163c0-.562-.455-1.017-1.017-1.017z" fill="#BABFC7"/><path d="M375.959 406.536v-23.917m-3.39-6.956c0 4.014 3.39 7.268 3.39 7.268s3.39-3.254 3.39-7.268c0-4.015-3.39-7.268-3.39-7.268s-3.39 3.253-3.39 7.268zm7.921 7.899c-3.299 2.282-4.049 6.927-4.049 6.927s4.605.937 7.91-1.346c3.299-2.282 4.049-6.927 4.049-6.927s-4.611-.937-7.91 1.346zm0 10.941c-3.299 2.283-4.049 6.928-4.049 6.928s4.605.937 7.91-1.346c3.299-2.282 4.049-6.927 4.049-6.927s-4.611-.937-7.91 1.345zm-8.58-10.941c3.299 2.282 4.049 6.927 4.049 6.927s-4.606.937-7.91-1.346c-3.299-2.282-4.049-6.927-4.049-6.927s4.611-.937 7.91 1.346zm0 10.941c3.299 2.283 4.049 6.928 4.049 6.928s-4.606.937-7.91-1.346c-3.299-2.282-4.049-6.927-4.049-6.927s4.611-.937 7.91 1.345zm83.426 11.516v-11.027m13.015 11.027v-17.222m0 7.79l4.957-4.468m-4.957 9.585l4.957-4.469" stroke="#BABFC7" stroke-width="2.035" stroke-miterlimit="10" stroke-linecap="round" stroke-linejoin="round"/><path opacity=".56" d="M435.575 406.019a12.797 12.797 0 01-1.203-5.434c0-7.104 5.757-12.862 12.861-12.862 2.084 0 4.049.5 5.792 1.38 2.646-6.388 8.932-10.879 16.274-10.879 6.859 0 12.793 3.923 15.706 9.641a13.37 13.37 0 011.908-.142c7.104 0 12.861 5.758 12.861 12.862 0 1.942-.431 3.782-1.203 6.415h-62.996z" fill="#BABFC7"/><path d="M429.442 406.661a15.327 15.327 0 01-1.442-6.513c0-8.506 6.894-15.4 15.4-15.4a15.3 15.3 0 016.933 1.653c3.168-7.649 10.698-13.032 19.494-13.032 8.21 0 15.325 4.696 18.806 11.55a15.868 15.868 0 012.283-.171c8.506 0 15.399 6.894 15.399 15.4 0 2.328-.516 4.531-1.442 7.852h-75.431z" stroke="#BABFC7" stroke-width="2.035" stroke-miterlimit="10" stroke-linecap="round" stroke-linejoin="round"/><path d="M700.9 405.83V376.8m0 0l-4.6-3.45m4.6 3.45v-6.89m-4.6 9.77l4.6 3.64 4.6-3.64m-9.2 6.32l4.6 3.64 4.6-3.64m-4.45 8.62c4.98 0 9.05-4.07 9.05-9.05v-17.53c0-4.98-4.07-9.05-9.05-9.05s-9.05 4.07-9.05 9.05v17.53c-.01 4.98 4.07 9.05 9.05 9.05z" stroke="#BABFC7" stroke-width="2" stroke-miterlimit="10" stroke-linecap="round" stroke-linejoin="round"/><path d="M759 406.65v-11.027M780 407v-8m22.964 7.65v-11.027m13.015 1.595l4.958-4.468m-4.958 9.585l4.958-4.469m-4.957 8.784v-17.222" stroke="#BABFC7" stroke-width="2.035" stroke-miterlimit="10" stroke-linecap="round" stroke-linejoin="round"/><path d="M1010.2 408.83V379.8m0 0l4.6-3.45m-4.6 3.45v-6.89m4.6 9.77l-4.6 3.64-4.6-3.64m9.2 6.32l-4.6 3.64-4.6-3.64m4.45 8.62c-4.98 0-9.05-4.07-9.05-9.05v-17.53c0-4.98 4.07-9.05 9.05-9.05s9.05 4.07 9.05 9.05v17.53c.01 4.98-4.07 9.05-9.05 9.05zm75.28 11.21V369.9m0 0l6.17-4.63m-6.17 4.63v-9.25m6.17 13.1l-6.17 4.88-6.17-4.88m12.34 8.49l-6.17 4.87-6.17-4.87m5.98 11.56c-6.68 0-12.14-5.46-12.14-12.14v-23.52c0-6.68 5.46-12.14 12.14-12.14 6.68 0 12.14 5.46 12.14 12.14v23.51c0 6.69-5.46 12.15-12.14 12.15z" stroke="#BABFC7" stroke-width="2" stroke-miterlimit="10" stroke-linecap="round" stroke-linejoin="round"/><path d="M1173 407v-6.374m17 6.096v-8.786m17.98 8.785V393m16.02 13.722v-8.786M1185 52l-.1-38m-3.1-6.3c0 3.7 3.1 6.6 3.1 6.6s3.1-3 3.1-6.6c0-3.7-3.1-6.6-3.1-6.6s-3.1 2.9-3.1 6.6zm7.3 7.2c-3 2.1-3.7 6.3-3.7 6.3s4.2.9 7.2-1.2 3.7-6.3 3.7-6.3-4.2-.9-7.2 1.2zm0 10.9c-3 2.1-3.7 6.3-3.7 6.3s4.2.9 7.2-1.2 3.7-6.3 3.7-6.3-4.2-.9-7.2 1.2zm-7.9-10.9c3 2.1 3.7 6.3 3.7 6.3s-4.2.9-7.2-1.2-3.7-6.3-3.7-6.3 4.2-.9 7.2 1.2zm0 10.9c3 2.1 3.7 6.3 3.7 6.3s-4.2.9-7.2-1.2-3.7-6.3-3.7-6.3 4.2-.9 7.2 1.2zm7.9 11.8c-3 2.1-3.7 6.3-3.7 6.3s4.2.9 7.2-1.2 3.7-6.3 3.7-6.3-4.2-.9-7.2 1.2zm-7.9 0c3 2.1 3.7 6.3 3.7 6.3s-4.2.9-7.2-1.2-3.7-6.3-3.7-6.3 4.2-.9 7.2 1.2z" stroke="#BABFC7" stroke-width="2.035" stroke-miterlimit="10" stroke-linecap="round" stroke-linejoin="round"/><path d="M1105.4 17.7v34.2m0-22.8l-5.4-5.4m5.6 8.6l5.4-5.4m-5.6 7.9l-5.4-5.4m5.5-7.1s6-4.5 0-10.3c0 0-5.4 5.3 0 10.3zm2.7 7.2s7.4 1.1 7.3-7.3c0 0-7.5-.1-7.3 7.3z" stroke="#BABFC7" stroke-width="2" stroke-miterlimit="10" stroke-linecap="round" stroke-linejoin="round"/><path d="M873 50.786V42m34 8.786V42m-51 9.064V44.69M667 52v-6" stroke="#BABFC7" stroke-width="2.035" stroke-miterlimit="10" stroke-linecap="round" stroke-linejoin="round"/><path d="M632.98 30.68v21.16m0-9.77l5.44-5.44m-5.57-.13l-5.43-5.44m5.56 16.68l5.44-5.43" stroke="#BABFC7" stroke-width="2" stroke-miterlimit="10" stroke-linecap="round" stroke-linejoin="round"/><path d="M566 51.785V45m34 6.785V45m-51 7v-4.922" stroke="#BABFC7" stroke-width="2.035" stroke-miterlimit="10" stroke-linecap="round" stroke-linejoin="round"/><path d="M498.57 30.68v21.16m0-9.77l5.44-5.44m-5.57-.13L493 31.06m5.57 16.68l5.44-5.43M332.101 30.68v21.16m0-9.77l5.43-5.44m-5.56 8.62l-5.44-5.44m5.57 7.93l5.43-5.43m-5.47-6.99s-6-4.46 0-10.32c0 0 5.38 5.25 0 10.32zm-2.75 7.14s-7.39 1.09-7.31-7.29c.01 0 7.52-.1 7.31 7.29zM268.3 52.23a9.57 9.57 0 002.36-6.31c0-5.3-4.3-9.6-9.6-9.6-.81 0-1.6.1-2.35.29-2-5.28-7.1-9.04-13.08-9.04-5.93 0-10.99 3.69-13.02 8.9-.55-.1-1.13-.15-1.71-.15-4.27 0-7.88 2.79-9.14 6.64-.16-.01-.31-.02-.47-.02a6.3 6.3 0 00-6.3 6.3c0 1.08.27 2.11.76 2.76h52.55v.23zm-33.45-26.4s-3.08-1.2-1.64-4.83c0 0 2.53 2.05 1.64 4.83zm-1.23 1.11s-3.12 1.1-4.39-2.59c0 0 3.26-.1 4.39 2.59z" stroke="#BABFC7" stroke-width="2" stroke-miterlimit="10" stroke-linecap="round" stroke-linejoin="round"/><path d="M2 51h1177-.5 51.5c5 0 9 4 9 9v339.5c0 5-4 9-9 9H11c-5 0-9 4-9 9V755c0 5 4 9 9 9h1228" stroke="#BABFC7" stroke-width="4" stroke-linecap="round" stroke-linejoin="round"/></svg>