<svg width="28" height="28" viewBox="0 0 28 28" xmlns="http://www.w3.org/2000/svg">
<g clip-path="url(#clip0)">
<path fill-rule="evenodd" clip-rule="evenodd" d="M4.18032 10H1C0.447715 10 0 9.55228 0 9C0 8.44772 0.447715 8 1 8H5C5.47663 8 5.88701 8.33639 5.98055 8.80374L6.82043 13H23C23.6274 13 24.0998 13.571 23.9823 14.1873L22.3808 22.5848C22.0977 24.0102 20.8338 25.0277 19.4 25L9.69916 24.9998C8.24624 25.0277 6.98227 24.0102 6.69945 22.5863L5.02879 14.2392C5.02201 14.2116 5.01638 14.1835 5.01195 14.1551L4.18032 10ZM7 29.0016C7 30.2026 7.79935 31.0033 8.99837 31.0033C10.1974 31.0033 10.9967 30.2026 10.9967 29.0016C10.9967 27.8007 10.1974 27 8.99837 27C7.79935 27 7 27.8007 7 29.0016ZM18 29C18 30.2 18.7993 31 19.9984 31C21.1974 31 21.9967 30.2 21.9967 29C21.9967 27.8 21.1974 27 19.9984 27C18.7993 27 18 27.8 18 29ZM8.66084 22.1952L7.22073 15H21.7913L20.4177 22.2027C20.3248 22.6703 19.9035 23.0095 19.4192 23.0002L9.68 23C9.17653 23.0095 8.75521 22.6703 8.66084 22.1952Z"/>
<mask id="mask0" mask-type="alpha" maskUnits="userSpaceOnUse" x="0" y="8" width="25" height="24">
<path fill-rule="evenodd" clip-rule="evenodd" d="M4.18032 10H1C0.447715 10 0 9.55228 0 9C0 8.44772 0.447715 8 1 8H5C5.47663 8 5.88701 8.33639 5.98055 8.80374L6.82043 13H23C23.6274 13 24.0998 13.571 23.9823 14.1873L22.3808 22.5848C22.0977 24.0102 20.8338 25.0277 19.4 25L9.69916 24.9998C8.24624 25.0277 6.98227 24.0102 6.69945 22.5863L5.02879 14.2392C5.02201 14.2116 5.01638 14.1835 5.01195 14.1551L4.18032 10ZM7 29.0016C7 30.2026 7.79935 31.0033 8.99837 31.0033C10.1974 31.0033 10.9967 30.2026 10.9967 29.0016C10.9967 27.8007 10.1974 27 8.99837 27C7.79935 27 7 27.8007 7 29.0016ZM18 29C18 30.2 18.7993 31 19.9984 31C21.1974 31 21.9967 30.2 21.9967 29C21.9967 27.8 21.1974 27 19.9984 27C18.7993 27 18 27.8 18 29ZM8.66084 22.1952L7.22073 15H21.7913L20.4177 22.2027C20.3248 22.6703 19.9035 23.0095 19.4192 23.0002L9.68 23C9.17653 23.0095 8.75521 22.6703 8.66084 22.1952Z"/>
</mask>
</g>
<defs>
<clipPath id="clip0">
<rect width="28" height="28"/>
</clipPath>
</defs>
</svg>
