<svg width="10" height="10" viewBox="0 0 10 10" xmlns="http://www.w3.org/2000/svg">
<path fill-rule="evenodd" clip-rule="evenodd" d="M5.00033 0.416626C2.45866 0.416626 0.416992 2.45829 0.416992 4.99996C0.416992 7.54163 2.45866 9.58329 5.00033 9.58329C7.54199 9.58329 9.58366 7.54163 9.58366 4.99996C9.58366 2.45829 7.54199 0.416626 5.00033 0.416626ZM8.70869 4.5833H7.04202C6.95869 3.41663 6.58369 2.3333 5.91702 1.37497C7.41702 1.74997 8.54202 3.04163 8.70869 4.5833ZM6.25034 5.41663H3.79201C3.87534 6.54163 4.29201 7.62496 5.04201 8.49996C5.70867 7.62496 6.12534 6.54163 6.25034 5.41663ZM3.79201 4.58329C3.91701 3.45829 4.33367 2.37496 5.00034 1.49996C5.70867 2.41662 6.12534 3.49996 6.20867 4.58329H3.79201ZM2.95867 4.5833C3.04201 3.41663 3.41701 2.3333 4.04201 1.37497C2.58367 1.74997 1.45867 3.04163 1.29201 4.5833H2.95867ZM1.29201 5.41663H2.95867C3.04201 6.58329 3.41701 7.66663 4.08367 8.62496C2.58367 8.24996 1.45867 6.95829 1.29201 5.41663ZM7.08363 5.41663C6.95863 6.58329 6.58363 7.66663 5.95863 8.62496C7.41696 8.24996 8.54196 6.95829 8.7503 5.41663H7.08363Z"/>
<mask id="mask0" mask-type="alpha" maskUnits="userSpaceOnUse" x="0" y="0" width="10" height="10">
<path fill-rule="evenodd" clip-rule="evenodd" d="M5.00033 0.416626C2.45866 0.416626 0.416992 2.45829 0.416992 4.99996C0.416992 7.54163 2.45866 9.58329 5.00033 9.58329C7.54199 9.58329 9.58366 7.54163 9.58366 4.99996C9.58366 2.45829 7.54199 0.416626 5.00033 0.416626ZM8.70869 4.5833H7.04202C6.95869 3.41663 6.58369 2.3333 5.91702 1.37497C7.41702 1.74997 8.54202 3.04163 8.70869 4.5833ZM6.25034 5.41663H3.79201C3.87534 6.54163 4.29201 7.62496 5.04201 8.49996C5.70867 7.62496 6.12534 6.54163 6.25034 5.41663ZM3.79201 4.58329C3.91701 3.45829 4.33367 2.37496 5.00034 1.49996C5.70867 2.41662 6.12534 3.49996 6.20867 4.58329H3.79201ZM2.95867 4.5833C3.04201 3.41663 3.41701 2.3333 4.04201 1.37497C2.58367 1.74997 1.45867 3.04163 1.29201 4.5833H2.95867ZM1.29201 5.41663H2.95867C3.04201 6.58329 3.41701 7.66663 4.08367 8.62496C2.58367 8.24996 1.45867 6.95829 1.29201 5.41663ZM7.08363 5.41663C6.95863 6.58329 6.58363 7.66663 5.95863 8.62496C7.41696 8.24996 8.54196 6.95829 8.7503 5.41663H7.08363Z"/>
</mask>
</svg>
