<svg width="28" height="28" viewBox="0 0 28 28" xmlns="http://www.w3.org/2000/svg">
<g clip-path="url(#clip0)">
<path fill-rule="evenodd" clip-rule="evenodd" d="M23 25C23 25.6 22.6 26 22 26H2C1.4 26 1 25.6 1 25C1 24.4 1.4 24 2 24C3.1 24 4 23.1 4 22V17C4 12.6 7.6 9 12 9C16.4 9 20 12.6 20 17V22C20 23.1 20.9 24 22 24C22.6 24 23 24.4 23 25ZM14.6 29.5C14 30.5 13 31 12 31C11.5 31 11 30.9 10.5 30.6C10 30.3 9.7 30 9.4 29.5C9.1 29 9.3 28.4 9.8 28.1C10.3 27.8 10.9 28 11.2 28.5C11.2303 28.5303 11.2605 28.5697 11.2936 28.6128L11.2936 28.6128C11.3697 28.7119 11.4606 28.8303 11.6 28.9C12.1 29.2 12.7 29 13 28.5C13.3 28 13.9 27.9 14.4 28.1C14.9 28.3 14.9 29 14.6 29.5ZM18 22C18 22.7 18.2 23.4 18.5 24H5.5C5.8 23.4 6 22.7 6 22V17C6 13.7 8.7 11 12 11C15.3 11 18 13.7 18 17V22Z"/>
<mask id="mask0" mask-type="alpha" maskUnits="userSpaceOnUse" x="1" y="9" width="22" height="22">
<path fill-rule="evenodd" clip-rule="evenodd" d="M23 25C23 25.6 22.6 26 22 26H2C1.4 26 1 25.6 1 25C1 24.4 1.4 24 2 24C3.1 24 4 23.1 4 22V17C4 12.6 7.6 9 12 9C16.4 9 20 12.6 20 17V22C20 23.1 20.9 24 22 24C22.6 24 23 24.4 23 25ZM14.6 29.5C14 30.5 13 31 12 31C11.5 31 11 30.9 10.5 30.6C10 30.3 9.7 30 9.4 29.5C9.1 29 9.3 28.4 9.8 28.1C10.3 27.8 10.9 28 11.2 28.5C11.2303 28.5303 11.2605 28.5697 11.2936 28.6128L11.2936 28.6128C11.3697 28.7119 11.4606 28.8303 11.6 28.9C12.1 29.2 12.7 29 13 28.5C13.3 28 13.9 27.9 14.4 28.1C14.9 28.3 14.9 29 14.6 29.5ZM18 22C18 22.7 18.2 23.4 18.5 24H5.5C5.8 23.4 6 22.7 6 22V17C6 13.7 8.7 11 12 11C15.3 11 18 13.7 18 17V22Z"/>
</mask>
</g>
<defs>
<clipPath id="clip0">
<rect width="28" height="28"/>
</clipPath>
</defs>
</svg>
