<svg width="3813" height="116" viewBox="0 0 3813 116" fill="none" xmlns="http://www.w3.org/2000/svg"><path d="M2633 113.809l1180-.001" stroke="#00A79E" stroke-width="4"/><g clip-path="url(#clip0)" stroke="#00A79E" stroke-width="2" stroke-miterlimit="10" stroke-linecap="round" stroke-linejoin="round"><path d="M266.3 113.038a9.57 9.57 0 002.36-6.31c0-5.3-4.3-9.6-9.6-9.6-.81 0-1.6.1-2.35.29-2-5.28-7.1-9.04-13.08-9.04-5.93 0-10.99 3.69-13.02 8.9-.55-.1-1.13-.15-1.71-.15-4.27 0-7.88 2.79-9.14 6.64-.16-.01-.31-.02-.47-.02a6.3 6.3 0 00-6.3 6.3c0 1.08.27 2.11.76 3h52.55v-.01zM232.85 86.639s-3.08-1.2-1.64-4.83c0 0 2.53 2.05 1.64 4.83zM231.62 87.749s-3.12 1.1-4.39-2.59c0 0 3.26-.1 4.39 2.59z"/></g><g clip-path="url(#clip1)" stroke="#00A79E" stroke-width="2" stroke-miterlimit="10" stroke-linecap="round" stroke-linejoin="round"><path d="M3177.7 57.949v54.88M3177.3 79.409c9 0 16.3-7.298 16.3-16.3 0-9.003-7.3-16.3-16.3-16.3s-16.3 7.297-16.3 16.3c0 9.002 7.3 16.3 16.3 16.3z"/></g><path d="M2297.14 99.609c-6.68 0-12.14-5.46-12.14-12.14v-23.52c0-6.68 5.46-12.14 12.14-12.14 6.68 0 12.14 5.46 12.14 12.14v23.51c0 6.69-5.46 12.15-12.14 12.15z" stroke="#00A79E" stroke-width="2" stroke-miterlimit="10" stroke-linecap="round" stroke-linejoin="round"/><path d="M2297.33 114.639v-38.93l6.17-4.63M2303.5 79.559l-6.17 4.88M2303.5 88.049l-6.17 4.87M2291.16 79.559l6.17 4.88M2291.16 88.049l6.17 4.87M2297.33 75.709v-9.25M2222.05 103.429c-4.98 0-9.05-4.07-9.05-9.05v-17.53c0-4.98 4.07-9.05 9.05-9.05s9.05 4.07 9.05 9.05v17.53c.01 4.98-4.07 9.05-9.05 9.05z" stroke="#00A79E" stroke-width="2" stroke-miterlimit="10" stroke-linecap="round" stroke-linejoin="round"/><path d="M2222.2 114.639v-29.03l4.6-3.45M2226.8 88.489l-4.6 3.64M2226.8 94.809l-4.6 3.64M2217.6 88.489l4.6 3.64M2217.6 94.809l4.6 3.64M2222.2 85.609v-6.89" stroke="#00A79E" stroke-width="2" stroke-miterlimit="10" stroke-linecap="round" stroke-linejoin="round"/><path d="M0 113.809h2676.5" stroke="#00A79E" stroke-width="4"/><path d="M1587.96 112.345V88.428M1584.57 81.471c0 4.015 3.39 7.269 3.39 7.269s3.39-3.254 3.39-7.269c0-4.014-3.39-7.268-3.39-7.268s-3.39 3.254-3.39 7.268zM1592.49 89.37c-3.3 2.283-4.05 6.928-4.05 6.928s4.61.937 7.91-1.346c3.3-2.283 4.05-6.928 4.05-6.928s-4.61-.936-7.91 1.346zM1592.49 100.312c-3.3 2.283-4.05 6.928-4.05 6.928s4.61.937 7.91-1.346c3.3-2.283 4.05-6.928 4.05-6.928s-4.61-.937-7.91 1.346zM1583.91 89.37c3.3 2.283 4.05 6.928 4.05 6.928s-4.61.937-7.91-1.346c-3.3-2.283-4.05-6.928-4.05-6.928s4.61-.936 7.91 1.346zM1583.91 100.312c3.3 2.283 4.05 6.928 4.05 6.928s-4.61.937-7.91-1.346c-3.3-2.283-4.05-6.928-4.05-6.928s4.61-.937 7.91 1.346z" stroke="#00A79E" stroke-width="2.035" stroke-miterlimit="10" stroke-linecap="round" stroke-linejoin="round"/><path d="M3457.96 110.95V87.033M3454.57 80.077c0 4.014 3.39 7.268 3.39 7.268s3.39-3.254 3.39-7.268c0-4.015-3.39-7.268-3.39-7.268s-3.39 3.253-3.39 7.268zM3462.49 87.976c-3.3 2.282-4.05 6.927-4.05 6.927s4.61.937 7.91-1.346c3.3-2.282 4.05-6.927 4.05-6.927s-4.61-.937-7.91 1.346zM3462.49 98.918c-3.3 2.282-4.05 6.927-4.05 6.927s4.61.937 7.91-1.346c3.3-2.282 4.05-6.927 4.05-6.927s-4.61-.937-7.91 1.346zM3453.91 87.976c3.3 2.282 4.05 6.927 4.05 6.927s-4.61.937-7.91-1.346c-3.3-2.282-4.05-6.927-4.05-6.927s4.61-.937 7.91 1.346zM3453.91 98.918c3.3 2.282 4.05 6.927 4.05 6.927s-4.61.937-7.91-1.346c-3.3-2.282-4.05-6.927-4.05-6.927s4.61-.937 7.91 1.346zM3518 113.809v-65M3514.57 42.077c0 4.014 3.39 7.268 3.39 7.268s3.39-3.254 3.39-7.268c0-4.015-3.39-7.268-3.39-7.268s-3.39 3.253-3.39 7.268zM3522.49 49.976c-3.3 2.282-4.05 6.927-4.05 6.927s4.61.937 7.91-1.346c3.3-2.282 4.05-6.927 4.05-6.927s-4.61-.937-7.91 1.346zM3522.49 60.917c-3.3 2.283-4.05 6.928-4.05 6.928s4.61.937 7.91-1.346c3.3-2.282 4.05-6.927 4.05-6.927s-4.61-.937-7.91 1.345zM3513.91 49.976c3.3 2.282 4.05 6.927 4.05 6.927s-4.61.937-7.91-1.346c-3.3-2.282-4.05-6.927-4.05-6.927s4.61-.937 7.91 1.346zM3513.91 60.917c3.3 2.283 4.05 6.928 4.05 6.928s-4.61.937-7.91-1.346c-3.3-2.282-4.05-6.927-4.05-6.927s4.61-.937 7.91 1.345zM3411.96 110.95V87.033M3408.57 80.077c0 4.014 3.39 7.268 3.39 7.268s3.39-3.254 3.39-7.268c0-4.015-3.39-7.268-3.39-7.268s-3.39 3.253-3.39 7.268zM3416.49 87.976c-3.3 2.282-4.05 6.927-4.05 6.927s4.61.937 7.91-1.346c3.3-2.282 4.05-6.927 4.05-6.927s-4.61-.937-7.91 1.346zM3416.49 98.918c-3.3 2.282-4.05 6.927-4.05 6.927s4.61.937 7.91-1.346c3.3-2.282 4.05-6.927 4.05-6.927s-4.61-.937-7.91 1.346zM3407.91 87.976c3.3 2.282 4.05 6.927 4.05 6.927s-4.61.937-7.91-1.346c-3.3-2.282-4.05-6.927-4.05-6.927s4.61-.937 7.91 1.346zM3407.91 98.918c3.3 2.282 4.05 6.927 4.05 6.927s-4.61.937-7.91-1.346c-3.3-2.282-4.05-6.927-4.05-6.927s4.61-.937 7.91 1.346z" stroke="#00A79E" stroke-width="2.035" stroke-miterlimit="10" stroke-linecap="round" stroke-linejoin="round"/><g clip-path="url(#clip2)"><path d="M3771.85 1.809c-5.67 0-10.47 3.7-12.11 8.82-3.59.32-6.52 2.92-7.35 6.34-.08 0-.15-.01-.23-.01-2.85 0-5.16 2.31-5.16 5.15 0 2.84 2.31 5.15 5.15 5.15h19.69c7.03 0 12.73-5.7 12.73-12.73 0-7.02-5.7-12.72-12.72-12.72z" stroke="#00A79E" stroke-width="2" stroke-miterlimit="10" stroke-linecap="round" stroke-linejoin="round"/></g><path d="M1282.96 112.345V88.428M1279.57 81.471c0 4.015 3.39 7.269 3.39 7.269s3.39-3.254 3.39-7.269c0-4.014-3.39-7.268-3.39-7.268s-3.39 3.254-3.39 7.268zM1287.49 89.37c-3.3 2.283-4.05 6.928-4.05 6.928s4.61.937 7.91-1.346c3.3-2.283 4.05-6.928 4.05-6.928s-4.61-.936-7.91 1.346zM1287.49 100.312c-3.3 2.283-4.05 6.928-4.05 6.928s4.61.937 7.91-1.346c3.3-2.283 4.05-6.928 4.05-6.928s-4.61-.937-7.91 1.346zM1278.91 89.37c3.3 2.283 4.05 6.928 4.05 6.928s-4.61.937-7.91-1.346c-3.3-2.283-4.05-6.928-4.05-6.928s4.61-.936 7.91 1.346zM1278.91 100.312c3.3 2.283 4.05 6.928 4.05 6.928s-4.61.937-7.91-1.346c-3.3-2.283-4.05-6.928-4.05-6.928s4.61-.937 7.91 1.346zM1376.94 111.981V63.817M1373.83 57.458c0 3.674 3.1 6.65 3.1 6.65s3.1-2.976 3.1-6.65c0-3.674-3.1-6.65-3.1-6.65s-3.1 2.976-3.1 6.65zM1381.08 64.68c-3.02 2.09-3.71 6.332-3.71 6.332s4.22.858 7.24-1.232c3.02-2.09 3.7-6.331 3.7-6.331s-4.21-.858-7.23 1.232zM1381.08 75.56c-3.02 2.09-3.71 6.331-3.71 6.331s4.22.858 7.24-1.232c3.02-2.09 3.7-6.331 3.7-6.331s-4.21-.857-7.23 1.232zM1373.23 64.68c3.03 2.09 3.71 6.332 3.71 6.332s-4.22.858-7.24-1.232c-3.02-2.09-3.7-6.331-3.7-6.331s4.21-.858 7.23 1.232zM1373.23 75.56c3.03 2.09 3.71 6.331 3.71 6.331s-4.22.858-7.24-1.232c-3.02-2.09-3.7-6.331-3.7-6.331s4.21-.857 7.23 1.232zM1381.08 87.388c-3.02 2.09-3.71 6.331-3.71 6.331s4.22.858 7.24-1.232c3.02-2.09 3.7-6.331 3.7-6.331s-4.21-.858-7.23 1.232zM1373.23 87.388c3.03 2.09 3.71 6.331 3.71 6.331s-4.22.858-7.24-1.232c-3.02-2.09-3.7-6.331-3.7-6.331s4.21-.858 7.23 1.232zM1183 113.809l-.06-37.992M1179.83 69.458c0 3.674 3.1 6.65 3.1 6.65s3.1-2.976 3.1-6.65c0-3.674-3.1-6.65-3.1-6.65s-3.1 2.976-3.1 6.65zM1187.08 76.68c-3.02 2.09-3.71 6.332-3.71 6.332s4.22.858 7.24-1.232c3.02-2.09 3.7-6.331 3.7-6.331s-4.21-.858-7.23 1.232zM1187.08 87.56c-3.02 2.09-3.71 6.331-3.71 6.331s4.22.858 7.24-1.232c3.02-2.09 3.7-6.331 3.7-6.331s-4.21-.857-7.23 1.232zM1179.23 76.68c3.03 2.09 3.71 6.332 3.71 6.332s-4.22.858-7.24-1.232c-3.02-2.09-3.7-6.331-3.7-6.331s4.21-.858 7.23 1.232zM1179.23 87.56c3.03 2.09 3.71 6.331 3.71 6.331s-4.22.858-7.24-1.232c-3.02-2.09-3.7-6.331-3.7-6.331s4.21-.857 7.23 1.232zM1187.08 99.388c-3.02 2.089-3.71 6.331-3.71 6.331s4.22.858 7.24-1.232c3.02-2.09 3.7-6.331 3.7-6.331s-4.21-.858-7.23 1.232zM1179.23 99.388c3.03 2.089 3.71 6.331 3.71 6.331s-4.22.858-7.24-1.232c-3.02-2.09-3.7-6.331-3.7-6.331s4.21-.858 7.23 1.232z" stroke="#00A79E" stroke-width="2.035" stroke-miterlimit="10" stroke-linecap="round" stroke-linejoin="round"/><path opacity=".56" d="M1647.58 111.828a12.691 12.691 0 01-1.21-5.435c0-7.103 5.76-12.861 12.86-12.861 2.09 0 4.05.5 5.8 1.38 2.64-6.388 8.93-10.88 16.27-10.88 6.86 0 12.79 3.924 15.71 9.642.62-.09 1.26-.142 1.9-.142 7.11 0 12.87 5.758 12.87 12.861 0 1.942-.44 3.782-1.21 5.435h-62.99z" fill="#00A79E"/><path d="M1641.44 112.47a15.4 15.4 0 01-1.44-6.513c0-8.506 6.89-15.4 15.4-15.4 2.49 0 4.85.596 6.93 1.653 3.17-7.65 10.7-13.032 19.5-13.032 8.21 0 15.32 4.696 18.8 11.55.75-.108 1.51-.17 2.29-.17 8.5 0 15.4 6.893 15.4 15.399 0 2.328-.52 4.531-1.45 6.513h-75.43zM1680.35 111.828V94.606M1667.34 111.828v-11.027M1680.35 102.396l4.96-4.469M1680.35 107.512l4.96-4.469M2027.98 112.459V95.236M2014.96 112.459v-11.027M1971 112.459v-11.027M1992 112.809v-8M2027.98 103.027l4.96-4.469M2027.98 108.143l4.96-4.469M2419.98 112.53V98.809M2402 112.53v-8.785M2436 112.53v-8.785M2385 112.809v-6.374" stroke="#00A79E" stroke-width="2.035" stroke-miterlimit="10" stroke-linecap="round" stroke-linejoin="round"/><path d="M1103.44 79.478v34.201M1103.44 90.869l-5.44-5.44M1103.57 94.049l5.44-5.43M1103.44 96.548l-5.44-5.44M1103.48 84.129s6-4.46 0-10.32c0-.01-5.38 5.25 0 10.32zM1106.23 91.259s7.39 1.09 7.31-7.29c-.01 0-7.52-.09-7.31 7.29z" stroke="#00A79E" stroke-width="2" stroke-miterlimit="10" stroke-linecap="round" stroke-linejoin="round"/><g clip-path="url(#clip3)" stroke-miterlimit="10" stroke-linecap="round" stroke-linejoin="round"><path d="M630.98 91.489v21.16M630.98 102.879l5.44-5.44M630.85 97.309l-5.43-5.44M630.98 108.549l5.44-5.43M496.57 91.489v21.16M496.57 102.879l5.44-5.44M496.44 97.309l-5.44-5.44M496.57 108.549l5.44-5.43" stroke="#00A79E" stroke-width="2"/><path d="M564 112.594v-6.785M598 112.594v-6.785M547 112.809v-4.923" stroke="#00A79E" stroke-width="2.035"/></g><g clip-path="url(#clip4)" stroke="#00A79E" stroke-miterlimit="10" stroke-linecap="round" stroke-linejoin="round"><path d="M2934.98 92.489v21.16M2934.98 103.879l5.44-5.44M2934.85 98.309l-5.43-5.44M2934.98 109.549l5.44-5.43M2800.57 92.489v21.16M2800.57 103.879l5.44-5.44M2800.44 98.309l-5.44-5.44M2800.57 109.549l5.44-5.43" stroke-width="2"/><path d="M2868 113.594v-6.785M2902 113.594v-6.785M2851 113.809v-4.923" stroke-width="2.035"/></g><path d="M665 112.809v-6" stroke="#00A79E" stroke-width="2.035" stroke-miterlimit="10" stroke-linecap="round" stroke-linejoin="round"/><path d="M330.101 91.489v21.16M330.101 102.878l5.43-5.44M329.971 106.059l-5.44-5.44M330.101 108.549l5.43-5.43M330.061 96.129s-6-4.46 0-10.32c0 0 5.38 5.25 0 10.32zM327.311 103.269s-7.39 1.09-7.31-7.29c.01 0 7.52-.1 7.31 7.29z" stroke="#00A79E" stroke-width="2" stroke-miterlimit="10" stroke-linecap="round" stroke-linejoin="round"/><path d="M945 112.53V98.809M871 111.594v-8.785M905 111.594v-8.785M854 111.873v-6.374" stroke="#00A79E" stroke-width="2.035" stroke-miterlimit="10" stroke-linecap="round" stroke-linejoin="round"/><path d="M1913.05 100.429c4.98 0 9.05-4.07 9.05-9.05v-17.53c0-4.98-4.07-9.05-9.05-9.05s-9.05 4.07-9.05 9.05v17.53c-.01 4.98 4.07 9.05 9.05 9.05z" stroke="#00A79E" stroke-width="2" stroke-miterlimit="10" stroke-linecap="round" stroke-linejoin="round"/><path d="M1912.9 111.639v-29.03l-4.6-3.45M1908.3 85.489l4.6 3.64M1908.3 91.809l4.6 3.64M1917.5 85.489l-4.6 3.64M1917.5 91.809l-4.6 3.64M1912.9 82.609v-6.89" stroke="#00A79E" stroke-width="2" stroke-miterlimit="10" stroke-linecap="round" stroke-linejoin="round"/><path d="M3229 76.809v37M3228.3 98.409c9 0 16.3-7.298 16.3-16.3 0-9.003-7.3-16.3-16.3-16.3s-16.3 7.297-16.3 16.3c0 9.002 7.3 16.3 16.3 16.3z" stroke="#00A79E" stroke-width="2" stroke-miterlimit="10" stroke-linecap="round" stroke-linejoin="round"/><g clip-path="url(#clip5)" stroke="#00A79E" stroke-width="2" stroke-miterlimit="10" stroke-linecap="round" stroke-linejoin="round"><path d="M3096 104.579v6.89M3109.34 101.809v9.66M3120.93 104.579v5.98"/></g><defs><clipPath id="clip0"><path fill="#fff" transform="translate(212 80.809)" d="M0 0h57.67v33.23H0z"/></clipPath><clipPath id="clip1"><path fill="#fff" transform="translate(3160 45.809)" d="M0 0h60.11v68.02H0z"/></clipPath><clipPath id="clip2"><path fill="#fff" transform="translate(3746 .809)" d="M0 0h39.57v27.45H0z"/></clipPath><clipPath id="clip3"><path fill="#fff" transform="translate(490 84.809)" d="M0 0h147.42v28.84H0z"/></clipPath><clipPath id="clip4"><path fill="#fff" transform="translate(2794 85.809)" d="M0 0h147.42v28.84H0z"/></clipPath><clipPath id="clip5"><path fill="#fff" transform="translate(3095 100.809)" d="M0 0h26.93v11.66H0z"/></clipPath></defs></svg>