<svg width="356" height="66" viewBox="0 0 356 66" fill="none" xmlns="http://www.w3.org/2000/svg"><path d="M116.958 63.536V39.62m-3.389-6.957c0 4.015 3.39 7.269 3.39 7.269s3.39-3.254 3.39-7.269c0-4.014-3.39-7.268-3.39-7.268s-3.39 3.254-3.39 7.268zm7.921 7.899c-3.299 2.282-4.049 6.927-4.049 6.927s4.605.937 7.91-1.345c3.299-2.283 4.049-6.928 4.049-6.928s-4.611-.937-7.91 1.346zm0 10.942c-3.299 2.282-4.049 6.927-4.049 6.927s4.605.937 7.91-1.345c3.299-2.283 4.049-6.928 4.049-6.928s-4.611-.937-7.91 1.346zm-8.58-10.942c3.299 2.282 4.048 6.927 4.048 6.927s-4.605.937-7.909-1.345C105.75 43.86 105 39.216 105 39.216s4.611-.937 7.91 1.346zm0 10.942c3.299 2.282 4.048 6.927 4.048 6.927s-4.605.937-7.909-1.345C105.75 54.803 105 50.158 105 50.158s4.611-.937 7.91 1.346zM53.936 63.172V15.01M50.83 8.65c0 3.673 3.1 6.649 3.1 6.649s3.101-2.976 3.101-6.65c0-3.674-3.1-6.649-3.1-6.649s-3.1 2.975-3.1 6.65zm7.246 7.222c-3.021 2.09-3.702 6.331-3.702 6.331s4.213.858 7.234-1.232c3.02-2.09 3.702-6.331 3.702-6.331s-4.213-.857-7.234 1.232zm0 10.88c-3.021 2.09-3.702 6.331-3.702 6.331s4.213.858 7.234-1.232c3.02-2.09 3.702-6.331 3.702-6.331s-4.213-.858-7.234 1.232zm-7.842-10.88c3.021 2.09 3.702 6.331 3.702 6.331s-4.213.858-7.234-1.232C43.682 18.881 43 14.64 43 14.64s4.213-.857 7.234 1.232zm0 10.88c3.021 2.09 3.702 6.331 3.702 6.331s-4.213.858-7.234-1.232C43.682 29.761 43 25.52 43 25.52s4.213-.858 7.234 1.232zm7.842 11.828c-3.021 2.09-3.702 6.331-3.702 6.331s4.213.858 7.234-1.232c3.02-2.09 3.702-6.332 3.702-6.332s-4.213-.857-7.234 1.233zm-7.842 0c3.021 2.09 3.702 6.331 3.702 6.331s-4.213.858-7.234-1.232C43.682 41.589 43 37.347 43 37.347s4.213-.857 7.234 1.233zm39.204 24.638V48.432M76.008 62.9v-9.136m23.412 9.454v-7.393m-80.11-1.289v8.177m8.2-5.293v5.293" stroke="#00A79E" stroke-width="2.035" stroke-miterlimit="10" stroke-linecap="round" stroke-linejoin="round"/><path d="M174 63.02c0-6.445 5.224-11.664 11.663-11.664s11.664 5.224 11.664 11.663H174z" fill="#00A79E"/><path opacity=".56" d="M227.586 63.02a12.8 12.8 0 01-1.204-5.435c0-7.103 5.758-12.861 12.862-12.861 2.084 0 4.048.5 5.792 1.38 2.646-6.388 8.932-10.88 16.274-10.88 6.859 0 12.793 3.924 15.706 9.642.624-.091 1.26-.142 1.908-.142 7.103 0 12.861 5.758 12.861 12.861 0 1.942-.431 3.782-1.204 5.434h-62.995z" fill="#00A79E"/><path d="M221.453 63.661a15.327 15.327 0 01-1.442-6.513c0-8.506 6.894-15.4 15.4-15.4 2.493 0 4.849.597 6.933 1.653 3.169-7.649 10.698-13.032 19.494-13.032 8.211 0 15.325 4.696 18.806 11.55.744-.108 1.505-.17 2.283-.17 8.506 0 15.4 6.893 15.4 15.4 0 2.327-.517 4.53-1.443 6.512h-75.431zm38.908-.641V45.797M247.347 63.02V51.992m13.014 1.596l4.957-4.47m-4.957 9.586l4.957-4.469M2 64h352" stroke="#00A79E" stroke-width="2.035" stroke-miterlimit="10" stroke-linecap="round" stroke-linejoin="round"/></svg>