<svg width="9" height="15" viewBox="0 0 9 15" fill="none" xmlns="http://www.w3.org/2000/svg"><path d="M.147 7.683v.028c0 .013 0 .013.013.027 0 .014 0 .014.014.028 0 .013.014.013.014.027S.2 7.807.2 7.82l.014.014.028.028s.013 0 .013.013l.028.028 4.093 2.376h.013c.014.014.028.014.041.014h.014c.028 0 .041.013.069.013.027 0 .041 0 .069-.013h.013c.014 0 .028-.014.041-.014h.014l4.107-2.404s.013 0 .013-.013l.042-.042.013-.013c.014-.014.028-.041.041-.055 0-.014 0-.014.014-.028 0-.013 0-.013.014-.027v-.11c0-.014 0-.014-.014-.027v-.028c0-.014-.014-.014-.014-.027 0 0 0-.014-.013-.014L4.747.679C4.734.665 4.72.638 4.707.624h-.015C4.68.61 4.665.596 4.652.596c0 0-.015 0-.015-.013-.013-.014-.027-.014-.04-.014h-.014C4.555.555 4.54.555 4.513.555c-.027 0-.04 0-.068.014h-.014c-.013 0-.027.014-.04.014 0 0-.014 0-.014.013-.014.014-.028.014-.042.028h-.013c-.014.014-.028.027-.042.055L.174 7.505s0 .013-.014.013c0 .014-.013.014-.013.028v.027c0 .014 0 .014-.014.028v.055c0 .013 0 .013.014.027zm4.092 1.882L1.012 7.669l3.227-1.455v3.35zm.55-3.351l3.227 1.47-3.227 1.88v-3.35zm0-.605V1.82l3.13 5.219-3.13-1.429zm-.55 0L1.108 7.024l3.131-5.219V5.61z" fill="#00A79E"/><path d="M8.812 8.562c-.082-.096-.234-.11-.343-.055l-3.956 2.376L.558 8.507a.273.273 0 00-.343.055c-.096.096-.096.233-.028.343l4.107 5.769c.054.068.137.11.22.11.082 0 .178-.042.219-.11l4.106-5.769c.07-.11.07-.247-.027-.343zm-4.573 2.802v2.293L1.396 9.661l2.843 1.703zm.549 2.293v-2.293L7.631 9.66l-2.843 3.996z" fill="#00A79E"/></svg>