<svg width="9" height="15" viewBox="0 0 9 15" fill="none" xmlns="http://www.w3.org/2000/svg">
<path d="M0.146547 7.68311C0.146547 7.69684 0.146547 7.71057 0.146547 7.71057C0.146547 7.72431 0.146546 7.72431 0.16028 7.73804C0.16028 7.75177 0.16028 7.75177 0.174014 7.76551C0.174014 7.77924 0.187748 7.77924 0.187748 7.79298C0.187748 7.80671 0.201481 7.80671 0.201481 7.82044L0.215215 7.83418C0.228949 7.84791 0.228949 7.84791 0.242683 7.86164C0.242683 7.86164 0.256416 7.86164 0.256416 7.87538C0.27015 7.88911 0.27015 7.88911 0.283884 7.90285L4.37654 10.2788H4.39027C4.404 10.2925 4.41774 10.2925 4.43147 10.2925H4.44521C4.47267 10.2925 4.48641 10.3062 4.51387 10.3062C4.54134 10.3062 4.55508 10.3062 4.58254 10.2925H4.59628C4.61001 10.2925 4.62374 10.2788 4.63748 10.2788H4.65121L8.7576 7.87538C8.7576 7.87538 8.77133 7.87538 8.77133 7.86164C8.78507 7.84791 8.7988 7.83418 8.81253 7.82044L8.82627 7.80671C8.84 7.79298 8.85373 7.76551 8.86747 7.75177C8.86747 7.73804 8.86747 7.73804 8.8812 7.72431C8.8812 7.71057 8.8812 7.71057 8.89494 7.69684C8.89494 7.68311 8.89494 7.66937 8.89494 7.66937C8.89494 7.65564 8.89494 7.65564 8.89494 7.6419C8.89494 7.62817 8.89494 7.61444 8.89494 7.61444C8.89494 7.6007 8.89494 7.6007 8.89494 7.58697C8.89494 7.57324 8.89494 7.57324 8.8812 7.5595C8.8812 7.54577 8.8812 7.54577 8.8812 7.53203C8.8812 7.5183 8.86747 7.5183 8.86747 7.50457C8.86747 7.50457 8.86747 7.49083 8.85373 7.49083L4.74735 0.678901C4.73361 0.665168 4.71988 0.6377 4.70615 0.623967C4.70615 0.623967 4.70615 0.623967 4.69241 0.623967C4.67868 0.610233 4.66495 0.596499 4.65121 0.596499C4.65121 0.596499 4.63748 0.596499 4.63748 0.582765C4.62374 0.569032 4.61001 0.569032 4.59628 0.569032H4.58254C4.55508 0.555298 4.54134 0.555298 4.51387 0.555298C4.48641 0.555298 4.47267 0.555298 4.44521 0.569032H4.43147C4.41774 0.569032 4.404 0.582765 4.39027 0.582765C4.39027 0.582765 4.37654 0.582765 4.37654 0.596499C4.3628 0.610233 4.34907 0.610233 4.33534 0.623967C4.33534 0.623967 4.33534 0.623967 4.3216 0.623967C4.30787 0.6377 4.29413 0.651434 4.2804 0.678901L0.174014 7.50457C0.174014 7.50457 0.174014 7.5183 0.16028 7.5183C0.16028 7.53203 0.146547 7.53204 0.146547 7.54577C0.146547 7.5595 0.146547 7.5595 0.146547 7.57324C0.146547 7.58697 0.146546 7.58697 0.132812 7.6007C0.132812 7.61444 0.132812 7.61444 0.132812 7.62817C0.132812 7.6419 0.132812 7.65564 0.132812 7.65564C0.132813 7.66937 0.132813 7.66937 0.146547 7.68311ZM4.2392 9.56463L1.01177 7.66937L4.2392 6.2136V9.56463ZM4.78855 6.2136L8.01598 7.68311L4.78855 9.56463V6.2136ZM4.78855 5.60931V1.8188L7.91984 7.03762L4.78855 5.60931ZM4.2392 5.60931L1.10791 7.02389L4.2392 1.80507V5.60931Z" fill="#00A79E"/>
<path d="M8.81196 8.56195C8.72956 8.46582 8.57848 8.45208 8.46861 8.50702L4.5133 10.883L0.557982 8.50702C0.448112 8.43835 0.297041 8.46582 0.214639 8.56195C0.118503 8.65809 0.118502 8.79543 0.187171 8.9053L4.29356 14.6735C4.34849 14.7421 4.4309 14.7833 4.5133 14.7833C4.5957 14.7833 4.69184 14.7421 4.73304 14.6735L8.83943 8.9053C8.90809 8.79543 8.90809 8.65809 8.81196 8.56195ZM4.23862 11.3636V13.6572L1.39574 9.66065L4.23862 11.3636ZM4.78797 13.6572V11.3636L7.63086 9.66065L4.78797 13.6572Z" fill="#00A79E"/>
</svg>
