<svg width="313" height="65" viewBox="0 0 313 65" fill="none" xmlns="http://www.w3.org/2000/svg"><path d="M45.794 62.362V14.198m-3.096-6.359c0 3.674 3.09 6.65 3.09 6.65s3.09-2.976 3.09-6.65c0-3.674-3.09-6.65-3.09-6.65s-3.09 2.976-3.09 6.65zm7.222 7.223c-3.01 2.09-3.69 6.331-3.69 6.331s4.2.857 7.212-1.232c3.01-2.09 3.69-6.332 3.69-6.332s-4.2-.857-7.211 1.233zm0 10.88c-3.01 2.09-3.69 6.33-3.69 6.33s4.2.858 7.212-1.231c3.01-2.09 3.69-6.332 3.69-6.332s-4.2-.857-7.211 1.233zm-7.816-10.88c3.01 2.09 3.69 6.331 3.69 6.331s-4.2.857-7.211-1.232c-3.011-2.09-3.69-6.332-3.69-6.332s4.2-.857 7.21 1.233zm0 10.88c3.01 2.09 3.69 6.33 3.69 6.33s-4.2.858-7.211-1.231c-3.011-2.09-3.69-6.332-3.69-6.332s4.2-.857 7.21 1.233zM49.92 37.77c-3.01 2.09-3.69 6.331-3.69 6.331s4.2.857 7.212-1.232c3.01-2.09 3.69-6.331 3.69-6.331s-4.2-.858-7.211 1.232zm-7.816 0c3.01 2.09 3.69 6.331 3.69 6.331s-4.2.857-7.211-1.232c-3.011-2.09-3.69-6.331-3.69-6.331s4.2-.858 7.21 1.232z" stroke="#00A79E" stroke-width="2.035" stroke-miterlimit="10" stroke-linecap="round" stroke-linejoin="round"/><path opacity=".25" d="M114.303 62.963s25.166-5.408 15.331-50.863c0 0-27.518 16.354-15.331 50.863z" fill="#00A99E"/><path d="M116.371 60.77s20.338 3.988 22.989-34.134c-.009.004-24.572 3.67-22.989 34.134zm.674-.77c.587-.98 18.339-28.479 18.339-28.479m-3.423.819l.039 5.49m3.264.313l-5.213 2.1m1.936 2.677l-5.213 2.1m1.937 2.677l-5.217 2.088m4.896-12.543l.031 5.494m-3.147-.956l.03 5.495" stroke="#00A99E" stroke-width="2" stroke-miterlimit="10" stroke-linecap="round" stroke-linejoin="round"/><path d="M89.192 62.867V48.081M210 62.867V48.081M75.806 62.55v-9.137m23.337 9.455v-7.393m-82.96-1.29v8.177m11.281-5.292v5.292" stroke="#00A79E" stroke-width="2.035" stroke-miterlimit="10" stroke-linecap="round" stroke-linejoin="round"/><path opacity=".56" d="M225.2 62.668a12.827 12.827 0 01-1.2-5.434c0-7.103 5.739-12.861 12.82-12.861 2.077 0 4.036.5 5.773 1.38 2.638-6.388 8.903-10.88 16.222-10.88 6.837 0 12.752 3.924 15.656 9.642a13.118 13.118 0 011.901-.142c7.081 0 12.82 5.758 12.82 12.861 0 1.942-.43 3.782-1.2 5.434H225.2z" fill="#00A79E"/><path d="M2 63.129h309" stroke="#00A79E" stroke-width="2.035" stroke-miterlimit="10" stroke-linecap="round" stroke-linejoin="round"/><path d="M201.36 23.129v10.72m5.36-5.359H196m81.36-19.361v10.72m5.36-5.359H272M95.36 1.129v10.72m5.36-5.359H90" stroke="#00A99E" stroke-width="2" stroke-miterlimit="10" stroke-linecap="round" stroke-linejoin="round"/><path d="M171.959 61.665V37.748m-3.39-6.956c0 4.014 3.39 7.268 3.39 7.268s3.39-3.254 3.39-7.268c0-4.015-3.39-7.269-3.39-7.269s-3.39 3.254-3.39 7.269zm-.659 7.898c3.299 2.283 4.049 6.928 4.049 6.928s-4.605.937-7.91-1.346C160.75 41.99 160 37.345 160 37.345s4.611-.937 7.91 1.346z" stroke="#00A79E" stroke-width="2.035" stroke-miterlimit="10" stroke-linecap="round" stroke-linejoin="round"/></svg>