<svg width="1088" height="70" viewBox="0 0 1088 70" fill="none" xmlns="http://www.w3.org/2000/svg"><path d="M46.563 68.723V44.806m-3.379-6.956c0 4.015 3.38 7.268 3.38 7.268s3.378-3.253 3.378-7.268c0-4.014-3.379-7.268-3.379-7.268s-3.379 3.254-3.379 7.268zm7.896 7.899c-3.29 2.282-4.036 6.927-4.036 6.927s4.59.937 7.884-1.346c3.289-2.282 4.036-6.927 4.036-6.927s-4.596-.937-7.885 1.346zm0 10.942c-3.29 2.283-4.036 6.927-4.036 6.927s4.59.937 7.884-1.345c3.289-2.283 4.036-6.928 4.036-6.928s-4.596-.937-7.885 1.346zm-8.553-10.942c3.288 2.282 4.035 6.927 4.035 6.927s-4.59.937-7.884-1.346c-3.288-2.282-4.035-6.927-4.035-6.927s4.595-.937 7.884 1.346zm0 10.942c3.288 2.283 4.035 6.927 4.035 6.927s-4.59.937-7.884-1.345c-3.288-2.283-4.035-6.928-4.035-6.928s4.595-.937 7.884 1.346zM757.92 68.723V44.806m-3.379-6.956c0 4.015 3.379 7.268 3.379 7.268s3.379-3.253 3.379-7.268c0-4.014-3.379-7.268-3.379-7.268s-3.379 3.254-3.379 7.268zm7.896 7.899c-3.289 2.282-4.036 6.927-4.036 6.927s4.591.937 7.885-1.346c3.288-2.282 4.035-6.927 4.035-6.927s-4.596-.937-7.884 1.346zm0 10.942c-3.289 2.283-4.036 6.927-4.036 6.927s4.591.937 7.885-1.345c3.288-2.283 4.035-6.928 4.035-6.928s-4.596-.937-7.884 1.346zm-8.553-10.942c3.289 2.282 4.036 6.927 4.036 6.927s-4.59.937-7.885-1.346c-3.288-2.282-4.035-6.927-4.035-6.927s4.596-.937 7.884 1.346zm0 10.942c3.289 2.283 4.036 6.927 4.036 6.927s-4.59.937-7.885-1.345C746.747 59.99 746 55.345 746 55.345s4.596-.937 7.884 1.346z" stroke="#00A79E" stroke-width="2.035" stroke-miterlimit="10" stroke-linecap="round" stroke-linejoin="round"/><path opacity=".25" d="M396.303 68.501s25.166-5.408 15.331-50.863c0 0-27.518 16.354-15.331 50.863z" fill="#00A99E"/><path d="M397.264 66.483s20.297 2.016 25.271-34.369c-.009.005-25.035 5.614-25.271 34.37zm.855-.946c.65-.976 20.191-28.477 20.191-28.477m-4.187.82l-.284 5.49m3.428.244l-5.216 2.235m1.94 2.541l-5.217 2.234m1.94 2.542l-5.221 2.225m5.059-12.611l-.293 5.497m-2.824-.957l-.293 5.496" stroke="#00A99E" stroke-width="2" stroke-miterlimit="10" stroke-linecap="round" stroke-linejoin="round"/><path d="M11.192 68.406V53.619M343 68.406V53.619m343 14.787V53.619m34 15.109v-10m88 10v-10m123 10v-10m-350 9.678V53.619M260 68.406V53.619m20 14.469V58.95m238 9.138V58.95m-153 9.138V58.95M21.143 68.405v-7.393" stroke="#00A79E" stroke-width="2.035" stroke-miterlimit="10" stroke-linecap="round" stroke-linejoin="round"/><path opacity=".56" d="M147.2 68.207a12.827 12.827 0 01-1.2-5.435c0-7.103 5.739-12.861 12.82-12.861 2.077 0 4.036.5 5.773 1.38 2.638-6.388 8.903-10.88 16.222-10.88 6.837 0 12.752 3.924 15.656 9.642a13.26 13.26 0 011.901-.142c7.081 0 12.82 5.758 12.82 12.861 0 1.942-.43 3.782-1.2 5.435H147.2z" fill="#00A79E"/><path d="M2 68.668h1084" stroke="#00A79E" stroke-width="2.035" stroke-miterlimit="10" stroke-linecap="round" stroke-linejoin="round"/><path d="M119.36 26.727v10.72m5.36-5.36H114m340.36 2.64v10.72m5.36-5.36H449M275.36 1.728v10.72m5.36-5.361H270m798.36 30.58v10.72m5.36-5.36H1063M925.36 17.668v10.72m5.36-5.361H920m-251.64-1.359v10.72m5.36-5.361H663m197.66 15.75v25.12m-.19-13.289c5.782 0 10.47-4.688 10.47-10.47 0-5.783-4.688-10.47-10.47-10.47-5.782 0-10.47 4.687-10.47 10.47 0 5.782 4.688 10.47 10.47 10.47z" stroke="#00A99E" stroke-width="2" stroke-miterlimit="10" stroke-linecap="round" stroke-linejoin="round"/><path d="M610.958 67.204V43.287m-3.389-6.957c0 4.015 3.39 7.269 3.39 7.269s3.39-3.254 3.39-7.269c0-4.014-3.39-7.268-3.39-7.268s-3.39 3.254-3.39 7.268zm7.921 7.899c-3.3 2.283-4.049 6.928-4.049 6.928s4.605.937 7.91-1.346c3.299-2.283 4.048-6.928 4.048-6.928s-4.61-.937-7.909 1.346zm0 10.941c-3.3 2.284-4.049 6.928-4.049 6.928s4.605.937 7.91-1.345c3.299-2.283 4.048-6.928 4.048-6.928s-4.61-.937-7.909 1.346zm-8.581-10.941c3.299 2.283 4.049 6.928 4.049 6.928s-4.605.937-7.91-1.346c-3.299-2.283-4.049-6.928-4.049-6.928s4.611-.937 7.91 1.346zm0 10.941c3.299 2.284 4.049 6.928 4.049 6.928s-4.605.937-7.91-1.345c-3.299-2.283-4.049-6.928-4.049-6.928s4.611-.937 7.91 1.346zm-112.95 12.034V43.287m-3.39-6.957c0 4.015 3.39 7.269 3.39 7.269s3.39-3.254 3.39-7.269c0-4.014-3.39-7.268-3.39-7.268s-3.39 3.254-3.39 7.268zm-.659 7.899c3.299 2.283 4.049 6.928 4.049 6.928s-4.605.937-7.91-1.346C482.75 47.528 482 42.883 482 42.883s4.611-.937 7.91 1.346z" stroke="#00A79E" stroke-width="2.035" stroke-miterlimit="10" stroke-linecap="round" stroke-linejoin="round"/><g clip-path="url(#clip0)" stroke="#00A99E" stroke-width="2" stroke-miterlimit="10" stroke-linecap="round" stroke-linejoin="round"><path d="M1022.14 51.468c-6.68 0-12.14-5.46-12.14-12.14v-23.52c0-6.68 5.46-12.14 12.14-12.14 6.68 0 12.14 5.46 12.14 12.14v23.51c0 6.69-5.46 12.15-12.14 12.15z"/><path d="M1022.33 66.498v-38.93l6.17-4.63m0 8.48l-6.17 4.88m6.17 3.61l-6.17 4.87m-6.17-13.36l6.17 4.88m-6.17 3.61l6.17 4.87m0-17.211v-9.25m-46.28 36.97c-4.98 0-9.05-4.07-9.05-9.05v-17.53c0-4.98 4.07-9.05 9.05-9.05s9.05 4.07 9.05 9.05v17.53c.01 4.98-4.07 9.05-9.05 9.05z"/><path d="M976.2 66.497v-29.03l4.6-3.45m0 6.33l-4.6 3.64m4.6 2.68l-4.6 3.64m-4.6-9.96l4.6 3.64m-4.6 2.68l4.6 3.64m0-12.84v-6.89"/></g><defs><clipPath id="clip0"><path fill="#fff" transform="translate(938 2.667)" d="M0 0h105.82v64.83H0z"/></clipPath></defs></svg>