<svg width="22" height="22" viewBox="0 0 22 22" fill="#fff" xmlns="http://www.w3.org/2000/svg"><path d="M18.975 7.058L8.892 17.142a.832.832 0 01-.642.275.832.832 0 01-.642-.275l-4.583-4.584a.886.886 0 010-1.283.886.886 0 011.283 0l3.942 3.942 9.442-9.442a.886.886 0 011.283 0 .886.886 0 010 1.283z"/><path d="M18.975 7.058L8.892 17.142a.832.832 0 01-.642.275.832.832 0 01-.642-.275l-4.583-4.584a.886.886 0 010-1.283.886.886 0 011.283 0l3.942 3.942 9.442-9.442a.886.886 0 011.283 0 .886.886 0 010 1.283z"/></svg>