<svg viewBox="0 0 57 72" fill="none" xmlns="http://www.w3.org/2000/svg"><path d="M12.316 61.997V14.74M9.268 8.498c0 3.604 3.042 6.524 3.042 6.524s3.042-2.92 3.042-6.524c0-3.605-3.042-6.525-3.042-6.525s-3.042 2.92-3.042 6.525zm7.109 7.086c-2.964 2.05-3.632 6.213-3.632 6.213s4.134.84 7.098-1.21c2.964-2.05 3.633-6.212 3.633-6.212s-4.135-.841-7.099 1.21zm0 11.657c-2.964 2.05-3.632 6.213-3.632 6.213s4.134.84 7.098-1.21c2.964-2.05 3.633-6.212 3.633-6.212s-4.135-.841-7.099 1.21zM8.683 15.584c2.964 2.05 3.633 6.213 3.633 6.213s-4.134.84-7.098-1.21c-2.964-2.05-3.633-6.212-3.633-6.212s4.134-.841 7.098 1.21zm0 11.657c2.964 2.05 3.633 6.213 3.633 6.213s-4.134.84-7.098-1.21c-2.964-2.05-3.633-6.212-3.633-6.212s4.134-.841 7.098 1.21zm7.694 11.606c-2.964 2.05-3.632 6.213-3.632 6.213s4.134.841 7.098-1.21c2.964-2.05 3.633-6.212 3.633-6.212s-4.135-.841-7.099 1.21zm-7.694 0c2.964 2.05 3.633 6.213 3.633 6.213s-4.134.841-7.098-1.21c-2.964-2.05-3.633-6.212-3.633-6.212s4.134-.841 7.098 1.21zm35.031 23.15V14.74m-3.048-6.242c0 3.604 3.042 6.524 3.042 6.524s3.043-2.92 3.043-6.524c0-3.605-3.043-6.525-3.043-6.525s-3.042 2.92-3.042 6.525zm7.11 7.086c-2.964 2.05-3.633 6.213-3.633 6.213s4.134.84 7.098-1.21c2.965-2.05 3.633-6.212 3.633-6.212s-4.134-.841-7.098 1.21zm0 11.657c-2.964 2.05-3.633 6.213-3.633 6.213s4.134.84 7.098-1.21c2.965-2.05 3.633-6.212 3.633-6.212s-4.134-.841-7.098 1.21zm-7.695-11.657c2.965 2.05 3.633 6.213 3.633 6.213s-4.134.84-7.098-1.21c-2.964-2.05-3.633-6.212-3.633-6.212s4.134-.841 7.099 1.21zm0 11.657c2.965 2.05 3.633 6.213 3.633 6.213s-4.134.84-7.098-1.21c-2.964-2.05-3.633-6.212-3.633-6.212s4.134-.841 7.099 1.21zm7.695 11.606c-2.964 2.05-3.633 6.213-3.633 6.213s4.134.841 7.098-1.21c2.965-2.05 3.633-6.212 3.633-6.212s-4.134-.841-7.098 1.21zm-7.695 0c2.965 2.05 3.633 6.213 3.633 6.213s-4.134.841-7.098-1.21c-2.964-2.05-3.633-6.212-3.633-6.212s4.134-.841 7.099 1.21z" stroke="#00A79E" stroke-width="2.837" stroke-miterlimit="10" stroke-linecap="round" stroke-linejoin="round"/><path d="M3.688 62.274h47.68m-47.68 7.713H34.54" stroke="#00A79E" stroke-width="2.837" stroke-linecap="round" stroke-linejoin="round"/></svg>