<svg xmlns="http://www.w3.org/2000/svg" xmlns:xlink="http://www.w3.org/1999/xlink"><symbol id="arrow-link" viewBox="0 0 66 10"><path d="M64.82 5.569a.66.66 0 000-.934L60.618.434a.66.66 0 10-.933.934l3.734 3.734-3.734 3.734a.66.66 0 10.933.934l4.202-4.2zM.94 5.762h63.413v-1.32H.94v1.32z"/></symbol><symbol id="company" viewBox="0 0 25 25"><path d="M14.362 9.527l9 1.79c.73.15 1.22.77 1.22 1.49v10.41c0 .85-.68 1.53-1.53 1.53h-9.19a.5.5 0 00.51-.51v-.51h8.68c.28 0 .51-.22.51-.51v-10.41c0-.23-.16-.45-.4-.5l-8.79-1.74v-1.04h-.01z"/><path d="M19.982 14.537a.5.5 0 01.51.51.5.5 0 01-.51.51h-2.04a.5.5 0 01-.51-.51.5.5 0 01.51-.51h2.04zm0 3.069a.5.5 0 01.51.51.5.5 0 01-.51.51h-2.04a.5.5 0 01-.51-.51.5.5 0 01.51-.51h2.04zm0 3.06a.5.5 0 01.51.51.5.5 0 01-.51.51h-2.04a.5.5 0 01-.51-.51.5.5 0 01.51-.51h2.04zm-5.62 3.581a.5.5 0 01-.51.51.5.5 0 01-.51-.51v-14.3c0-.15.07-.3.18-.4.12-.09.28-.13.43-.1l.41.08v14.72z"/><path d="M13.342 23.727v.51c0 .29.22.51.51.51h-4.09a.5.5 0 00.51-.51v-.51h3.07zm-2.56-18.38a.5.5 0 01.51.51.5.5 0 01-.51.51h-2.04a.5.5 0 01-.51-.51.5.5 0 01.51-.51h2.04zm.51 3.58a.5.5 0 01-.51.51h-2.04a.5.5 0 01-.51-.51.5.5 0 01.51-.51h2.04a.5.5 0 01.51.51zm-.51 2.55a.5.5 0 01.51.51.5.5 0 01-.51.51h-2.04a.5.5 0 01-.51-.51.5.5 0 01.51-.51h2.04zm0 3.06a.5.5 0 01.51.51.5.5 0 01-.51.51h-2.04a.5.5 0 01-.51-.51.5.5 0 01.51-.51h2.04zm-4.59.51a.5.5 0 01-.51.51h-2.04a.5.5 0 01-.51-.51.5.5 0 01.51-.51h2.04c.28 0 .51.23.51.51zm-.51-9.7a.5.5 0 01.51.51.5.5 0 01-.51.51h-2.04a.5.5 0 01-.51-.51.5.5 0 01.51-.51h2.04zm0 3.069a.5.5 0 01.51.51.5.5 0 01-.51.51h-2.04a.5.5 0 01-.51-.51.5.5 0 01.51-.51h2.04zm0 3.061a.5.5 0 01.51.51.5.5 0 01-.51.51h-2.04a.5.5 0 01-.51-.51.5.5 0 01.51-.51h2.04z"/><path d="M9.252 19.136c0-.29-.23-.51-.51-.51h-3.06a.5.5 0 00-.51.51v4.6h-1.02v-4.6c0-.85.68-1.53 1.53-1.53h3.06c.85 0 1.53.68 1.53 1.53v4.6h-1.02v-4.6z"/><path d="M5.172 23.727h5.11v.51a.5.5 0 01-.51.51h-5.11a.5.5 0 01-.51-.51v-.51h1.02z"/><path d="M1.852.447l11.22 1.71c.75.12 1.29.76 1.29 1.51v5.86l-.41-.08a.548.548 0 00-.43.1c-.11.1-.18.25-.18.4v-6.28c0-.26-.18-.47-.43-.51l-11.22-1.7c-.03-.01-.06-.01-.09-.01-.12 0-.23.04-.33.12-.12.1-.18.23-.18.39v21.26c0 .29.23.51.51.51h2.55v.51c0 .29.22.51.51.51h-3.06c-.85 0-1.53-.68-1.53-1.53V1.957c0-.45.19-.88.54-1.16.34-.3.79-.42 1.24-.35z"/></symbol><symbol id="person" viewBox="0 0 28 29"><path d="M18.09 14.517c2.1-1.35 3.5-3.7 3.5-6.37 0-4.17-3.4-7.57-7.57-7.57s-7.57 3.39-7.57 7.57c0 2.67 1.4 5.02 3.5 6.37-5.68 1.74-9.83 7.04-9.83 13.28 0 .5.41.9.91.9s.9-.4.9-.9c0-6.66 5.42-12.09 12.09-12.09s12.09 5.42 12.09 12.09c0 .5.4.9.9.9s.91-.4.91-.9c0-6.25-4.14-11.54-9.83-13.28zm-9.82-6.37c0-3.18 2.58-5.76 5.76-5.76 3.17 0 5.76 2.58 5.76 5.76 0 3.18-2.58 5.76-5.76 5.76-3.18-.01-5.76-2.59-5.76-5.76z"/></symbol></svg>