<svg xmlns="http://www.w3.org/2000/svg" xmlns:xlink="http://www.w3.org/1999/xlink"><symbol id="arrow-link" viewBox="0 0 66 10"><path d="M64.82 5.569a.66.66 0 000-.934L60.618.434a.66.66 0 10-.933.934l3.734 3.734-3.734 3.734a.66.66 0 10.933.934l4.202-4.2zM.94 5.762h63.413v-1.32H.94v1.32z"/></symbol><symbol id="arrow-next-icon" viewBox="0 0 143 8"><path d="M142.354 4.354a.5.5 0 000-.708L139.172.464a.501.501 0 00-.708.708L141.293 4l-2.829 2.828a.5.5 0 00.708.708l3.182-3.182zM0 4.5h142v-1H0v1z" fill="#979797"/></symbol><symbol id="cart" viewBox="0 0 20 20"><path fill-rule="evenodd" clip-rule="evenodd" d="M3.484 1.667H.834A.833.833 0 01.833 0h3.333c.397 0 .739.28.817.67l.7 3.497h13.483c.522 0 .916.476.818.99l-1.334 6.997a2.496 2.496 0 01-2.484 2.013H8.083a2.5 2.5 0 01-2.5-2.012L4.19 5.2a.828.828 0 01-.014-.07l-.693-3.462zM5.834 17.5c0 1.001.665 1.668 1.665 1.668.999 0 1.665-.667 1.665-1.668 0-1-.666-1.668-1.665-1.668-1 0-1.666.667-1.666 1.668zm9.166 0c0 1 .666 1.667 1.665 1.667 1 0 1.666-.667 1.666-1.667s-.666-1.667-1.666-1.667c-.999 0-1.665.667-1.665 1.667zm-7.783-5.67l-1.2-5.997H18.16l-1.144 6.003a.832.832 0 01-.832.664H8.067a.838.838 0 01-.85-.67z"/><mask id="mask0" maskUnits="userSpaceOnUse" x="0" y="0" width="21" height="20"><path fill-rule="evenodd" clip-rule="evenodd" d="M3.484 1.667H.834A.833.833 0 01.833 0h3.333c.397 0 .739.28.817.67l.7 3.497h13.483c.522 0 .916.476.818.99l-1.334 6.997a2.496 2.496 0 01-2.484 2.013H8.083a2.5 2.5 0 01-2.5-2.012L4.19 5.2a.828.828 0 01-.014-.07l-.693-3.462zM5.834 17.5c0 1.001.665 1.668 1.665 1.668.999 0 1.665-.667 1.665-1.668 0-1-.666-1.668-1.665-1.668-1 0-1.666.667-1.666 1.668zm9.166 0c0 1 .666 1.667 1.665 1.667 1 0 1.666-.667 1.666-1.667s-.666-1.667-1.666-1.667c-.999 0-1.665.667-1.665 1.667zm-7.783-5.67l-1.2-5.997H18.16l-1.144 6.003a.832.832 0 01-.832.664H8.067a.838.838 0 01-.85-.67z"/></mask></symbol><symbol id="chevron-down" viewBox="0 0 24 24"><path d="M18.7 9.7l-6 6c-.2.2-.4.3-.7.3-.3 0-.5-.1-.7-.3l-6-6c-.4-.4-.4-1 0-1.4.4-.4 1-.4 1.4 0l5.3 5.3 5.3-5.3c.4-.4 1-.4 1.4 0 .4.4.4 1 0 1.4z"/><mask id="mask0" maskUnits="userSpaceOnUse" x="5" y="8" width="14" height="8"><path d="M18.7 9.7l-6 6c-.2.2-.4.3-.7.3-.3 0-.5-.1-.7-.3l-6-6c-.4-.4-.4-1 0-1.4.4-.4 1-.4 1.4 0l5.3 5.3 5.3-5.3c.4-.4 1-.4 1.4 0 .4.4.4 1 0 1.4z"/></mask></symbol><symbol id="chevron-left" viewBox="0 0 46 46"><path d="M30.092 33.158c.766.767.766 1.917 0 2.684-.384.383-.767.575-1.342.575-.575 0-.958-.192-1.342-.575l-11.5-11.5c-.766-.767-.766-1.917 0-2.684l11.5-11.5c.767-.766 1.917-.766 2.684 0 .766.767.766 1.917 0 2.684L19.933 23l10.159 10.158z"/><mask id="mask0" maskUnits="userSpaceOnUse" x="15" y="9" width="16" height="28"><path d="M30.092 33.158c.766.767.766 1.917 0 2.684-.384.383-.767.575-1.342.575-.575 0-.958-.192-1.342-.575l-11.5-11.5c-.766-.767-.766-1.917 0-2.684l11.5-11.5c.767-.766 1.917-.766 2.684 0 .766.767.766 1.917 0 2.684L19.933 23l10.159 10.158z"/></mask></symbol><symbol id="chevron-right" viewBox="0 0 46 46"><path d="M30.092 24.342l-11.5 11.5c-.384.383-.767.575-1.342.575-.575 0-.958-.192-1.342-.575-.766-.767-.766-1.917 0-2.684L26.067 23 15.908 12.842c-.766-.767-.766-1.917 0-2.684.767-.766 1.917-.766 2.684 0l11.5 11.5c.766.767.766 1.917 0 2.684z"/><mask id="mask0" maskUnits="userSpaceOnUse" x="15" y="9" width="16" height="28"><path d="M30.092 24.342l-11.5 11.5c-.384.383-.767.575-1.342.575-.575 0-.958-.192-1.342-.575-.766-.767-.766-1.917 0-2.684L26.067 23 15.908 12.842c-.766-.767-.766-1.917 0-2.684.767-.766 1.917-.766 2.684 0l11.5 11.5c.766.767.766 1.917 0 2.684z"/></mask></symbol><symbol id="company" viewBox="0 0 25 25"><path d="M14.362 9.527l9 1.79c.73.15 1.22.77 1.22 1.49v10.41c0 .85-.68 1.53-1.53 1.53h-9.19a.5.5 0 00.51-.51v-.51h8.68c.28 0 .51-.22.51-.51v-10.41c0-.23-.16-.45-.4-.5l-8.79-1.74v-1.04h-.01z"/><path d="M19.982 14.537a.5.5 0 01.51.51.5.5 0 01-.51.51h-2.04a.5.5 0 01-.51-.51.5.5 0 01.51-.51h2.04zm0 3.069a.5.5 0 01.51.51.5.5 0 01-.51.51h-2.04a.5.5 0 01-.51-.51.5.5 0 01.51-.51h2.04zm0 3.06a.5.5 0 01.51.51.5.5 0 01-.51.51h-2.04a.5.5 0 01-.51-.51.5.5 0 01.51-.51h2.04zm-5.62 3.581a.5.5 0 01-.51.51.5.5 0 01-.51-.51v-14.3c0-.15.07-.3.18-.4.12-.09.28-.13.43-.1l.41.08v14.72z"/><path d="M13.342 23.727v.51c0 .29.22.51.51.51h-4.09a.5.5 0 00.51-.51v-.51h3.07zm-2.56-18.38a.5.5 0 01.51.51.5.5 0 01-.51.51h-2.04a.5.5 0 01-.51-.51.5.5 0 01.51-.51h2.04zm.51 3.58a.5.5 0 01-.51.51h-2.04a.5.5 0 01-.51-.51.5.5 0 01.51-.51h2.04a.5.5 0 01.51.51zm-.51 2.55a.5.5 0 01.51.51.5.5 0 01-.51.51h-2.04a.5.5 0 01-.51-.51.5.5 0 01.51-.51h2.04zm0 3.06a.5.5 0 01.51.51.5.5 0 01-.51.51h-2.04a.5.5 0 01-.51-.51.5.5 0 01.51-.51h2.04zm-4.59.51a.5.5 0 01-.51.51h-2.04a.5.5 0 01-.51-.51.5.5 0 01.51-.51h2.04c.28 0 .51.23.51.51zm-.51-9.7a.5.5 0 01.51.51.5.5 0 01-.51.51h-2.04a.5.5 0 01-.51-.51.5.5 0 01.51-.51h2.04zm0 3.069a.5.5 0 01.51.51.5.5 0 01-.51.51h-2.04a.5.5 0 01-.51-.51.5.5 0 01.51-.51h2.04zm0 3.061a.5.5 0 01.51.51.5.5 0 01-.51.51h-2.04a.5.5 0 01-.51-.51.5.5 0 01.51-.51h2.04z"/><path d="M9.252 19.136c0-.29-.23-.51-.51-.51h-3.06a.5.5 0 00-.51.51v4.6h-1.02v-4.6c0-.85.68-1.53 1.53-1.53h3.06c.85 0 1.53.68 1.53 1.53v4.6h-1.02v-4.6z"/><path d="M5.172 23.727h5.11v.51a.5.5 0 01-.51.51h-5.11a.5.5 0 01-.51-.51v-.51h1.02z"/><path d="M1.852.447l11.22 1.71c.75.12 1.29.76 1.29 1.51v5.86l-.41-.08a.548.548 0 00-.43.1c-.11.1-.18.25-.18.4v-6.28c0-.26-.18-.47-.43-.51l-11.22-1.7c-.03-.01-.06-.01-.09-.01-.12 0-.23.04-.33.12-.12.1-.18.23-.18.39v21.26c0 .29.23.51.51.51h2.55v.51c0 .29.22.51.51.51h-3.06c-.85 0-1.53-.68-1.53-1.53V1.957c0-.45.19-.88.54-1.16.34-.3.79-.42 1.24-.35z"/></symbol><symbol id="compass" viewBox="0 0 12 12"><path fill-rule="evenodd" clip-rule="evenodd" d="M.5 6C.5 2.95 2.95.5 6 .5s5.5 2.45 5.5 5.5-2.45 5.5-5.5 5.5S.5 9.05.5 6zm1 0c0 2.5 2 4.5 4.5 4.5s4.5-2 4.5-4.5-2-4.5-4.5-4.5-4.5 2-4.5 4.5zm6.45-2.6L4.8 4.45c-.15.05-.3.2-.35.35L3.4 8c-.05.2 0 .4.1.5.1.1.2.15.35.15.05 0 .1 0 .15-.05l3.2-1.05a.45.45 0 00.3-.3l1.05-3.2c.05-.2 0-.4-.1-.5-.1-.15-.3-.2-.5-.15zm-3.3 3.9l2-.65.65-2-2 .65-.65 2z"/><mask id="mask0" maskUnits="userSpaceOnUse" x="0" y="0" width="12" height="12"><path fill-rule="evenodd" clip-rule="evenodd" d="M.5 6C.5 2.95 2.95.5 6 .5s5.5 2.45 5.5 5.5-2.45 5.5-5.5 5.5S.5 9.05.5 6zm1 0c0 2.5 2 4.5 4.5 4.5s4.5-2 4.5-4.5-2-4.5-4.5-4.5-4.5 2-4.5 4.5zm6.45-2.6L4.8 4.45c-.15.05-.3.2-.35.35L3.4 8c-.05.2 0 .4.1.5.1.1.2.15.35.15.05 0 .1 0 .15-.05l3.2-1.05a.45.45 0 00.3-.3l1.05-3.2c.05-.2 0-.4-.1-.5-.1-.15-.3-.2-.5-.15zm-3.3 3.9l2-.65.65-2-2 .65-.65 2z"/></mask></symbol><symbol id="globe" viewBox="0 0 10 10"><path fill-rule="evenodd" clip-rule="evenodd" d="M5 .417A4.57 4.57 0 00.417 5 4.57 4.57 0 005 9.583 4.57 4.57 0 009.584 5 4.57 4.57 0 005 .417zm3.71 4.166H7.042a6.336 6.336 0 00-1.125-3.208 3.735 3.735 0 012.792 3.208zm-2.459.834H3.792A5.317 5.317 0 005.042 8.5c.667-.875 1.083-1.958 1.208-3.083zm-2.458-.834C3.917 3.458 4.334 2.375 5 1.5c.709.917 1.125 2 1.209 3.083H3.792zm-.833 0a6.7 6.7 0 011.083-3.208c-1.458.375-2.583 1.667-2.75 3.208H2.96zm-1.667.834H2.96a6.337 6.337 0 001.125 3.208 3.735 3.735 0 01-2.792-3.208zm5.792 0A7.226 7.226 0 015.96 8.625c1.457-.375 2.582-1.667 2.79-3.208H7.084z"/><mask id="mask0" maskUnits="userSpaceOnUse" x="0" y="0" width="10" height="10"><path fill-rule="evenodd" clip-rule="evenodd" d="M5 .417A4.57 4.57 0 00.417 5 4.57 4.57 0 005 9.583 4.57 4.57 0 009.584 5 4.57 4.57 0 005 .417zm3.71 4.166H7.042a6.336 6.336 0 00-1.125-3.208 3.735 3.735 0 012.792 3.208zm-2.459.834H3.792A5.317 5.317 0 005.042 8.5c.667-.875 1.083-1.958 1.208-3.083zm-2.458-.834C3.917 3.458 4.334 2.375 5 1.5c.709.917 1.125 2 1.209 3.083H3.792zm-.833 0a6.7 6.7 0 011.083-3.208c-1.458.375-2.583 1.667-2.75 3.208H2.96zm-1.667.834H2.96a6.337 6.337 0 001.125 3.208 3.735 3.735 0 01-2.792-3.208zm5.792 0A7.226 7.226 0 015.96 8.625c1.457-.375 2.582-1.667 2.79-3.208H7.084z"/></mask></symbol><symbol id="home" viewBox="0 0 10 10"><path fill-rule="evenodd" clip-rule="evenodd" d="M9 3.424L5.25.51c-.167-.125-.375-.125-.5 0L1 3.424a.378.378 0 00-.167.333v4.578c0 .707.542 1.248 1.25 1.248h5.833c.709 0 1.25-.54 1.25-1.248V3.757A.378.378 0 009 3.424zM5.833 8.75H4.166V5.42h1.667v3.33zm2.083 0c.25 0 .417-.167.417-.416v-4.37L5 1.385l-3.334 2.58v4.37c0 .25.167.416.417.416h1.25V5.005c0-.25.167-.416.417-.416h2.5c.25 0 .416.166.416.416v3.746h1.25z"/><mask id="mask0" maskUnits="userSpaceOnUse" x="0" y="0" width="10" height="10"><path fill-rule="evenodd" clip-rule="evenodd" d="M9 3.424L5.25.51c-.167-.125-.375-.125-.5 0L1 3.424a.378.378 0 00-.167.333v4.578c0 .707.542 1.248 1.25 1.248h5.833c.709 0 1.25-.54 1.25-1.248V3.757A.378.378 0 009 3.424zM5.833 8.75H4.166V5.42h1.667v3.33zm2.083 0c.25 0 .417-.167.417-.416v-4.37L5 1.385l-3.334 2.58v4.37c0 .25.167.416.417.416h1.25V5.005c0-.25.167-.416.417-.416h2.5c.25 0 .416.166.416.416v3.746h1.25z"/></mask></symbol><symbol id="logo" viewBox="0 0 323 41"><path d="M174.026 16.7h2.565c.666 0 1.254.135 1.764.405.51.264.906.636 1.188 1.116.282.474.423 1.017.423 1.629 0 .612-.141 1.158-.423 1.638a2.962 2.962 0 01-1.188 1.116c-.51.264-1.098.396-1.764.396h-2.565v-6.3zm2.529 5.724c.552 0 1.035-.108 1.449-.324.414-.222.735-.525.963-.909.228-.39.342-.837.342-1.341s-.114-.948-.342-1.332a2.347 2.347 0 00-.963-.909c-.414-.222-.897-.333-1.449-.333h-1.863v5.148h1.863zm8.894-1.593h-3.96c.036.492.225.891.567 1.197.342.3.774.45 1.296.45.294 0 .564-.051.81-.153.246-.108.459-.264.639-.468l.36.414a2.02 2.02 0 01-.792.576 2.63 2.63 0 01-1.035.198c-.486 0-.918-.102-1.296-.306a2.279 2.279 0 01-.873-.864 2.45 2.45 0 01-.315-1.242c0-.462.099-.876.297-1.242.204-.366.48-.651.828-.855.354-.204.75-.306 1.188-.306.438 0 .831.102 1.179.306.348.204.621.489.819.855.198.36.297.774.297 1.242l-.009.198zm-2.286-2.052c-.456 0-.84.147-1.152.441-.306.288-.48.666-.522 1.134h3.357c-.042-.468-.219-.846-.531-1.134-.306-.294-.69-.441-1.152-.441zm5.557 4.266c-.468 0-.888-.102-1.26-.306a2.232 2.232 0 01-.864-.855 2.5 2.5 0 01-.315-1.251c0-.462.105-.876.315-1.242.21-.366.498-.651.864-.855a2.577 2.577 0 011.26-.306c.408 0 .771.081 1.089.243.324.156.579.387.765.693l-.477.324a1.459 1.459 0 00-.594-.522c-.24-.12-.501-.18-.783-.18a1.85 1.85 0 00-.927.234 1.62 1.62 0 00-.639.648c-.15.282-.225.603-.225.963 0 .366.075.69.225.972a1.7 1.7 0 00.639.648c.276.15.585.225.927.225.282 0 .543-.057.783-.171.24-.114.438-.288.594-.522l.477.324a1.84 1.84 0 01-.765.702 2.478 2.478 0 01-1.089.234zm7.152-2.214h-3.96c.036.492.225.891.567 1.197.342.3.774.45 1.296.45.294 0 .564-.051.81-.153.246-.108.459-.264.639-.468l.36.414a2.02 2.02 0 01-.792.576 2.63 2.63 0 01-1.035.198c-.486 0-.918-.102-1.296-.306a2.279 2.279 0 01-.873-.864 2.45 2.45 0 01-.315-1.242c0-.462.099-.876.297-1.242.204-.366.48-.651.828-.855.354-.204.75-.306 1.188-.306.438 0 .831.102 1.179.306.348.204.621.489.819.855.198.36.297.774.297 1.242l-.009.198zm-2.286-2.052c-.456 0-.84.147-1.152.441-.306.288-.48.666-.522 1.134h3.357c-.042-.468-.219-.846-.531-1.134-.306-.294-.69-.441-1.152-.441zm6.008-.549c.594 0 1.065.174 1.413.522.354.342.531.843.531 1.503V23h-.639v-2.682c0-.492-.123-.867-.369-1.125s-.597-.387-1.053-.387c-.51 0-.915.153-1.215.459-.294.3-.441.717-.441 1.251V23h-.639v-4.734h.612v.873c.174-.288.414-.51.72-.666a2.31 2.31 0 011.08-.243zm6.172 4.482c-.12.108-.27.192-.45.252a1.842 1.842 0 01-.549.081c-.444 0-.786-.12-1.026-.36s-.36-.579-.36-1.017v-2.862h-.846v-.54h.846v-1.035h.639v1.035h1.44v.54h-1.44v2.826c0 .282.069.498.207.648.144.144.348.216.612.216.132 0 .258-.021.378-.063a.944.944 0 00.324-.18l.225.459zm1.775-3.519c.15-.318.372-.558.666-.72.3-.162.669-.243 1.107-.243v.621l-.153-.009c-.498 0-.888.153-1.17.459-.282.306-.423.735-.423 1.287V23h-.639v-4.734h.612v.927zm4.577-.963c.618 0 1.092.156 1.422.468.33.306.495.762.495 1.368V23h-.612v-.738a1.46 1.46 0 01-.639.576c-.276.138-.606.207-.99.207-.528 0-.948-.126-1.26-.378a1.22 1.22 0 01-.468-.999c0-.402.144-.726.432-.972.294-.246.759-.369 1.395-.369h1.503v-.288c0-.408-.114-.717-.342-.927-.228-.216-.561-.324-.999-.324-.3 0-.588.051-.864.153a2.116 2.116 0 00-.711.405l-.288-.477c.24-.204.528-.36.864-.468.336-.114.69-.171 1.062-.171zm-.225 4.311c.36 0 .669-.081.927-.243.258-.168.45-.408.576-.72v-.774h-1.485c-.81 0-1.215.282-1.215.846 0 .276.105.495.315.657.21.156.504.234.882.234zm3.878-6.219h.639V23h-.639v-6.678zm2.417 1.944h.639V23h-.639v-4.734zm.324-1.035a.452.452 0 01-.333-.135.442.442 0 010-.639.452.452 0 01.333-.135c.132 0 .243.045.333.135.09.084.135.186.135.306a.452.452 0 01-.135.333.452.452 0 01-.333.135zm5.432 5.238V23h-3.852v-.423l2.979-3.771h-2.925v-.54h3.744v.423l-2.979 3.78h3.033zm2.914-4.239c.618 0 1.092.156 1.422.468.33.306.495.762.495 1.368V23h-.612v-.738a1.46 1.46 0 01-.639.576c-.276.138-.606.207-.99.207-.528 0-.948-.126-1.26-.378a1.22 1.22 0 01-.468-.999c0-.402.144-.726.432-.972.294-.246.759-.369 1.395-.369h1.503v-.288c0-.408-.114-.717-.342-.927-.228-.216-.561-.324-.999-.324-.3 0-.588.051-.864.153a2.116 2.116 0 00-.711.405l-.288-.477c.24-.204.528-.36.864-.468.336-.114.69-.171 1.062-.171zm-.225 4.311c.36 0 .669-.081.927-.243.258-.168.45-.408.576-.72v-.774h-1.485c-.81 0-1.215.282-1.215.846 0 .276.105.495.315.657.21.156.504.234.882.234zm6.37.171c-.12.108-.27.192-.45.252a1.842 1.842 0 01-.549.081c-.444 0-.786-.12-1.026-.36s-.36-.579-.36-1.017v-2.862h-.846v-.54h.846v-1.035h.639v1.035h1.44v.54h-1.44v2.826c0 .282.069.498.207.648.144.144.348.216.612.216.132 0 .258-.021.378-.063a.944.944 0 00.324-.18l.225.459zm1.163-4.446h.639V23h-.639v-4.734zm.324-1.035a.452.452 0 01-.333-.135.442.442 0 010-.639.452.452 0 01.333-.135c.132 0 .243.045.333.135.09.084.135.186.135.306a.452.452 0 01-.135.333.452.452 0 01-.333.135zm4.028 5.814c-.456 0-.867-.102-1.233-.306a2.297 2.297 0 01-.864-.864 2.45 2.45 0 01-.315-1.242c0-.462.105-.876.315-1.242.21-.366.498-.651.864-.855a2.489 2.489 0 011.233-.306c.456 0 .867.102 1.233.306.366.204.651.489.855.855.21.366.315.78.315 1.242 0 .462-.105.876-.315 1.242a2.232 2.232 0 01-.855.864 2.489 2.489 0 01-1.233.306zm0-.567c.336 0 .636-.075.9-.225.27-.156.48-.375.63-.657.15-.282.225-.603.225-.963s-.075-.681-.225-.963a1.562 1.562 0 00-.63-.648 1.735 1.735 0 00-.9-.234c-.336 0-.639.078-.909.234-.264.15-.474.366-.63.648-.15.282-.225.603-.225.963s.075.681.225.963c.156.282.366.501.63.657.27.15.573.225.909.225zm6.12-4.248c.594 0 1.065.174 1.413.522.354.342.531.843.531 1.503V23h-.639v-2.682c0-.492-.123-.867-.369-1.125s-.597-.387-1.053-.387c-.51 0-.915.153-1.215.459-.294.3-.441.717-.441 1.251V23h-.639v-4.734h.612v.873c.174-.288.414-.51.72-.666a2.31 2.31 0 011.08-.243zm6.169-1.53h2.565c.666 0 1.254.135 1.764.405.51.264.906.636 1.188 1.116.282.474.423 1.017.423 1.629 0 .612-.141 1.158-.423 1.638a2.962 2.962 0 01-1.188 1.116c-.51.264-1.098.396-1.764.396h-2.565v-6.3zm2.529 5.724c.552 0 1.035-.108 1.449-.324.414-.222.735-.525.963-.909.228-.39.342-.837.342-1.341s-.114-.948-.342-1.332a2.347 2.347 0 00-.963-.909c-.414-.222-.897-.333-1.449-.333h-1.863v5.148h1.863zm6.428-4.194c.618 0 1.092.156 1.422.468.33.306.495.762.495 1.368V23h-.612v-.738a1.46 1.46 0 01-.639.576c-.276.138-.606.207-.99.207-.528 0-.948-.126-1.26-.378a1.22 1.22 0 01-.468-.999c0-.402.144-.726.432-.972.294-.246.759-.369 1.395-.369h1.503v-.288c0-.408-.114-.717-.342-.927-.228-.216-.561-.324-.999-.324-.3 0-.588.051-.864.153a2.116 2.116 0 00-.711.405l-.288-.477c.24-.204.528-.36.864-.468.336-.114.69-.171 1.062-.171zm-.225 4.311c.36 0 .669-.081.927-.243.258-.168.45-.408.576-.72v-.774h-1.485c-.81 0-1.215.282-1.215.846 0 .276.105.495.315.657.21.156.504.234.882.234zm6.37.171c-.12.108-.27.192-.45.252a1.842 1.842 0 01-.549.081c-.444 0-.786-.12-1.026-.36s-.36-.579-.36-1.017v-2.862h-.846v-.54h.846v-1.035h.639v1.035h1.44v.54h-1.44v2.826c0 .282.069.498.207.648.144.144.348.216.612.216.132 0 .258-.021.378-.063a.944.944 0 00.324-.18l.225.459zm2.82-4.482c.618 0 1.092.156 1.422.468.33.306.495.762.495 1.368V23h-.612v-.738a1.46 1.46 0 01-.639.576c-.276.138-.606.207-.99.207-.528 0-.948-.126-1.26-.378a1.22 1.22 0 01-.468-.999c0-.402.144-.726.432-.972.294-.246.759-.369 1.395-.369h1.503v-.288c0-.408-.114-.717-.342-.927-.228-.216-.561-.324-.999-.324-.3 0-.588.051-.864.153a2.116 2.116 0 00-.711.405l-.288-.477c.24-.204.528-.36.864-.468.336-.114.69-.171 1.062-.171zm-.225 4.311c.36 0 .669-.081.927-.243.258-.168.45-.408.576-.72v-.774h-1.485c-.81 0-1.215.282-1.215.846 0 .276.105.495.315.657.21.156.504.234.882.234zm10.823-.117V23h-4.455v-6.3h4.32v.576h-3.654v2.241h3.258v.567h-3.258v2.34h3.789zm3.322.621c-.468 0-.888-.102-1.26-.306a2.232 2.232 0 01-.864-.855 2.5 2.5 0 01-.315-1.251c0-.462.105-.876.315-1.242.21-.366.498-.651.864-.855a2.577 2.577 0 011.26-.306c.408 0 .771.081 1.089.243.324.156.579.387.765.693l-.477.324a1.459 1.459 0 00-.594-.522c-.24-.12-.501-.18-.783-.18a1.85 1.85 0 00-.927.234 1.62 1.62 0 00-.639.648c-.15.282-.225.603-.225.963 0 .366.075.69.225.972a1.7 1.7 0 00.639.648c.276.15.585.225.927.225.282 0 .543-.057.783-.171.24-.114.438-.288.594-.522l.477.324a1.84 1.84 0 01-.765.702 2.478 2.478 0 01-1.089.234zm4.965 0c-.456 0-.867-.102-1.233-.306a2.297 2.297 0 01-.864-.864 2.45 2.45 0 01-.315-1.242c0-.462.105-.876.315-1.242.21-.366.498-.651.864-.855a2.489 2.489 0 011.233-.306c.456 0 .867.102 1.233.306.366.204.651.489.855.855.21.366.315.78.315 1.242 0 .462-.105.876-.315 1.242a2.232 2.232 0 01-.855.864 2.489 2.489 0 01-1.233.306zm0-.567c.336 0 .636-.075.9-.225.27-.156.48-.375.63-.657.15-.282.225-.603.225-.963s-.075-.681-.225-.963a1.562 1.562 0 00-.63-.648 1.735 1.735 0 00-.9-.234c-.336 0-.639.078-.909.234-.264.15-.474.366-.63.648-.15.282-.225.603-.225.963s.075.681.225.963c.156.282.366.501.63.657.27.15.573.225.909.225zm4.977.567c-.384 0-.753-.054-1.107-.162-.348-.114-.621-.255-.819-.423l.288-.504c.198.156.447.285.747.387.3.096.612.144.936.144.432 0 .75-.066.954-.198a.653.653 0 00.315-.576.5.5 0 00-.171-.405 1.058 1.058 0 00-.432-.225 5.447 5.447 0 00-.693-.153 8.76 8.76 0 01-.927-.216 1.431 1.431 0 01-.603-.387c-.162-.18-.243-.429-.243-.747 0-.396.165-.72.495-.972.33-.252.789-.378 1.377-.378.306 0 .612.042.918.126.306.078.558.183.756.315l-.279.513c-.39-.27-.855-.405-1.395-.405-.408 0-.717.072-.927.216a.664.664 0 00-.306.567c0 .18.057.324.171.432.12.108.267.189.441.243.174.048.414.099.72.153.378.072.681.144.909.216.228.072.423.195.585.369.162.174.243.414.243.72 0 .414-.174.744-.522.99-.342.24-.819.36-1.431.36zm7.024-4.779l-2.367 5.301c-.192.444-.414.759-.666.945a1.488 1.488 0 01-.909.279c-.228 0-.441-.036-.639-.108a1.385 1.385 0 01-.513-.324l.297-.477c.24.24.528.36.864.36.216 0 .399-.06.549-.18.156-.12.3-.324.432-.612l.207-.459-2.115-4.725h.666l1.782 4.023 1.782-4.023h.63zm2.116 4.779c-.384 0-.753-.054-1.107-.162-.348-.114-.621-.255-.819-.423l.288-.504c.198.156.447.285.747.387.3.096.612.144.936.144.432 0 .75-.066.954-.198a.653.653 0 00.315-.576.5.5 0 00-.171-.405 1.058 1.058 0 00-.432-.225 5.447 5.447 0 00-.693-.153 8.76 8.76 0 01-.927-.216 1.431 1.431 0 01-.603-.387c-.162-.18-.243-.429-.243-.747 0-.396.165-.72.495-.972.33-.252.789-.378 1.377-.378.306 0 .612.042.918.126.306.078.558.183.756.315l-.279.513c-.39-.27-.855-.405-1.395-.405-.408 0-.717.072-.927.216a.664.664 0 00-.306.567c0 .18.057.324.171.432.12.108.267.189.441.243.174.048.414.099.72.153.378.072.681.144.909.216.228.072.423.195.585.369.162.174.243.414.243.72 0 .414-.174.744-.522.99-.342.24-.819.36-1.431.36zm5.628-.333c-.12.108-.27.192-.45.252a1.842 1.842 0 01-.549.081c-.444 0-.786-.12-1.026-.36s-.36-.579-.36-1.017v-2.862h-.846v-.54h.846v-1.035h.639v1.035h1.44v.54h-1.44v2.826c0 .282.069.498.207.648.144.144.348.216.612.216.132 0 .258-.021.378-.063a.944.944 0 00.324-.18l.225.459zm5.118-1.881h-3.96c.036.492.225.891.567 1.197.342.3.774.45 1.296.45.294 0 .564-.051.81-.153.246-.108.459-.264.639-.468l.36.414a2.02 2.02 0 01-.792.576 2.63 2.63 0 01-1.035.198c-.486 0-.918-.102-1.296-.306a2.279 2.279 0 01-.873-.864 2.45 2.45 0 01-.315-1.242c0-.462.099-.876.297-1.242.204-.366.48-.651.828-.855.354-.204.75-.306 1.188-.306.438 0 .831.102 1.179.306.348.204.621.489.819.855.198.36.297.774.297 1.242l-.009.198zm-2.286-2.052c-.456 0-.84.147-1.152.441-.306.288-.48.666-.522 1.134h3.357c-.042-.468-.219-.846-.531-1.134-.306-.294-.69-.441-1.152-.441zm9.5-.549c.594 0 1.059.171 1.395.513.342.342.513.846.513 1.512V23h-.639v-2.682c0-.492-.12-.867-.36-1.125-.234-.258-.567-.387-.999-.387-.492 0-.879.153-1.161.459-.282.3-.423.717-.423 1.251V23h-.639v-2.682c0-.492-.12-.867-.36-1.125-.234-.258-.57-.387-1.008-.387-.486 0-.873.153-1.161.459-.282.3-.423.717-.423 1.251V23h-.639v-4.734h.612v.864c.168-.288.402-.51.702-.666.3-.156.645-.234 1.035-.234.396 0 .738.084 1.026.252.294.168.513.417.657.747.174-.312.423-.555.747-.729.33-.18.705-.27 1.125-.27zm-144.144 11c.618 0 1.092.156 1.422.468.33.306.495.762.495 1.368V34h-.612v-.738a1.46 1.46 0 01-.639.576c-.276.138-.606.207-.99.207-.528 0-.948-.126-1.26-.378a1.22 1.22 0 01-.468-.999c0-.402.144-.726.432-.972.294-.246.759-.369 1.395-.369h1.503v-.288c0-.408-.114-.717-.342-.927-.228-.216-.561-.324-.999-.324-.3 0-.588.051-.864.153a2.116 2.116 0 00-.711.405l-.288-.477c.24-.204.528-.36.864-.468.336-.114.69-.171 1.062-.171zm-.225 4.311c.36 0 .669-.081.927-.243.258-.168.45-.408.576-.72v-.774h-1.485c-.81 0-1.215.282-1.215.846 0 .276.105.495.315.657.21.156.504.234.882.234zm6.29-4.311c.594 0 1.065.174 1.413.522.354.342.531.843.531 1.503V34h-.639v-2.682c0-.492-.123-.867-.369-1.125s-.597-.387-1.053-.387c-.51 0-.915.153-1.215.459-.294.3-.441.717-.441 1.251V34h-.639v-4.734h.612v.873c.174-.288.414-.51.72-.666a2.31 2.31 0 011.08-.243zm8.016-1.908V34h-.612v-.936a1.94 1.94 0 01-.765.729 2.204 2.204 0 01-1.062.252c-.444 0-.846-.102-1.206-.306a2.187 2.187 0 01-.846-.855 2.526 2.526 0 01-.306-1.251c0-.468.102-.885.306-1.251.204-.366.486-.648.846-.846.36-.204.762-.306 1.206-.306.384 0 .729.081 1.035.243.312.156.567.387.765.693v-2.844h.639zm-2.385 6.156c.33 0 .627-.075.891-.225.27-.156.48-.375.63-.657.156-.282.234-.603.234-.963s-.078-.681-.234-.963a1.562 1.562 0 00-.63-.648 1.718 1.718 0 00-.891-.234c-.336 0-.639.078-.909.234-.264.15-.474.366-.63.648-.15.282-.225.603-.225.963s.075.681.225.963c.156.282.366.501.63.657.27.15.573.225.909.225zm13.198-5.778V34h-.639v-5.04l-2.475 4.239h-.315l-2.475-4.212V34h-.639v-6.3h.549l2.736 4.671 2.709-4.671h.549zm3.574 1.53c.618 0 1.092.156 1.422.468.33.306.495.762.495 1.368V34h-.612v-.738a1.46 1.46 0 01-.639.576c-.276.138-.606.207-.99.207-.528 0-.948-.126-1.26-.378a1.22 1.22 0 01-.468-.999c0-.402.144-.726.432-.972.294-.246.759-.369 1.395-.369h1.503v-.288c0-.408-.114-.717-.342-.927-.228-.216-.561-.324-.999-.324-.3 0-.588.051-.864.153a2.116 2.116 0 00-.711.405l-.288-.477c.24-.204.528-.36.864-.468.336-.114.69-.171 1.062-.171zm-.225 4.311c.36 0 .669-.081.927-.243.258-.168.45-.408.576-.72v-.774h-1.485c-.81 0-1.215.282-1.215.846 0 .276.105.495.315.657.21.156.504.234.882.234zm4.489-3.348c.15-.318.372-.558.666-.72.3-.162.669-.243 1.107-.243v.621l-.153-.009c-.498 0-.888.153-1.17.459-.282.306-.423.735-.423 1.287V34h-.639v-4.734h.612v.927zm4.685 1.431l-1.116 1.026V34h-.639v-6.678h.639v4.527l2.826-2.583h.792l-2.025 1.935L215.655 34h-.783l-1.908-2.376zm7.579.207h-3.96c.036.492.225.891.567 1.197.342.3.774.45 1.296.45.294 0 .564-.051.81-.153.246-.108.459-.264.639-.468l.36.414a2.02 2.02 0 01-.792.576 2.63 2.63 0 01-1.035.198c-.486 0-.918-.102-1.296-.306a2.279 2.279 0 01-.873-.864 2.45 2.45 0 01-.315-1.242c0-.462.099-.876.297-1.242.204-.366.48-.651.828-.855.354-.204.75-.306 1.188-.306.438 0 .831.102 1.179.306.348.204.621.489.819.855.198.36.297.774.297 1.242l-.009.198zm-2.286-2.052c-.456 0-.84.147-1.152.441-.306.288-.48.666-.522 1.134h3.357c-.042-.468-.219-.846-.531-1.134-.306-.294-.69-.441-1.152-.441zm6.089 3.933c-.12.108-.27.192-.45.252a1.842 1.842 0 01-.549.081c-.444 0-.786-.12-1.026-.36s-.36-.579-.36-1.017v-2.862h-.846v-.54h.846v-1.035h.639v1.035h1.44v.54h-1.44v2.826c0 .282.069.498.207.648.144.144.348.216.612.216.132 0 .258-.021.378-.063a.944.944 0 00.324-.18l.225.459zm3.602-4.482c.444 0 .846.102 1.206.306.36.198.642.48.846.846.204.366.306.783.306 1.251 0 .474-.102.894-.306 1.26a2.187 2.187 0 01-.846.855 2.428 2.428 0 01-1.206.297c-.384 0-.732-.078-1.044-.234a2.015 2.015 0 01-.756-.702v2.637h-.639v-6.48h.612v.936c.192-.312.444-.552.756-.72a2.257 2.257 0 011.071-.252zm-.045 4.248c.33 0 .63-.075.9-.225.27-.156.48-.375.63-.657.156-.282.234-.603.234-.963s-.078-.678-.234-.954a1.621 1.621 0 00-.63-.657 1.766 1.766 0 00-.9-.234c-.336 0-.639.078-.909.234a1.703 1.703 0 00-.63.657c-.15.276-.225.594-.225.954s.075.681.225.963c.156.282.366.501.63.657.27.15.573.225.909.225zm3.706-6.156h.639V34h-.639v-6.678zm4.073 1.908c.618 0 1.092.156 1.422.468.33.306.495.762.495 1.368V34h-.612v-.738a1.46 1.46 0 01-.639.576c-.276.138-.606.207-.99.207-.528 0-.948-.126-1.26-.378a1.22 1.22 0 01-.468-.999c0-.402.144-.726.432-.972.294-.246.759-.369 1.395-.369h1.503v-.288c0-.408-.114-.717-.342-.927-.228-.216-.561-.324-.999-.324-.3 0-.588.051-.864.153a2.116 2.116 0 00-.711.405l-.288-.477c.24-.204.528-.36.864-.468.336-.114.69-.171 1.062-.171zm-.225 4.311c.36 0 .669-.081.927-.243.258-.168.45-.408.576-.72v-.774h-1.485c-.81 0-1.215.282-1.215.846 0 .276.105.495.315.657.21.156.504.234.882.234zm5.857.504c-.468 0-.888-.102-1.26-.306a2.232 2.232 0 01-.864-.855 2.5 2.5 0 01-.315-1.251c0-.462.105-.876.315-1.242.21-.366.498-.651.864-.855a2.577 2.577 0 011.26-.306c.408 0 .771.081 1.089.243.324.156.579.387.765.693l-.477.324a1.459 1.459 0 00-.594-.522c-.24-.12-.501-.18-.783-.18a1.85 1.85 0 00-.927.234 1.62 1.62 0 00-.639.648c-.15.282-.225.603-.225.963 0 .366.075.69.225.972a1.7 1.7 0 00.639.648c.276.15.585.225.927.225.282 0 .543-.057.783-.171.24-.114.438-.288.594-.522l.477.324a1.84 1.84 0 01-.765.702 2.478 2.478 0 01-1.089.234zm7.152-2.214h-3.96c.036.492.225.891.567 1.197.342.3.774.45 1.296.45.294 0 .564-.051.81-.153.246-.108.459-.264.639-.468l.36.414a2.02 2.02 0 01-.792.576 2.63 2.63 0 01-1.035.198c-.486 0-.918-.102-1.296-.306a2.279 2.279 0 01-.873-.864 2.45 2.45 0 01-.315-1.242c0-.462.099-.876.297-1.242.204-.366.48-.651.828-.855.354-.204.75-.306 1.188-.306.438 0 .831.102 1.179.306.348.204.621.489.819.855.198.36.297.774.297 1.242l-.009.198zm-2.286-2.052c-.456 0-.84.147-1.152.441-.306.288-.48.666-.522 1.134h3.357c-.042-.468-.219-.846-.531-1.134-.306-.294-.69-.441-1.152-.441zm8.444-2.079c.804 0 1.434.192 1.89.576.456.384.684.912.684 1.584s-.228 1.2-.684 1.584c-.456.378-1.086.567-1.89.567h-1.692V34h-.666v-6.3h2.358zm-.018 3.726c.624 0 1.101-.135 1.431-.405.33-.276.495-.663.495-1.161 0-.51-.165-.9-.495-1.17-.33-.276-.807-.414-1.431-.414h-1.674v3.15h1.674zm3.985-4.104h.639V34h-.639v-6.678zm4.073 1.908c.618 0 1.092.156 1.422.468.33.306.495.762.495 1.368V34h-.612v-.738a1.46 1.46 0 01-.639.576c-.276.138-.606.207-.99.207-.528 0-.948-.126-1.26-.378a1.22 1.22 0 01-.468-.999c0-.402.144-.726.432-.972.294-.246.759-.369 1.395-.369h1.503v-.288c0-.408-.114-.717-.342-.927-.228-.216-.561-.324-.999-.324-.3 0-.588.051-.864.153a2.116 2.116 0 00-.711.405l-.288-.477c.24-.204.528-.36.864-.468.336-.114.69-.171 1.062-.171zm-.225 4.311c.36 0 .669-.081.927-.243.258-.168.45-.408.576-.72v-.774h-1.485c-.81 0-1.215.282-1.215.846 0 .276.105.495.315.657.21.156.504.234.882.234zm6.371.171c-.12.108-.27.192-.45.252a1.842 1.842 0 01-.549.081c-.444 0-.786-.12-1.026-.36s-.36-.579-.36-1.017v-2.862h-.846v-.54h.846v-1.035h.639v1.035h1.44v.54h-1.44v2.826c0 .282.069.498.207.648.144.144.348.216.612.216.132 0 .258-.021.378-.063a.944.944 0 00.324-.18l.225.459zm2.729-5.895c-.276 0-.486.075-.63.225-.138.15-.207.372-.207.666v.558h1.458v.54h-1.44V34h-.639v-4.194h-.846v-.54h.846v-.585c0-.432.123-.774.369-1.026.252-.252.606-.378 1.062-.378.18 0 .354.027.522.081.168.048.309.12.423.216l-.216.477a1.055 1.055 0 00-.702-.234zm3.34 6.228c-.456 0-.867-.102-1.233-.306a2.297 2.297 0 01-.864-.864 2.45 2.45 0 01-.315-1.242c0-.462.105-.876.315-1.242.21-.366.498-.651.864-.855a2.489 2.489 0 011.233-.306c.456 0 .867.102 1.233.306.366.204.651.489.855.855.21.366.315.78.315 1.242 0 .462-.105.876-.315 1.242a2.232 2.232 0 01-.855.864 2.489 2.489 0 01-1.233.306zm0-.567c.336 0 .636-.075.9-.225.27-.156.48-.375.63-.657.15-.282.225-.603.225-.963s-.075-.681-.225-.963a1.562 1.562 0 00-.63-.648 1.735 1.735 0 00-.9-.234c-.336 0-.639.078-.909.234-.264.15-.474.366-.63.648-.15.282-.225.603-.225.963s.075.681.225.963c.156.282.366.501.63.657.27.15.573.225.909.225zm4.319-3.285c.15-.318.372-.558.666-.72.3-.162.669-.243 1.107-.243v.621l-.153-.009c-.498 0-.888.153-1.17.459-.282.306-.423.735-.423 1.287V34h-.639v-4.734h.612v.927zm8.834-.963c.594 0 1.059.171 1.395.513.342.342.513.846.513 1.512V34h-.639v-2.682c0-.492-.12-.867-.36-1.125-.234-.258-.567-.387-.999-.387-.492 0-.879.153-1.161.459-.282.3-.423.717-.423 1.251V34h-.639v-2.682c0-.492-.12-.867-.36-1.125-.234-.258-.57-.387-1.008-.387-.486 0-.873.153-1.161.459-.282.3-.423.717-.423 1.251V34h-.639v-4.734h.612v.864c.168-.288.402-.51.702-.666.3-.156.645-.234 1.035-.234.396 0 .738.084 1.026.252.294.168.513.417.657.747.174-.312.423-.555.747-.729.33-.18.705-.27 1.125-.27z" fill="#000"/><path d="M166 40V10" stroke="#E7E7E7" stroke-linecap="round"/><path d="M18.02 10.04h-.004l.004.004v-.005z" fill="#E9A23B"/><path opacity=".6" d="M18.02 10.04h-.004l.004.004v-.005z" fill="#F7D48B"/><path d="M13.762 17.426l.005.004v-.004h-.005z" fill="#E9A23B"/><path d="M62.752 9.101V33h-5.53v-9.799H46.364V33h-5.531V9.101h5.53v9.423h10.858V9.101h5.53zm5.28 5.531h5.325V33h-5.326V14.632zm2.662-2.56c-.978 0-1.775-.285-2.39-.854a2.768 2.768 0 01-.921-2.117c0-.842.307-1.548.921-2.117.615-.569 1.412-.853 2.39-.853.979 0 1.776.273 2.39.82.615.545.922 1.228.922 2.048 0 .887-.307 1.627-.922 2.219-.614.569-1.411.853-2.39.853zm25.838 2.56L88.782 33h-5.497l-7.716-18.368h5.497l5.087 12.496 5.258-12.496h5.12zm19.665 9.252c0 .069-.034.546-.102 1.434h-13.896c.251 1.138.843 2.037 1.776 2.697.933.66 2.094.99 3.482.99.956 0 1.798-.136 2.527-.41a6.34 6.34 0 002.082-1.365l2.834 3.073c-1.73 1.98-4.256 2.97-7.579 2.97-2.072 0-3.904-.398-5.497-1.195-1.593-.82-2.822-1.946-3.687-3.38-.865-1.434-1.298-3.061-1.298-4.882 0-1.798.421-3.414 1.264-4.848a8.967 8.967 0 013.516-3.38c1.502-.82 3.175-1.23 5.019-1.23 1.798 0 3.425.388 4.882 1.162a8.327 8.327 0 013.414 3.346c.842 1.433 1.263 3.106 1.263 5.018zm-9.525-5.497c-1.206 0-2.219.342-3.039 1.025-.819.683-1.32 1.616-1.502 2.8h9.048c-.182-1.161-.683-2.083-1.503-2.766-.819-.706-1.82-1.059-3.004-1.059zm24.235-4.028c2.277 0 4.109.683 5.497 2.048 1.411 1.366 2.117 3.392 2.117 6.078V33h-5.326v-9.696c0-1.457-.319-2.538-.956-3.243-.637-.729-1.559-1.093-2.765-1.093-1.343 0-2.413.421-3.21 1.263-.796.82-1.195 2.049-1.195 3.687V33h-5.326V14.632h5.087v2.15c.706-.773 1.582-1.365 2.629-1.774 1.047-.433 2.197-.65 3.448-.65zm18.621 18.914c-1.525 0-3.015-.182-4.472-.546-1.457-.387-2.618-.865-3.483-1.434l1.776-3.824c.819.524 1.809.956 2.97 1.297 1.161.32 2.299.479 3.414.479 2.254 0 3.38-.558 3.38-1.674 0-.523-.307-.899-.922-1.126-.614-.228-1.559-.421-2.833-.58-1.503-.228-2.743-.49-3.722-.786a5.893 5.893 0 01-2.56-1.57c-.706-.751-1.059-1.821-1.059-3.21 0-1.16.33-2.185.99-3.072.683-.91 1.662-1.616 2.937-2.117 1.297-.5 2.822-.751 4.574-.751 1.298 0 2.584.148 3.858.444 1.298.273 2.368.66 3.21 1.16l-1.776 3.79c-1.616-.91-3.38-1.366-5.292-1.366-1.138 0-1.991.16-2.56.479-.569.318-.854.728-.854 1.229 0 .569.308.967.922 1.195.615.227 1.593.443 2.936.648 1.503.25 2.732.524 3.688.82a5.41 5.41 0 012.492 1.536c.705.751 1.058 1.798 1.058 3.141 0 1.138-.341 2.15-1.024 3.039-.683.887-1.684 1.581-3.004 2.082-1.298.478-2.846.717-4.644.717z" fill="#7D7D7D"/><path d="M24.321 28.506l-2.11 1.221-2.11-1.221v-2.44l2.11-1.217 2.11 1.218v2.439z" fill="#FC3"/><path d="M22.21 20.71l-5.604 3.235v6.47l5.605 3.236 5.605-3.236v-6.47l-5.605-3.236zm3.646 8.573l-3.645 2.107-3.645-2.107v-4.21l3.645-2.106 3.645 2.106v4.21z" fill="#FC3"/><path d="M9.138 20.725L3.533 23.96v6.471l5.605 3.235 5.605-3.235v-6.47l-5.605-3.236z" fill="#EF7D30"/><path d="M15.729 9.36l-1.956 1.129-3.646 2.107h-.004v6.47l.004.004 1.96-1.128-.004-.004v-4.21l.004-.004 3.642-2.102v-.004l-.004-.004h.004V9.36z" fill="#FFE377"/><path d="M19.37 17.938l-3.642 2.11-.003.004-3.638-2.11-1.96 1.128 3.646 2.103 1.956 1.129 1.952-1.129 3.652-2.107-1.963-1.128z" fill="#EF7D30"/><path d="M17.684 10.489L15.728 9.36v2.258l3.642 2.106.004.004v4.21h-.004l1.963 1.128v-6.47l-3.649-2.107zM9.138 22.84l-3.854 2.222v4.449l3.854 2.227 3.854-2.227v-4.45L9.138 22.84z" fill="#FC3"/><path d="M11.248 28.413l-2.11 1.222-2.11-1.222v-2.435l2.11-1.222 2.11 1.222v2.435z" fill="#fff"/><path d="M12.076 7.706l-1.949 1.136 1.952 1.121h.004l3.638-2.11.004-.004 3.653 2.091v.008l1.955-1.144-5.612-3.216h-.004l-3.641 2.118z" fill="#FC3"/><path d="M0 26.693l.008 2.258.015 4.209v.004l5.613 3.216.004-.004-.004-2.257h-.008L1.98 32.027v-.007l-.004.003-.011-4.205v-.004h-.008v-.004L0 26.693z" fill="#FFE377"/><path d="M29.404 27.802l.004 4.21v.004l-3.649 2.091-.004 2.261 3.65-2.102 1.955-1.125v-2.258l.004-4.213-1.96 1.132z" fill="#EF7D30"/></symbol><symbol id="mail" viewBox="0 0 10 10"><path fill-rule="evenodd" clip-rule="evenodd" d="M8.334 1.25H1.667c-.708 0-1.25.542-1.25 1.25v5c0 .708.542 1.25 1.25 1.25h6.667c.708 0 1.25-.542 1.25-1.25v-5c0-.708-.542-1.25-1.25-1.25zm-6.667.833h6.667c.166 0 .291.084.375.25L5 4.917 1.292 2.333c.083-.166.208-.25.375-.25zM1.25 7.5c0 .25.167.417.417.417h6.667c.25 0 .416-.167.416-.417V3.292L5.25 5.75a.583.583 0 01-.25.083.591.591 0 01-.25-.083l-3.5-2.458V7.5z"/><mask id="mask0" maskUnits="userSpaceOnUse" x="0" y="1" width="10" height="8"><path fill-rule="evenodd" clip-rule="evenodd" d="M8.334 1.25H1.667c-.708 0-1.25.542-1.25 1.25v5c0 .708.542 1.25 1.25 1.25h6.667c.708 0 1.25-.542 1.25-1.25v-5c0-.708-.542-1.25-1.25-1.25zm-6.667.833h6.667c.166 0 .291.084.375.25L5 4.917 1.292 2.333c.083-.166.208-.25.375-.25zM1.25 7.5c0 .25.167.417.417.417h6.667c.25 0 .416-.167.416-.417V3.292L5.25 5.75a.583.583 0 01-.25.083.591.591 0 01-.25-.083l-3.5-2.458V7.5z"/></mask></symbol><symbol id="message" viewBox="0 0 24 25"><path fill-rule="evenodd" clip-rule="evenodd" d="M5 2.668h14c1.7 0 3 1.3 3 3v10c0 1.7-1.3 3-3 3H7.4l-3.7 3.7c-.2.2-.4.3-.7.3-.1 0-.3 0-.4-.1-.4-.1-.6-.5-.6-.9v-16c0-1.7 1.3-3 3-3zm14 14c.6 0 1-.4 1-1v-10c0-.6-.4-1-1-1H5c-.6 0-1 .4-1 1v13.6l2.3-2.3c.2-.2.4-.3.7-.3h12z"/><mask id="mask0" maskUnits="userSpaceOnUse" x="2" y="2" width="20" height="21"><path fill-rule="evenodd" clip-rule="evenodd" d="M5 2.668h14c1.7 0 3 1.3 3 3v10c0 1.7-1.3 3-3 3H7.4l-3.7 3.7c-.2.2-.4.3-.7.3-.1 0-.3 0-.4-.1-.4-.1-.6-.5-.6-.9v-16c0-1.7 1.3-3 3-3zm14 14c.6 0 1-.4 1-1v-10c0-.6-.4-1-1-1H5c-.6 0-1 .4-1 1v13.6l2.3-2.3c.2-.2.4-.3.7-.3h12z"/></mask></symbol><symbol id="notification" viewBox="0 0 20 20"><path fill-rule="evenodd" clip-rule="evenodd" d="M19.167 14.167c0 .5-.334.833-.834.833H1.667c-.5 0-.834-.333-.834-.833 0-.5.334-.834.834-.834.916 0 1.666-.75 1.666-1.666V7.5c0-3.667 3-6.667 6.667-6.667s6.667 3 6.667 6.667v4.167c0 .916.75 1.666 1.666 1.666.5 0 .834.334.834.834zm-7 3.75A2.511 2.511 0 0110 19.167c-.417 0-.833-.084-1.25-.334-.417-.25-.667-.5-.917-.916-.25-.417-.083-.917.334-1.167.416-.25.916-.083 1.166.333.026.026.05.058.078.094.064.083.14.182.256.24.416.25.916.083 1.166-.334.25-.416.75-.5 1.167-.333.417.167.417.75.167 1.167zM15 11.667c0 .583.167 1.166.417 1.666H4.583c.25-.5.417-1.083.417-1.666V7.5c0-2.75 2.25-5 5-5s5 2.25 5 5v4.167z"/><mask id="mask0" maskUnits="userSpaceOnUse" x="0" y="0" width="20" height="20"><path fill-rule="evenodd" clip-rule="evenodd" d="M19.167 14.167c0 .5-.334.833-.834.833H1.667c-.5 0-.834-.333-.834-.833 0-.5.334-.834.834-.834.916 0 1.666-.75 1.666-1.666V7.5c0-3.667 3-6.667 6.667-6.667s6.667 3 6.667 6.667v4.167c0 .916.75 1.666 1.666 1.666.5 0 .834.334.834.834zm-7 3.75A2.511 2.511 0 0110 19.167c-.417 0-.833-.084-1.25-.334-.417-.25-.667-.5-.917-.916-.25-.417-.083-.917.334-1.167.416-.25.916-.083 1.166.333.026.026.05.058.078.094.064.083.14.182.256.24.416.25.916.083 1.166-.334.25-.416.75-.5 1.167-.333.417.167.417.75.167 1.167zM15 11.667c0 .583.167 1.166.417 1.666H4.583c.25-.5.417-1.083.417-1.666V7.5c0-2.75 2.25-5 5-5s5 2.25 5 5v4.167z"/></mask></symbol><symbol id="person" viewBox="0 0 28 29"><path d="M18.09 14.517c2.1-1.35 3.5-3.7 3.5-6.37 0-4.17-3.4-7.57-7.57-7.57s-7.57 3.39-7.57 7.57c0 2.67 1.4 5.02 3.5 6.37-5.68 1.74-9.83 7.04-9.83 13.28 0 .5.41.9.91.9s.9-.4.9-.9c0-6.66 5.42-12.09 12.09-12.09s12.09 5.42 12.09 12.09c0 .5.4.9.9.9s.91-.4.91-.9c0-6.25-4.14-11.54-9.83-13.28zm-9.82-6.37c0-3.18 2.58-5.76 5.76-5.76 3.17 0 5.76 2.58 5.76 5.76 0 3.18-2.58 5.76-5.76 5.76-3.18-.01-5.76-2.59-5.76-5.76z"/></symbol><symbol id="phone" viewBox="0 0 10 11"><path fill-rule="evenodd" clip-rule="evenodd" d="M7.45 5.86c.314.117.667.196 1.02.235a1.184 1.184 0 011.019 1.176v1.176c0 .314-.157.588-.353.823-.196.236-.51.353-.823.353h-.118A7.807 7.807 0 014.628 8.37a8.243 8.243 0 01-2.47-2.47C1.49 4.84 1.02 3.586.903 2.332c0-.314.079-.628.275-.863s.47-.392.784-.431h1.293c.589 0 1.098.431 1.177 1.02.039.352.117.705.235 1.018.157.432.039.941-.275 1.255l-.274.274c.47.745 1.098 1.333 1.803 1.804l.275-.275c.352-.313.823-.431 1.254-.274zm1.255 2.587V7.271a.422.422 0 00-.314-.392c-.392-.078-.784-.157-1.176-.314-.157-.078-.314-.039-.431.079l-.51.51c-.117.156-.313.156-.47.078a6.433 6.433 0 01-2.51-2.51.417.417 0 01.08-.47l.509-.47a.544.544 0 00.078-.431 4.014 4.014 0 01-.313-1.176c-.04-.196-.196-.353-.392-.353H2.08c-.118 0-.236.078-.314.157a.567.567 0 00-.078.274 7.374 7.374 0 001.136 3.215c.588.901 1.333 1.685 2.235 2.234A7.374 7.374 0 008.274 8.84c.156 0 .235-.04.313-.117a.356.356 0 00.118-.275z"/><mask id="mask0" maskUnits="userSpaceOnUse" x="0" y="1" width="10" height="9"><path fill-rule="evenodd" clip-rule="evenodd" d="M7.45 5.86c.314.117.667.196 1.02.235a1.184 1.184 0 011.019 1.176v1.176c0 .314-.157.588-.353.823-.196.236-.51.353-.823.353h-.118A7.807 7.807 0 014.628 8.37a8.243 8.243 0 01-2.47-2.47C1.49 4.84 1.02 3.586.903 2.332c0-.314.079-.628.275-.863s.47-.392.784-.431h1.293c.589 0 1.098.431 1.177 1.02.039.352.117.705.235 1.018.157.432.039.941-.275 1.255l-.274.274c.47.745 1.098 1.333 1.803 1.804l.275-.275c.352-.313.823-.431 1.254-.274zm1.255 2.587V7.271a.422.422 0 00-.314-.392c-.392-.078-.784-.157-1.176-.314-.157-.078-.314-.039-.431.079l-.51.51c-.117.156-.313.156-.47.078a6.433 6.433 0 01-2.51-2.51.417.417 0 01.08-.47l.509-.47a.544.544 0 00.078-.431 4.014 4.014 0 01-.313-1.176c-.04-.196-.196-.353-.392-.353H2.08c-.118 0-.236.078-.314.157a.567.567 0 00-.078.274 7.374 7.374 0 001.136 3.215c.588.901 1.333 1.685 2.235 2.234A7.374 7.374 0 008.274 8.84c.156 0 .235-.04.313-.117a.356.356 0 00.118-.275z"/></mask></symbol><symbol id="pie-chart" viewBox="0 0 15 15"><path fill-rule="evenodd" clip-rule="evenodd" d="M13.673 7.438c0 .35-.234.583-.584.583H7.254c-.35 0-.583-.233-.583-.583V1.605c0-.35.233-.584.583-.584a6.4 6.4 0 016.419 6.417zm-.525 2.508c-.992 2.45-3.385 3.909-5.894 3.909a6.455 6.455 0 01-2.509-.525c-3.267-1.4-4.784-5.134-3.384-8.4.642-1.517 1.809-2.742 3.326-3.384.292-.116.642 0 .758.292.117.292 0 .642-.291.758-1.226.584-2.218 1.575-2.743 2.8-1.108 2.684.117 5.776 2.801 6.884 2.684 1.108 5.777-.117 6.885-2.8.117-.292.467-.409.759-.292.292.117.408.467.292.758zm-5.31-7.7c2.392.234 4.318 2.159 4.61 4.609h-4.61V2.246z"/><path fill-rule="evenodd" clip-rule="evenodd" d="M13.673 7.438c0 .35-.234.583-.584.583H7.254c-.35 0-.583-.233-.583-.583V1.605c0-.35.233-.584.583-.584a6.4 6.4 0 016.419 6.417zm-.525 2.508c-.992 2.45-3.385 3.909-5.894 3.909a6.455 6.455 0 01-2.509-.525c-3.267-1.4-4.784-5.134-3.384-8.4.642-1.517 1.809-2.742 3.326-3.384.292-.116.642 0 .758.292.117.292 0 .642-.291.758-1.226.584-2.218 1.575-2.743 2.8-1.108 2.684.117 5.776 2.801 6.884 2.684 1.108 5.777-.117 6.885-2.8.117-.292.467-.409.759-.292.292.117.408.467.292.758zm-5.31-7.7c2.392.234 4.318 2.159 4.61 4.609h-4.61V2.246z"/></symbol><symbol id="play" viewBox="0 0 48 53"><path d="M44.656 22.226c3.368 1.944 3.368 6.806 0 8.75L7.71 52.306C4.343 54.251.133 51.82.133 47.931V5.271c0-3.889 4.21-6.32 7.578-4.375l36.945 21.33z"/></symbol><symbol id="search" viewBox="0 0 24 24"><path fill-rule="evenodd" clip-rule="evenodd" d="M17.2 15.8l4.5 4.5c.4.4.4 1 0 1.4-.2.2-.5.3-.7.3-.2 0-.5-.1-.7-.3l-4.5-4.5c-1.5 1.1-3.3 1.8-5.3 1.8C5.8 19 2 15.2 2 10.5S5.8 2 10.5 2 19 5.8 19 10.5c0 2-.7 3.9-1.8 5.3zM10.5 4C6.9 4 4 6.9 4 10.5S6.9 17 10.5 17c1.8 0 3.4-.7 4.6-1.9 1.2-1.2 1.9-2.8 1.9-4.6C17 6.9 14.1 4 10.5 4z"/><mask id="mask0" maskUnits="userSpaceOnUse" x="2" y="2" width="20" height="20"><path fill-rule="evenodd" clip-rule="evenodd" d="M17.2 15.8l4.5 4.5c.4.4.4 1 0 1.4-.2.2-.5.3-.7.3-.2 0-.5-.1-.7-.3l-4.5-4.5c-1.5 1.1-3.3 1.8-5.3 1.8C5.8 19 2 15.2 2 10.5S5.8 2 10.5 2 19 5.8 19 10.5c0 2-.7 3.9-1.8 5.3zM10.5 4C6.9 4 4 6.9 4 10.5S6.9 17 10.5 17c1.8 0 3.4-.7 4.6-1.9 1.2-1.2 1.9-2.8 1.9-4.6C17 6.9 14.1 4 10.5 4z"/></mask></symbol><symbol id="services-hand" viewBox="0 0 21 18"><path d="M19.753 8.877c-.667-.493-1.724-.54-2.418.13l-1.724 1.664c-.225-.641-.892-1.11-1.678-1.11H10.86c-.232 0-.31-.078-.714-.363C8.6 7.986 6.281 7.992 4.742 9.21l-1.13.897A1.912 1.912 0 002 10.089l-1.295.582c-.29.131-.41.446-.264.708l3.515 6.327c.145.262.495.369.786.238l1.295-.582c.64-.285.997-.874.971-1.468h6.924c1.281 0 2.51-.552 3.283-1.473l2.815-3.375a1.485 1.485 0 00-.278-2.169zM5.51 16.411l-.773.345-2.993-5.383.773-.345c.291-.13.641-.024.787.238l2.47 4.438c.14.262.027.576-.264.707zm13.577-6.007l-2.814 3.375c-.549.66-1.427 1.052-2.346 1.052H6.593l-2.194-3.952L5.51 10c1.104-.873 2.768-.873 3.872 0 .647.517 1.057.612 1.473.612h3.072c.324 0 .588.238.588.529 0 .291-.264.529-.588.529h-2.993c-.323 0-.588.237-.588.528 0 .292.265.53.588.53h3.39c.489 0 .957-.185 1.288-.506l2.583-2.49a.638.638 0 01.82-.035.492.492 0 01.072.707zM12.697 3.6c.403-.38.648-.89.648-1.455C13.345.986 12.3 0 10.999 0 9.705 0 8.614.98 8.614 2.145c0 .547.238 1.064.668 1.456-1.07.54-1.844 1.58-1.844 2.792v.53c0 .29.265.528.588.528h5.9c.324 0 .588-.238.588-.529V6.4c0-1.194-.726-2.246-1.817-2.798zM11 1.059c.634 0 1.169.499 1.169 1.087 0 .582-.529 1.052-1.17 1.052-.654 0-1.209-.482-1.209-1.052 0-.576.562-1.087 1.21-1.087zm-2.387 5.34c0-1.164 1.09-2.145 2.385-2.145 1.295 0 2.346.963 2.346 2.145h-4.73z"/></symbol><symbol id="fb" viewBox="0 0 14 25"><path fill-rule="evenodd" clip-rule="evenodd" d="M9.007 24.067V13.14h3.687l.548-4.278H9.007V6.135c0-1.234.344-2.08 2.116-2.08h2.245V.241A29.782 29.782 0 0010.08.07c-3.259 0-5.496 1.99-5.496 5.642v3.14H.92v4.279h3.671v10.935h4.416z"/></symbol><symbol id="git" viewBox="0 0 25 24"><path d="M12.2.071C5.59.071.233 5.43.233 12.041c0 5.286 3.428 9.773 8.185 11.357.599.108.815-.26.815-.577 0-.285-.01-1.038-.013-2.035-3.33.722-4.033-1.606-4.033-1.606-.543-1.382-1.329-1.75-1.329-1.75-1.086-.744.083-.727.083-.727 1.202.084 1.832 1.234 1.832 1.234 1.068 1.829 2.804 1.3 3.483.995.109-.774.42-1.302.762-1.601-2.657-.301-5.45-1.328-5.45-5.916 0-1.304.466-2.375 1.228-3.21-.121-.304-.535-1.522.119-3.168 0 0 1.004-.323 3.29 1.225A11.499 11.499 0 0112.2 5.86a11.48 11.48 0 012.996.403c2.287-1.55 3.29-1.225 3.29-1.225.654 1.646.244 2.864.119 3.168.768.835 1.229 1.904 1.229 3.21 0 4.6-2.796 5.61-5.463 5.906.426.37.81 1.1.81 2.215 0 1.601-.014 2.892-.014 3.285 0 .32.213.692.824.575 4.755-1.587 8.18-6.07 8.18-11.356C24.17 5.43 18.81.071 12.2.071z"/></symbol><symbol id="google" viewBox="0 0 24 24"><path fill-rule="evenodd" clip-rule="evenodd" d="M23.13 9.88H12.029v4.6h6.39c-.595 2.924-3.084 4.604-6.39 4.604a7.026 7.026 0 01-7.038-7.04 7.026 7.026 0 017.038-7.038c1.679 0 3.196.596 4.387 1.57l3.466-3.465C17.77 1.27 15.061.134 12.028.134A11.877 11.877 0 00.116 12.046a11.876 11.876 0 0011.912 11.912c5.956 0 11.372-4.332 11.372-11.912 0-.704-.108-1.463-.27-2.167z"/></symbol><symbol id="heart" viewBox="0 0 25 25"><path d="M22.072 3.952c-1.156-1.188-2.698-1.88-4.336-1.88a6.268 6.268 0 00-4.432 1.88l-.385.397-.385-.397a6.104 6.104 0 00-8.768 0C2.513 5.141 1.839 6.824 1.839 8.507c0 1.683.674 3.366 1.83 4.554l8.48 8.713c.192.198.385.297.674.297.289 0 .481-.099.674-.297l8.479-8.713c1.156-1.188 1.83-2.87 1.83-4.554.193-1.683-.481-3.366-1.734-4.555z"/><path d="M22.072 3.952c-1.156-1.188-2.698-1.88-4.336-1.88a6.268 6.268 0 00-4.432 1.88l-.385.397-.385-.397a6.104 6.104 0 00-8.768 0C2.513 5.141 1.839 6.824 1.839 8.507c0 1.683.674 3.366 1.83 4.554l8.48 8.713c.192.198.385.297.674.297.289 0 .481-.099.674-.297l8.479-8.713c1.156-1.188 1.83-2.87 1.83-4.554.193-1.683-.481-3.366-1.734-4.555z"/></symbol><symbol id="in" viewBox="0 0 24 24"><path fill-rule="evenodd" clip-rule="evenodd" d="M3.02 5.636a2.764 2.764 0 100-5.528 2.764 2.764 0 000 5.528zM8.394 7.73v15.334h4.76V15.48c0-2 .377-3.938 2.858-3.938 2.447 0 2.477 2.287 2.477 4.064v7.458h4.763v-8.409c0-4.13-.89-7.305-5.717-7.305-2.318 0-3.871 1.272-4.507 2.476h-.064V7.73h-4.57zm-7.759 0h4.769v15.334H.635V7.73z"/></symbol><symbol id="insta" viewBox="0 0 25 25"><path fill-rule="evenodd" clip-rule="evenodd" d="M23.368 4.204A6.133 6.133 0 0019.86.702a8.817 8.817 0 00-2.913-.559C15.662.087 15.256.071 12 .071c-3.254 0-3.671 0-4.944.072-.994.02-1.98.208-2.91.559a6.125 6.125 0 00-3.51 3.502 8.75 8.75 0 00-.558 2.91C.02 8.393.004 8.798.004 12.05c0 3.25 0 3.663.075 4.937.02.995.207 1.977.558 2.91a6.139 6.139 0 003.51 3.502 8.787 8.787 0 002.912.6c1.284.055 1.69.072 4.945.072 3.255 0 3.672 0 4.944-.073a8.827 8.827 0 002.914-.558 6.142 6.142 0 003.509-3.503c.35-.932.538-1.914.558-2.909.058-1.28.075-1.686.075-4.937 0-3.25 0-3.663-.075-4.937a8.746 8.746 0 00-.56-2.95zm-1.623 12.684a6.7 6.7 0 01-.415 2.246 3.978 3.978 0 01-2.281 2.277 6.652 6.652 0 01-2.226.414c-1.266.059-1.623.073-4.87.073-3.249 0-3.58 0-4.87-.073a6.618 6.618 0 01-2.225-.414 3.975 3.975 0 01-2.291-2.277 6.752 6.752 0 01-.415-2.22c-.057-1.265-.07-1.621-.07-4.863 0-3.243 0-3.574.07-4.863a6.7 6.7 0 01.415-2.245 3.977 3.977 0 012.29-2.278 6.685 6.685 0 012.225-.414c1.268-.057 1.623-.073 4.871-.073s3.581 0 4.87.073a6.62 6.62 0 012.226.414 3.984 3.984 0 012.281 2.278c.262.71.403 1.462.415 2.22.057 1.266.072 1.622.072 4.864s0 3.59-.057 4.863h-.015v-.002zM20.004 5.571a1.5 1.5 0 11-3 0 1.5 1.5 0 013 0zm-14 6.5a6 6 0 1111.998.003 6 6 0 01-11.998-.003zm2.101 0a3.898 3.898 0 007.795 0 3.898 3.898 0 00-7.795 0z"/></symbol><symbol id="star" viewBox="0 0 25 25"><path d="M23.884 8.983c-.1-.399-.398-.599-.797-.698l-6.378-.899-2.89-5.79c-.3-.7-1.495-.7-1.794 0l-2.89 5.69-6.279.999c-.398 0-.697.3-.897.698-.1.4 0 .8.3.999l4.584 4.493-1.097 6.39c-.1.399.1.798.399.998.299.2.698.3 1.096.1l5.68-2.996 5.681 2.995h.499c.2 0 .399-.1.598-.2a.948.948 0 00.398-.998l-1.096-6.39 4.584-4.492c.3-.2.4-.599.3-.899z"/><path d="M23.884 8.983c-.1-.399-.398-.599-.797-.698l-6.378-.899-2.89-5.79c-.3-.7-1.495-.7-1.794 0l-2.89 5.69-6.279.999c-.398 0-.697.3-.897.698-.1.4 0 .8.3.999l4.584 4.493-1.097 6.39c-.1.399.1.798.399.998.299.2.698.3 1.096.1l5.68-2.996 5.681 2.995h.499c.2 0 .399-.1.598-.2a.948.948 0 00.398-.998l-1.096-6.39 4.584-4.492c.3-.2.4-.599.3-.899z"/></symbol><symbol id="tw" viewBox="0 0 24 20"><path fill-rule="evenodd" clip-rule="evenodd" d="M21.577 5.582c.016.21.016.419.016.628 0 6.39-4.864 13.753-13.752 13.753-2.739 0-5.283-.793-7.424-2.17.39.044.764.06 1.168.06a9.68 9.68 0 006.001-2.066 4.843 4.843 0 01-4.52-3.352c.299.045.599.075.913.075.433 0 .869-.06 1.273-.165a4.832 4.832 0 01-3.876-4.743v-.06a4.877 4.877 0 002.184.613A4.826 4.826 0 011.405 4.13c0-.897.239-1.72.658-2.438A13.748 13.748 0 0012.03 6.75a5.493 5.493 0 01-.12-1.108A4.831 4.831 0 0116.744.81a4.82 4.82 0 013.531 1.526 9.549 9.549 0 003.067-1.168 4.825 4.825 0 01-2.125 2.664A9.688 9.688 0 0024 3.083a10.42 10.42 0 01-2.423 2.5z"/></symbol></svg>