<svg xmlns="http://www.w3.org/2000/svg" xmlns:xlink="http://www.w3.org/1999/xlink"><symbol id="arrow-link" viewBox="0 0 66 10"><path d="M64.82 5.569a.66.66 0 000-.934L60.618.434a.66.66 0 10-.933.934l3.734 3.734-3.734 3.734a.66.66 0 10.933.934l4.202-4.2zM.94 5.762h63.413v-1.32H.94v1.32z"/></symbol><symbol id="company" viewBox="0 0 25 25"><path d="M14.362 9.527l9 1.79c.73.15 1.22.77 1.22 1.49v10.41c0 .85-.68 1.53-1.53 1.53h-9.19a.5.5 0 00.51-.51v-.51h8.68c.28 0 .51-.22.51-.51v-10.41c0-.23-.16-.45-.4-.5l-8.79-1.74v-1.04h-.01z"/><path d="M19.982 14.537a.5.5 0 01.51.51.5.5 0 01-.51.51h-2.04a.5.5 0 01-.51-.51.5.5 0 01.51-.51h2.04zm0 3.069a.5.5 0 01.51.51.5.5 0 01-.51.51h-2.04a.5.5 0 01-.51-.51.5.5 0 01.51-.51h2.04zm0 3.06a.5.5 0 01.51.51.5.5 0 01-.51.51h-2.04a.5.5 0 01-.51-.51.5.5 0 01.51-.51h2.04zm-5.62 3.581a.5.5 0 01-.51.51.5.5 0 01-.51-.51v-14.3c0-.15.07-.3.18-.4.12-.09.28-.13.43-.1l.41.08v14.72z"/><path d="M13.342 23.727v.51c0 .29.22.51.51.51h-4.09a.5.5 0 00.51-.51v-.51h3.07zm-2.56-18.38a.5.5 0 01.51.51.5.5 0 01-.51.51h-2.04a.5.5 0 01-.51-.51.5.5 0 01.51-.51h2.04zm.51 3.58a.5.5 0 01-.51.51h-2.04a.5.5 0 01-.51-.51.5.5 0 01.51-.51h2.04a.5.5 0 01.51.51zm-.51 2.55a.5.5 0 01.51.51.5.5 0 01-.51.51h-2.04a.5.5 0 01-.51-.51.5.5 0 01.51-.51h2.04zm0 3.06a.5.5 0 01.51.51.5.5 0 01-.51.51h-2.04a.5.5 0 01-.51-.51.5.5 0 01.51-.51h2.04zm-4.59.51a.5.5 0 01-.51.51h-2.04a.5.5 0 01-.51-.51.5.5 0 01.51-.51h2.04c.28 0 .51.23.51.51zm-.51-9.7a.5.5 0 01.51.51.5.5 0 01-.51.51h-2.04a.5.5 0 01-.51-.51.5.5 0 01.51-.51h2.04zm0 3.069a.5.5 0 01.51.51.5.5 0 01-.51.51h-2.04a.5.5 0 01-.51-.51.5.5 0 01.51-.51h2.04zm0 3.061a.5.5 0 01.51.51.5.5 0 01-.51.51h-2.04a.5.5 0 01-.51-.51.5.5 0 01.51-.51h2.04z"/><path d="M9.252 19.136c0-.29-.23-.51-.51-.51h-3.06a.5.5 0 00-.51.51v4.6h-1.02v-4.6c0-.85.68-1.53 1.53-1.53h3.06c.85 0 1.53.68 1.53 1.53v4.6h-1.02v-4.6z"/><path d="M5.172 23.727h5.11v.51a.5.5 0 01-.51.51h-5.11a.5.5 0 01-.51-.51v-.51h1.02z"/><path d="M1.852.447l11.22 1.71c.75.12 1.29.76 1.29 1.51v5.86l-.41-.08a.548.548 0 00-.43.1c-.11.1-.18.25-.18.4v-6.28c0-.26-.18-.47-.43-.51l-11.22-1.7c-.03-.01-.06-.01-.09-.01-.12 0-.23.04-.33.12-.12.1-.18.23-.18.39v21.26c0 .29.23.51.51.51h2.55v.51c0 .29.22.51.51.51h-3.06c-.85 0-1.53-.68-1.53-1.53V1.957c0-.45.19-.88.54-1.16.34-.3.79-.42 1.24-.35z"/></symbol><symbol id="person" viewBox="0 0 28 29"><path d="M18.09 14.517c2.1-1.35 3.5-3.7 3.5-6.37 0-4.17-3.4-7.57-7.57-7.57s-7.57 3.39-7.57 7.57c0 2.67 1.4 5.02 3.5 6.37-5.68 1.74-9.83 7.04-9.83 13.28 0 .5.41.9.91.9s.9-.4.9-.9c0-6.66 5.42-12.09 12.09-12.09s12.09 5.42 12.09 12.09c0 .5.4.9.9.9s.91-.4.91-.9c0-6.25-4.14-11.54-9.83-13.28zm-9.82-6.37c0-3.18 2.58-5.76 5.76-5.76 3.17 0 5.76 2.58 5.76 5.76 0 3.18-2.58 5.76-5.76 5.76-3.18-.01-5.76-2.59-5.76-5.76z"/></symbol><symbol id="pie-chart" viewBox="0 0 15 15"><path fill-rule="evenodd" clip-rule="evenodd" d="M13.673 7.438c0 .35-.234.583-.584.583H7.254c-.35 0-.583-.233-.583-.583V1.605c0-.35.233-.584.583-.584a6.4 6.4 0 016.419 6.417zm-.525 2.508c-.992 2.45-3.385 3.909-5.894 3.909a6.455 6.455 0 01-2.509-.525c-3.267-1.4-4.784-5.134-3.384-8.4.642-1.517 1.809-2.742 3.326-3.384.292-.116.642 0 .758.292.117.292 0 .642-.291.758-1.226.584-2.218 1.575-2.743 2.8-1.108 2.684.117 5.776 2.801 6.884 2.684 1.108 5.777-.117 6.885-2.8.117-.292.467-.409.759-.292.292.117.408.467.292.758zm-5.31-7.7c2.392.234 4.318 2.159 4.61 4.609h-4.61V2.246z"/><path fill-rule="evenodd" clip-rule="evenodd" d="M13.673 7.438c0 .35-.234.583-.584.583H7.254c-.35 0-.583-.233-.583-.583V1.605c0-.35.233-.584.583-.584a6.4 6.4 0 016.419 6.417zm-.525 2.508c-.992 2.45-3.385 3.909-5.894 3.909a6.455 6.455 0 01-2.509-.525c-3.267-1.4-4.784-5.134-3.384-8.4.642-1.517 1.809-2.742 3.326-3.384.292-.116.642 0 .758.292.117.292 0 .642-.291.758-1.226.584-2.218 1.575-2.743 2.8-1.108 2.684.117 5.776 2.801 6.884 2.684 1.108 5.777-.117 6.885-2.8.117-.292.467-.409.759-.292.292.117.408.467.292.758zm-5.31-7.7c2.392.234 4.318 2.159 4.61 4.609h-4.61V2.246z"/></symbol><symbol id="fb" viewBox="0 0 14 25"><path fill-rule="evenodd" clip-rule="evenodd" d="M9.007 24.067V13.14h3.687l.548-4.278H9.007V6.135c0-1.234.344-2.08 2.116-2.08h2.245V.241A29.782 29.782 0 0010.08.07c-3.259 0-5.496 1.99-5.496 5.642v3.14H.92v4.279h3.671v10.935h4.416z" fill="#3B5998"/></symbol><symbol id="git" viewBox="0 0 25 24"><path d="M12.2.071C5.59.071.233 5.43.233 12.041c0 5.286 3.428 9.773 8.185 11.357.599.108.815-.26.815-.577 0-.285-.01-1.038-.013-2.035-3.33.722-4.033-1.606-4.033-1.606-.543-1.382-1.329-1.75-1.329-1.75-1.086-.744.083-.727.083-.727 1.202.084 1.832 1.234 1.832 1.234 1.068 1.829 2.804 1.3 3.483.995.109-.774.42-1.302.762-1.601-2.657-.301-5.45-1.328-5.45-5.916 0-1.304.466-2.375 1.228-3.21-.121-.304-.535-1.522.119-3.168 0 0 1.004-.323 3.29 1.225A11.499 11.499 0 0112.2 5.86a11.48 11.48 0 012.996.403c2.287-1.55 3.29-1.225 3.29-1.225.654 1.646.244 2.864.119 3.168.768.835 1.229 1.904 1.229 3.21 0 4.6-2.796 5.61-5.463 5.906.426.37.81 1.1.81 2.215 0 1.601-.014 2.892-.014 3.285 0 .32.213.692.824.575 4.755-1.587 8.18-6.07 8.18-11.356C24.17 5.43 18.81.071 12.2.071z" fill="#211F1F"/></symbol><symbol id="google" viewBox="0 0 24 24"><path fill-rule="evenodd" clip-rule="evenodd" d="M23.13 9.88H12.029v4.6h6.39c-.595 2.924-3.084 4.604-6.39 4.604a7.026 7.026 0 01-7.038-7.04 7.026 7.026 0 017.038-7.038c1.679 0 3.196.596 4.387 1.57l3.466-3.465C17.77 1.27 15.061.134 12.028.134A11.877 11.877 0 00.116 12.046a11.876 11.876 0 0011.912 11.912c5.956 0 11.372-4.332 11.372-11.912 0-.704-.108-1.463-.27-2.167z" fill="#DB3236"/></symbol><symbol id="heart" viewBox="0 0 25 25"><path d="M22.072 3.952c-1.156-1.188-2.698-1.88-4.336-1.88a6.268 6.268 0 00-4.432 1.88l-.385.397-.385-.397a6.104 6.104 0 00-8.768 0C2.513 5.141 1.839 6.824 1.839 8.507c0 1.683.674 3.366 1.83 4.554l8.48 8.713c.192.198.385.297.674.297.289 0 .481-.099.674-.297l8.479-8.713c1.156-1.188 1.83-2.87 1.83-4.554.193-1.683-.481-3.366-1.734-4.555z" fill="#EA5455"/><path d="M22.072 3.952c-1.156-1.188-2.698-1.88-4.336-1.88a6.268 6.268 0 00-4.432 1.88l-.385.397-.385-.397a6.104 6.104 0 00-8.768 0C2.513 5.141 1.839 6.824 1.839 8.507c0 1.683.674 3.366 1.83 4.554l8.48 8.713c.192.198.385.297.674.297.289 0 .481-.099.674-.297l8.479-8.713c1.156-1.188 1.83-2.87 1.83-4.554.193-1.683-.481-3.366-1.734-4.555z" fill="#EA5455"/></symbol><symbol id="in" viewBox="0 0 24 24"><path fill-rule="evenodd" clip-rule="evenodd" d="M3.02 5.636a2.764 2.764 0 100-5.528 2.764 2.764 0 000 5.528zM8.394 7.73v15.334h4.76V15.48c0-2 .377-3.938 2.858-3.938 2.447 0 2.477 2.287 2.477 4.064v7.458h4.763v-8.409c0-4.13-.89-7.305-5.717-7.305-2.318 0-3.871 1.272-4.507 2.476h-.064V7.73h-4.57zm-7.759 0h4.769v15.334H.635V7.73z" fill="#0E76A8"/></symbol><symbol id="insta" viewBox="0 0 25 25"><path fill-rule="evenodd" clip-rule="evenodd" d="M23.368 4.204A6.133 6.133 0 0019.86.702a8.817 8.817 0 00-2.913-.559C15.662.087 15.256.071 12 .071c-3.254 0-3.671 0-4.944.072-.994.02-1.98.208-2.91.559a6.125 6.125 0 00-3.51 3.502 8.75 8.75 0 00-.558 2.91C.02 8.393.004 8.798.004 12.05c0 3.25 0 3.663.075 4.937.02.995.207 1.977.558 2.91a6.139 6.139 0 003.51 3.502 8.787 8.787 0 002.912.6c1.284.055 1.69.072 4.945.072 3.255 0 3.672 0 4.944-.073a8.827 8.827 0 002.914-.558 6.142 6.142 0 003.509-3.503c.35-.932.538-1.914.558-2.909.058-1.28.075-1.686.075-4.937 0-3.25 0-3.663-.075-4.937a8.746 8.746 0 00-.56-2.95zm-1.623 12.684a6.7 6.7 0 01-.415 2.246 3.978 3.978 0 01-2.281 2.277 6.652 6.652 0 01-2.226.414c-1.266.059-1.623.073-4.87.073-3.249 0-3.58 0-4.87-.073a6.618 6.618 0 01-2.225-.414 3.975 3.975 0 01-2.291-2.277 6.752 6.752 0 01-.415-2.22c-.057-1.265-.07-1.621-.07-4.863 0-3.243 0-3.574.07-4.863a6.7 6.7 0 01.415-2.245 3.977 3.977 0 012.29-2.278 6.685 6.685 0 012.225-.414c1.268-.057 1.623-.073 4.871-.073s3.581 0 4.87.073a6.62 6.62 0 012.226.414 3.984 3.984 0 012.281 2.278c.262.71.403 1.462.415 2.22.057 1.266.072 1.622.072 4.864s0 3.59-.057 4.863h-.015v-.002zM20.004 5.571a1.5 1.5 0 11-3 0 1.5 1.5 0 013 0zm-14 6.5a6 6 0 1111.998.003 6 6 0 01-11.998-.003zm2.101 0a3.898 3.898 0 007.795 0 3.898 3.898 0 00-7.795 0z" fill="#3F729B"/></symbol><symbol id="star" viewBox="0 0 25 25"><path d="M23.884 8.983c-.1-.399-.398-.599-.797-.698l-6.378-.899-2.89-5.79c-.3-.7-1.495-.7-1.794 0l-2.89 5.69-6.279.999c-.398 0-.697.3-.897.698-.1.4 0 .8.3.999l4.584 4.493-1.097 6.39c-.1.399.1.798.399.998.299.2.698.3 1.096.1l5.68-2.996 5.681 2.995h.499c.2 0 .399-.1.598-.2a.948.948 0 00.398-.998l-1.096-6.39 4.584-4.492c.3-.2.4-.599.3-.899z" fill="#FF9F43"/><path d="M23.884 8.983c-.1-.399-.398-.599-.797-.698l-6.378-.899-2.89-5.79c-.3-.7-1.495-.7-1.794 0l-2.89 5.69-6.279.999c-.398 0-.697.3-.897.698-.1.4 0 .8.3.999l4.584 4.493-1.097 6.39c-.1.399.1.798.399.998.299.2.698.3 1.096.1l5.68-2.996 5.681 2.995h.499c.2 0 .399-.1.598-.2a.948.948 0 00.398-.998l-1.096-6.39 4.584-4.492c.3-.2.4-.599.3-.899z" fill="#FF9F43"/></symbol><symbol id="tw" viewBox="0 0 24 20"><path fill-rule="evenodd" clip-rule="evenodd" d="M21.577 5.582c.016.21.016.419.016.628 0 6.39-4.864 13.753-13.752 13.753-2.739 0-5.283-.793-7.424-2.17.39.044.764.06 1.168.06a9.68 9.68 0 006.001-2.066 4.843 4.843 0 01-4.52-3.352c.299.045.599.075.913.075.433 0 .869-.06 1.273-.165a4.832 4.832 0 01-3.876-4.743v-.06a4.877 4.877 0 002.184.613A4.826 4.826 0 011.405 4.13c0-.897.239-1.72.658-2.438A13.748 13.748 0 0012.03 6.75a5.493 5.493 0 01-.12-1.108A4.831 4.831 0 0116.744.81a4.82 4.82 0 013.531 1.526 9.549 9.549 0 003.067-1.168 4.825 4.825 0 01-2.125 2.664A9.688 9.688 0 0024 3.083a10.42 10.42 0 01-2.423 2.5z" fill="#00ACEE"/></symbol></svg>
